<svg width="290" height="290" fill="none" xmlns="http://www.w3.org/2000/svg"><g clip-path="url(#a)"><path d="M132.304 115.907c.126 2.918-1.978 6.239-6.313 9.961a48.498 48.498 0 0 1-6.313 4.462l-3.612-1.946c9.016-5.061 13.584-9.599 13.706-13.612.056-1.363-1.09-2.507-3.437-3.433a14.105 14.105 0 0 0-5.198-1.107c-5.756 0-11.601 1.546-17.536 4.639-7.056 3.651-10.617 8.045-10.682 13.182 0 2.228 2.572 5.539 7.715 9.933l10.648 8.262c4.265 4.032 6.395 8.189 6.39 12.47 0 5.518-2.932 9.705-8.796 12.562-4.629 2.233-10.03 3.382-16.203 3.447a83.135 83.135 0 0 1-27.44-4.561l2.687-2.89a83.3 83.3 0 0 0 12.043 4.54 55.348 55.348 0 0 0 12.69 1.516c5.428.056 10.151-.849 14.168-2.714 5.247-2.43 7.87-6.077 7.87-10.941 0-3.924-2.156-7.541-6.467-10.849-2.095-1.551-6.135-4.655-12.12-9.312-4.34-3.412-6.54-6.937-6.601-10.575-.061-6.509 4.045-11.713 12.317-15.614a44.867 44.867 0 0 1 19.352-4.47c7.295-.018 11.006 2.331 11.132 7.05Zm17.802 38.997a40.974 40.974 0 0 1-4.91 11.985c-3.086 5.207-6.142 7.813-9.167 7.817-2.589 0-3.921-1.896-3.977-5.681a11.568 11.568 0 0 1 .554-4.188 100.471 100.471 0 0 1-3.704 6.239c-1.608 2.415-3.584 3.626-5.927 3.63a2.542 2.542 0 0 1-1.578-.923 4.236 4.236 0 0 1-.702-1.939c0-7.19 1.017-12.661 3.052-16.411l3.058-.55c-.935 3.549-2.2 8.833-3.795 15.855 0 1.529.337 2.319 1.017 2.382 1.978 0 4.356-2.531 7.134-7.592a73.645 73.645 0 0 0 4.72-10.278l3.059-.367c-.496 1.41-1.485 4.418-2.967 9.024a23.172 23.172 0 0 0-1.403 6.422c0 1.88.647 2.819 1.943 2.819 3.025.062 5.803-3.35 8.333-10.235a721.572 721.572 0 0 0 2.805-7.635l2.455-.374Zm16.182 3.18c.061 2.307-1.358 4.645-4.257 7.014a43.245 43.245 0 0 1-8.614 4.935l-.091.747c0 1.558.926 2.467 2.806 2.714 2.469 0 5.555-2.016 9.259-6.049h.463l-.463 1.601c-3.947 3.891-7.559 5.9-10.838 6.027-2.899.061-4.503-1.584-4.811-4.935 0-3.116 1.403-6.466 4.208-10.052 2.806-3.586 5.722-5.409 8.747-5.471 2.329-.056 3.542 1.1 3.591 3.469Zm-2.034.169c0-1.487-.701-2.235-2.104-2.235-1.978 0-3.923 1.706-5.836 5.118-1.744 3.017-2.644 5.654-2.7 7.91a22.198 22.198 0 0 0 6.761-4.188c2.507-2.232 3.8-4.434 3.879-6.605Zm20.833-.169c.061 2.307-1.359 4.645-4.258 7.014a43.363 43.363 0 0 1-8.613 4.935l-.092.747c0 1.558.926 2.467 2.806 2.714 2.469 0 5.555-2.016 9.259-6.049h.463l-.463 1.601c-3.947 3.891-7.559 5.9-10.837 6.027-2.895.061-4.499-1.584-4.812-4.935 0-3.116 1.403-6.466 4.209-10.052 2.805-3.586 5.721-5.409 8.746-5.471 2.329-.056 3.529 1.1 3.592 3.469Zm-2.034.169c0-1.487-.702-2.235-2.105-2.235-1.978 0-3.923 1.706-5.836 5.118-1.725 3.036-2.621 5.673-2.686 7.91a22.215 22.215 0 0 0 6.762-4.188c2.511-2.232 3.806-4.434 3.886-6.605h-.021Zm20.46-8.1-.182 1.678h-6.229l-5.429 18.244c-.02.377-.084.751-.189 1.114 0 .93.519 1.41 1.571 1.41s2.315-.593 3.802-1.77c1.662-1.678 2.679-2.728 3.051-3.165l.372.93c-3.33 4.16-6.416 6.274-9.259 6.345-2.104.063-3.178-1.121-3.241-3.525a5.698 5.698 0 0 1 .274-1.487l5.373-18.054h-2.497l.365-1.678h2.504l4.005-14 3.584-.754-4.131 14.712h6.256Z" fill="#F15B40"/><path d="M157.892 290c-2.335 0-4.636-1.516-6.867-2.982-2.041-1.346-4.152-2.735-6.025-2.735-1.873 0-3.984 1.41-6.025 2.735-2.385 1.565-4.84 3.186-7.358 2.961-2.518-.226-4.721-2.312-6.804-4.314-1.733-1.671-3.507-3.398-5.317-3.73-1.81-.331-4.153.635-6.397 1.572-2.104.875-4.209 1.77-6.208 1.77a5.74 5.74 0 0 1-1.585-.212c-2.469-.705-4.209-3.137-5.878-5.484-1.403-1.967-2.855-4.004-4.56-4.667-1.542-.599-4.11-.162-6.55.36-2.905.62-5.99 1.071-7.969.077-2.287-1.149-3.507-3.856-4.756-6.471-1.024-2.2-2.104-4.469-3.626-5.442-1.256-.776-3.093-.881-4.728-.881h-1.774c-2.806.07-5.745.204-7.856-1.41-2.112-1.615-2.771-4.434-3.508-7.226-.603-2.355-1.22-4.787-2.58-6.027-1.362-1.241-3.83-1.643-6.223-2.031-2.805-.458-5.758-.93-7.477-2.819-1.718-1.89-1.915-4.864-2.104-7.755-.161-2.425-.337-4.934-1.445-6.415-1.108-1.48-3.458-2.312-5.738-3.13-2.7-.972-5.499-1.974-6.846-4.159-1.346-2.185-.996-5.118-.701-7.98.287-2.418.575-4.934-.246-6.577-.82-1.642-2.974-2.904-5.057-4.124-2.483-1.459-5.05-2.961-5.976-5.357-.926-2.397-.035-5.21.813-7.952.702-2.327 1.473-4.737.968-6.528-.505-1.791-2.377-3.391-4.208-4.977-2.182-1.896-4.433-3.856-4.91-6.401-.477-2.545.919-5.104 2.258-7.634 1.144-2.165 2.322-4.392 2.154-6.26-.169-1.868-1.712-3.758-3.206-5.64C1.86 149.942 0 147.594 0 145c0-2.594 1.859-4.935 3.654-7.212 1.495-1.889 3.045-3.842 3.206-5.639.161-1.798-1.01-4.096-2.153-6.253-1.34-2.531-2.722-5.16-2.259-7.656.463-2.495 2.715-4.497 4.91-6.394 1.817-1.586 3.697-3.221 4.209-4.976.512-1.756-.239-4.23-.961-6.528-.85-2.742-1.733-5.583-.814-7.952.919-2.369 3.507-3.905 5.983-5.365 2.104-1.22 4.209-2.481 5.05-4.124.842-1.642.534-4.159.253-6.577-.337-2.862-.701-5.816.66-7.98 1.36-2.164 4.145-3.186 6.852-4.159 2.273-.818 4.63-1.656 5.738-3.13 1.108-1.473 1.277-3.983 1.403-6.408.196-2.869.4-5.844 2.104-7.754 1.705-1.91 4.65-2.369 7.484-2.82 2.392-.38 4.861-.782 6.215-2.023 1.354-1.24 1.985-3.68 2.589-6.034.7-2.82 1.452-5.64 3.507-7.219 2.055-1.58 5.043-1.473 7.856-1.41h1.767c1.635 0 3.507-.106 4.728-.881 1.557-.973 2.61-3.243 3.626-5.442 1.214-2.616 2.47-5.323 4.763-6.472 1.985-.994 5.057-.535 7.961.085 2.441.514 5.016.959 6.552.352 1.704-.662 3.156-2.693 4.559-4.66 1.676-2.354 3.416-4.786 5.885-5.484 2.245-.648 5.135.437 7.793 1.551 2.245.945 4.538 1.925 6.397 1.572 1.859-.352 3.577-2.058 5.317-3.722 2.104-2.009 4.208-4.075 6.804-4.314 2.595-.24 4.973 1.41 7.351 2.96 2.041 1.34 4.152 2.729 6.025 2.729 1.873 0 3.984-1.41 6.025-2.728 2.371-1.523 4.84-3.13 7.344-2.933 2.504.197 4.721 2.305 6.804 4.314 1.733 1.664 3.507 3.391 5.317 3.722 1.81.332 4.153-.627 6.397-1.572 2.104-.867 4.209-1.762 6.208-1.762a5.746 5.746 0 0 1 1.585.211c2.469.705 4.209 3.13 5.878 5.485 1.403 1.967 2.855 4.004 4.552 4.66 1.55.606 4.118.169 6.559-.353 2.904-.62 5.983-1.071 7.968-.077 2.287 1.149 3.542 3.856 4.756 6.471 1.024 2.192 2.104 4.47 3.626 5.435 1.256.783 3.093.888 4.728.888h1.767c2.806-.07 5.752-.204 7.863 1.41 2.112 1.614 2.771 4.427 3.508 7.226.603 2.347 1.227 4.78 2.581 6.02 1.354 1.24 3.83 1.65 6.222 2.03 2.805.459 5.758.93 7.477 2.82 1.718 1.89 1.915 4.857 2.104 7.755.168 2.425.337 4.934 1.445 6.407 1.108 1.474 3.458 2.313 5.738 3.13 2.7.973 5.499 1.974 6.846 4.153 1.346 2.178.996 5.124.659 7.98-.28 2.418-.575 4.934.253 6.584.827 1.65 2.967 2.904 5.05 4.124 2.483 1.459 5.057 2.96 5.983 5.364.926 2.404.035 5.203-.821 7.945-.701 2.333-1.466 4.737-.961 6.528.506 1.79 2.378 3.398 4.209 4.977 2.175 1.896 4.433 3.863 4.91 6.401.477 2.537-.919 5.103-2.258 7.634-1.144 2.164-2.329 4.399-2.154 6.26.175 1.861 1.712 3.764 3.206 5.64 1.795 2.269 3.654 4.617 3.654 7.204 0 2.587-1.859 4.935-3.654 7.212-1.494 1.889-3.045 3.835-3.206 5.639-.161 1.805 1.01 4.103 2.154 6.26 1.339 2.531 2.721 5.146 2.258 7.642-.463 2.495-2.721 4.497-4.91 6.394-1.817 1.586-3.696 3.221-4.209 4.984-.512 1.762.239 4.194.961 6.52.856 2.742 1.733 5.583.814 7.959-.919 2.376-3.507 3.898-5.976 5.358-2.104 1.219-4.209 2.481-5.05 4.124-.842 1.642-.533 4.159-.253 6.577.33 2.862.702 5.808-.659 7.98-1.361 2.171-4.146 3.186-6.853 4.159-2.28.811-4.63 1.656-5.738 3.13-1.108 1.473-1.277 3.983-1.445 6.408-.189 2.869-.393 5.844-2.104 7.754-1.712 1.911-4.651 2.362-7.484 2.82-2.392.388-4.861.789-6.222 2.03-1.361 1.241-1.978 3.68-2.581 6.027-.702 2.82-1.452 5.682-3.508 7.226-2.055 1.544-5.05 1.466-7.863 1.41h-1.774c-1.628 0-3.465.106-4.714.888-1.557.966-2.616 3.243-3.633 5.442-1.214 2.616-2.469 5.323-4.749 6.465-1.985.994-5.071.543-7.968-.078-2.441-.521-5.016-.959-6.559-.359-1.704.662-3.156 2.7-4.559 4.666-1.676 2.355-3.409 4.78-5.878 5.485-2.252.648-5.141-.444-7.793-1.551-2.244-.945-4.531-1.932-6.397-1.579-1.866.352-3.577 2.058-5.31 3.729-2.104 2.002-4.243 4.075-6.811 4.314l-.477-.049ZM145 282.506c2.399 0 4.735 1.537 7.014 3.025 2.105 1.41 4.335 2.862 6.229 2.678 1.894-.183 3.886-2.03 5.752-3.827 1.866-1.798 3.907-3.758 6.214-4.188 2.308-.43 4.91.642 7.394 1.678 2.483 1.036 4.91 1.988 6.635 1.487 1.873-.535 3.423-2.707 4.91-4.807 1.487-2.101 3.164-4.434 5.352-5.287 1.964-.769 4.861-.304 7.562.275 2.588.549 5.288.986 6.81.225 1.733-.867 2.855-3.285 3.942-5.639 1.088-2.355 2.294-4.935 4.3-6.197 1.628-1.015 3.767-1.149 5.647-1.149h3.598c1.768 0 3.732-.127 4.973-1.064 1.543-1.178 2.203-3.758 2.848-6.253.701-2.609 1.354-5.301 3.1-6.902 1.747-1.6 4.483-2.037 7.127-2.467 2.532-.409 5.155-.832 6.46-2.27 1.305-1.438 1.48-4.089 1.656-6.655.175-2.685.364-5.463 1.795-7.359s4.026-2.82 6.545-3.729c2.518-.91 4.91-1.77 5.948-3.426 1.038-1.657.701-4.279.407-6.831-.309-2.679-.639-5.45.427-7.578 1.067-2.129 3.43-3.525 5.738-4.872 2.308-1.346 4.524-2.643 5.226-4.462.701-1.819-.091-4.335-.856-6.789-.8-2.573-1.627-5.237-.975-7.535s2.722-4.082 4.735-5.837c2.013-1.756 3.963-3.455 4.321-5.379.357-1.925-.891-4.23-2.105-6.486-1.262-2.389-2.574-4.864-2.357-7.253.218-2.39 1.929-4.498 3.585-6.592 1.655-2.093 3.268-4.131 3.268-6.104 0-1.974-1.662-4.075-3.268-6.105-1.607-2.031-3.367-4.23-3.585-6.592-.217-2.361 1.088-4.864 2.357-7.253 1.193-2.263 2.434-4.597 2.105-6.479-.33-1.882-2.371-3.687-4.321-5.386-1.95-1.699-4.097-3.567-4.735-5.829-.638-2.263.175-4.935.975-7.543.765-2.447 1.55-4.984.856-6.775-.695-1.79-3.002-3.172-5.226-4.476-2.223-1.304-4.692-2.75-5.738-4.864-1.045-2.115-.736-4.935-.42-7.579.294-2.552.603-5.195-.407-6.837-1.01-1.643-3.507-2.552-5.941-3.42-2.526-.909-5.135-1.84-6.559-3.736-1.424-1.896-1.613-4.666-1.795-7.352-.176-2.573-.351-5.231-1.656-6.662s-3.963-1.79-6.467-2.228c-2.644-.43-5.387-.874-7.134-2.474-1.746-1.6-2.427-4.293-3.1-6.894-.673-2.602-1.298-5.083-2.806-6.253-1.241-.945-3.219-1.072-4.987-1.072h-3.577c-1.88 0-4.026-.134-5.654-1.149-2.041-1.191-3.205-3.68-4.335-6.126-1.129-2.446-2.202-4.758-3.942-5.64-1.522-.76-4.208-.33-6.818.226-2.7.578-5.611 1.037-7.554.275-2.195-.853-3.802-3.101-5.352-5.287-1.55-2.185-3.051-4.279-4.91-4.808-1.725-.5-4.251.487-6.628 1.48-2.378.995-5.086 2.116-7.401 1.686-2.314-.43-4.313-2.32-6.235-4.145-1.922-1.826-3.795-3.645-5.745-3.821-1.95-.176-4.103 1.276-6.229 2.671-2.258 1.488-4.594 3.025-7.014 3.025s-4.728-1.537-7.014-3.025c-2.105-1.41-4.293-2.855-6.222-2.671-1.929.183-3.886 2.03-5.752 3.82-1.866 1.791-3.914 3.765-6.207 4.23-2.294.466-4.91-.641-7.401-1.685-2.37-.994-4.91-1.973-6.635-1.48-1.873.529-3.43 2.707-4.91 4.808-1.48 2.1-3.157 4.434-5.352 5.287-1.964.761-4.854.296-7.555-.282-2.588-.55-5.288-.987-6.81-.226-1.74.874-2.862 3.292-3.95 5.64-1.087 2.347-2.293 4.934-4.3 6.196-1.627 1.015-3.773 1.156-5.653 1.156h-3.57c-1.775 0-3.753.127-4.987 1.072-1.55 1.17-2.21 3.75-2.848 6.246-.666 2.608-1.354 5.3-3.1 6.901-1.747 1.6-4.462 1.91-7.12 2.32-2.532.408-5.155.831-6.46 2.27-1.305 1.437-1.48 4.088-1.656 6.654-.182 2.686-.371 5.463-1.795 7.36-1.424 1.896-4.033 2.82-6.552 3.729-2.518.91-4.91 1.77-5.94 3.419-1.032 1.65-.702 4.286-.415 6.838.316 2.678.639 5.449-.42 7.578-1.06 2.129-3.437 3.525-5.745 4.864-2.308 1.34-4.524 2.65-5.226 4.476-.701 1.826.098 4.329.856 6.782.8 2.573 1.627 5.238.975 7.536-.652 2.298-2.722 4.081-4.735 5.837-2.013 1.755-3.963 3.454-4.313 5.378-.351 1.925.883 4.23 2.104 6.493 1.262 2.39 2.567 4.857 2.357 7.247-.21 2.39-1.936 4.518-3.592 6.591-1.655 2.073-3.275 4.138-3.275 6.112 0 1.974 1.669 4.074 3.275 6.105 1.607 2.03 3.367 4.229 3.578 6.591.21 2.361-1.088 4.878-2.35 7.275-1.2 2.263-2.434 4.596-2.105 6.478.33 1.883 2.371 3.687 4.321 5.386 1.95 1.699 4.09 3.567 4.735 5.837.645 2.27-.182 4.935-.982 7.536-.758 2.453-1.55 4.984-.856 6.782.695 1.797 3.002 3.165 5.226 4.469 2.223 1.304 4.692 2.749 5.745 4.864 1.052 2.115.701 4.935.42 7.578-.294 2.552-.603 5.196.407 6.838 1.01 1.643 3.508 2.552 5.948 3.419 2.441.867 5.128 1.847 6.545 3.736 1.417 1.89 1.62 4.674 1.803 7.36.175 2.566.35 5.224 1.655 6.655 1.305 1.431 3.92 1.854 6.453 2.27 2.644.422 5.38.867 7.134 2.467 1.753 1.6 2.434 4.293 3.1 6.894.666 2.601 1.298 5.083 2.84 6.253 1.242.945 3.213 1.072 4.974 1.072h3.591c1.88 0 4.026.141 5.654 1.156 2.006 1.247 3.17 3.764 4.3 6.196 1.129 2.432 2.202 4.766 3.942 5.64 1.529.761 4.208.324 6.817-.226 2.701-.578 5.612-1.043 7.555-.275 2.195.853 3.802 3.102 5.352 5.28 1.55 2.178 3.051 4.279 4.91 4.815 1.725.493 4.251-.486 6.628-1.487 2.378-1.001 5.093-2.115 7.401-1.678 2.307.437 4.292 2.34 6.214 4.187 1.922 1.847 3.795 3.652 5.745 3.828 1.95.176 4.096-1.276 6.229-2.679 2.321-1.565 4.636-3.102 7.035-3.102Z" fill="#EF4136"/><path d="M145 269.662c-68.46 0-124.153-55.923-124.153-124.662 0-68.74 55.7-124.662 124.153-124.662S269.153 76.268 269.153 145 213.46 269.662 145 269.662Zm0-247.548C77.515 22.114 22.607 77.241 22.607 145c0 67.759 54.908 122.879 122.393 122.879s122.393-55.127 122.393-122.886c0-67.76-54.908-122.879-122.393-122.879Z" fill="#EF4136"/><path d="M145 243.685c-54.193 0-98.292-44.27-98.292-98.692 0-54.422 44.1-98.692 98.292-98.692 54.193 0 98.285 44.27 98.285 98.692 0 54.422-44.078 98.692-98.285 98.692Zm0-195.6c-53.225 0-96.524 43.48-96.524 96.915 0 53.435 43.3 96.916 96.524 96.916 53.225 0 96.524-43.474 96.524-96.916S198.225 48.084 145 48.084Z" fill="#EF4136"/><path d="m37.68 99.637-.904 2.312 11.924 4.702-.273.705-11.925-4.695-.918 2.333-.526-.211.911-2.333.281-.705.926-2.348.505.24Zm3.438-8.699 11.987 5.914-.336.705-6.166-3.045-1.711 3.475 6.158 3.046-.336.705-11.988-5.922.337-.705 5.317 2.623 1.683-3.448-5.282-2.643.337-.705Zm15.845-1.918.484.29-2.104 3.524-.098.162-.302.508-11.454-6.895 2.455-4.13.49.296-2.061 3.46L48.967 89l1.662-2.82.484.29-1.662 2.82 5.408 3.249 2.104-3.518Zm-.589-20.732 10.374 8.46-.49.599-9.87-8.051 8.144 9.658-.533.662-11.153-5.808 9.82 8-.484.607-10.374-8.46.379-.472.105-.134.358-.444 10.675 5.64-7.835-9.164.407-.5.077-.107.4-.486Zm8.382-6.387 7.064 7a1.802 1.802 0 0 1 .063 2.496l-1.347 1.367a1.777 1.777 0 0 1-2.476 0l-7.035-7.028a1.787 1.787 0 0 1-.056-2.488l1.34-1.368a1.777 1.777 0 0 1 2.447.021Zm6.537 7.543-7.07-7a1.141 1.141 0 0 0-1.536-.162l-1.347 1.367a1.146 1.146 0 0 0 .204 1.537l7.063 7a1.142 1.142 0 0 0 1.53.177l1.339-1.368a1.168 1.168 0 0 0-.183-1.55Zm5.731-8.741 1.733 2.044a1.797 1.797 0 0 1-.14 2.467l-1.502 1.283a1.768 1.768 0 0 1-2.433-.26l-1.733-2.045.596-.5 1.726 2.037a1.136 1.136 0 0 0 1.508.31l1.452-1.248a1.153 1.153 0 0 0-.05-1.55l-1.725-2.045c-.477-.564-.884-.543-1.655-.48-.772.064-1.901.128-2.806.226a2.094 2.094 0 0 1-2.104-.662l-1.494-1.77a1.775 1.775 0 0 1 .14-2.474l1.178-1.008a1.775 1.775 0 0 1 2.455.254l1.726 2.037-.59.508-1.732-2.045a1.136 1.136 0 0 0-1.5-.31l-1.18 1.015a1.138 1.138 0 0 0 .064 1.544l1.36 1.607c.604.705 1.01.628 1.74.557.73-.07 2.23-.19 2.974-.275a1.99 1.99 0 0 1 1.992.783Zm2.111-12.111-1.978 1.46 7.499 10.425-.618.444-7.526-10.419-2.027 1.466-.33-.458 2.02-1.459.618-.444 2.006-1.46.336.445Zm13.51-6.712 4.693 8.77a1.75 1.75 0 0 1-.702 2.348l-2.35 1.283-.701.36-6.313-11.823.52-.275.16-.091 2.35-1.27a1.61 1.61 0 0 1 2.343.699Zm4.012 9.165-4.7-8.777a1.068 1.068 0 0 0-1.403-.571l-2.349 1.27 5.787 10.8 2.35-1.277a1.079 1.079 0 0 0 .315-1.466v.021Zm9.14-3.01.231.522-3.745 1.65-.176.077-.533.232-5.359-12.294 4.384-1.931.232.521-3.676 1.622 2.147 4.934 2.96-1.304.231.522-2.967 1.304 2.532 5.801 3.739-1.656Zm7.028-2.566.19.543-3.409 1.22-.702.26-.182-.536-4.209-12.125.702-.26 4.208 12.103 3.402-1.205Zm4.223-.649-.751.212-3.647-12.908.75-.211 3.648 12.907Zm6.229-10.947-.526-2.44c-.12-.556-.618-1.113-1.179-.994l-1.683.36a1.14 1.14 0 0 0-.702 1.41l2.056 9.75a1.064 1.064 0 0 0 1.164.916l1.683-.36a1.055 1.055 0 0 0 .702-1.311l-.596-2.82.757-.162.596 2.82a1.766 1.766 0 0 1-1.241 2.115l-1.761.373a1.774 1.774 0 0 1-1.313-.284 1.792 1.792 0 0 1-.742-1.126l-2.055-9.749a1.79 1.79 0 0 1 .227-1.326 1.774 1.774 0 0 1 1.084-.789l1.684-.36a1.776 1.776 0 0 1 2.055 1.411l.519 2.439-.729.127Zm7.252 8.12-.764.113-1.901-13.288.765-.113 1.9 13.288Zm8.425-12.569.736 9.94c.035.463-.111.92-.407 1.276s-.719.58-1.178.627l-1.901.148a1.778 1.778 0 0 1-1.26-.451 1.795 1.795 0 0 1-.592-1.205l-.701-9.933c-.036-.463.11-.922.406-1.279a1.772 1.772 0 0 1 1.179-.631l1.908-.141a1.77 1.77 0 0 1 1.232.462c.337.307.544.732.578 1.187Zm0 9.996-.702-9.94c-.042-.57-.484-1.183-1.052-1.141l-1.908.14c-.561.043-.891.706-.849 1.29l.702 9.934c.042.57.47 1.184 1.031 1.141l1.908-.14c.547-.043.891-.72.849-1.284h.021Zm10.213-11.807-.183 11.695a1.793 1.793 0 0 1-.519 1.235 1.778 1.778 0 0 1-1.227.527h-1.726a1.768 1.768 0 0 1-1.607-1.158 1.779 1.779 0 0 1-.111-.689l.175-11.688h.778l-.182 11.695c0 .571.358 1.227.926 1.234h1.726c.568 0 .953-.635.96-1.206l.183-11.695.807.05Zm9.357 9.749-.267 2.672c-.043.46-.262.885-.612 1.185-.35.3-.802.452-1.261.422l-1.957-.197a1.774 1.774 0 0 1-1.139-.66 1.792 1.792 0 0 1-.376-1.265l.267-2.672.771.078-.266 2.672c-.056.57.259 1.247.82 1.304l1.908.19c.561.064 1.024-.543 1.08-1.114l.267-2.664c.07-.705-.224-1.023-.8-1.537-.575-.515-1.402-1.29-2.104-1.896a2.126 2.126 0 0 1-.968-1.974l.232-2.291a1.762 1.762 0 0 1 1.872-1.608l1.544.155a1.77 1.77 0 0 1 1.149.67c.283.364.414.824.366 1.283l-.267 2.672-.771-.078.266-2.671c.056-.571-.259-1.248-.821-1.305l-1.543-.155c-.568-.056-1.01.55-1.066 1.114l-.21 2.115c-.092.93.245 1.17.806 1.65.561.479 1.684 1.487 2.266 1.966a2.023 2.023 0 0 1 .814 1.939Zm14.765-1.988.582-2.418a1.15 1.15 0 0 0-.045-.83 1.138 1.138 0 0 0-.593-.58l-1.67-.402c-.554-.133-1.073.41-1.206.96l-2.308 9.685a1.056 1.056 0 0 0 .652 1.325l1.677.402a1.058 1.058 0 0 0 1.178-.881l.667-2.82.757.184-.701 2.784c-.098.443-.362.83-.737 1.082-.375.252-.832.35-1.276.272l-1.754-.423a1.775 1.775 0 0 1-1.049-.805 1.792 1.792 0 0 1-.207-1.31l2.315-9.686c.107-.455.388-.849.782-1.097a1.76 1.76 0 0 1 1.322-.229l1.67.402a1.762 1.762 0 0 1 1.098.798 1.782 1.782 0 0 1 .214 1.345l-.576 2.425-.792-.183Zm7.049 7.12-2.806-.945-2.104 3.934-.701-.226 6.558-11.984.372.127.273.092.393.127-1.852 13.52-.701-.24.568-4.405Zm.091-.571 1.095-7.754-3.732 6.859 2.637.895Zm7.506.571-1.782 1.487-1.978 4.66-.701-.289 5.225-12.35.702.288-2.645 6.267 5.836-4.934.702.303-4.679 3.912-.379 8.516-.701-.303.4-7.557Zm7.68 11.039-.266.508-3.62-1.875-.168-.085-.519-.275 6.173-11.892 4.208 2.22-.266.508-3.55-1.861-2.476 4.765L198 47.048l-.259.508-2.869-1.502-2.918 5.64 3.661 1.84Zm17.943-1.565-5.71 8.135a1.78 1.78 0 0 1-2.434.466l-1.557-1.107a1.786 1.786 0 0 1-.379-2.453l5.71-8.135a1.76 1.76 0 0 1 2.427-.465l1.564 1.106a1.783 1.783 0 0 1 .379 2.453Zm-6.313 7.698 5.71-8.135a1.155 1.155 0 0 0-.091-1.55l-1.558-1.107a1.129 1.129 0 0 0-.822-.067 1.14 1.14 0 0 0-.651.51l-5.716 8.136a1.147 1.147 0 0 0 .077 1.544l1.557 1.106a1.151 1.151 0 0 0 1.48-.437h.014Zm15.425-2.502L214.021 67.4l-.491-.423-.084-.07-.597-.508 5.871-11.674-8.192 9.693-.589-.5 8.648-10.236.456.394.133.106.449.38-5.878 11.985 8.34-9.87.583.487Zm1.606 19.943-.421.38-2.736-3.045-.126-.14-.4-.445 9.919-9.002 3.212 3.574-.421.38-2.693-2.988-3.97 3.602 2.167 2.418-.428.38-2.167-2.431-4.672 4.23 2.736 3.087Zm7.414 3.186-1.824-2.39-3.963 2.059-.442-.578 12.114-6.197.238.317.176.226.252.338-9.118 10.145-.463-.6 3.03-3.32Zm.393-.423 5.239-5.794-6.937 3.574 1.698 2.22Zm6.116 5.929-1.164-1.826-5.612 3.616-.406-.641 11.223-7.233.301.48.105.162 1.438 2.255a1.744 1.744 0 0 1-.526 2.39l-2.721 1.748a1.755 1.755 0 0 1-2.182-.246l-4.545 5.343-.449-.705 4.538-5.343Zm-.701-2.115 1.438 2.256a1.063 1.063 0 0 0 1.48.176l2.728-1.748a1.092 1.092 0 0 0 .463-1.41l-1.438-2.256-4.671 2.982Zm11.609 8.953-1.172-2.193-11.279 6.049-.351-.67 11.3-6.055-1.171-2.214.498-.268 1.179 2.214.357.705 1.165 2.192-.526.24Zm4.341 8.283-12.254 5.329-.308-.705 6.313-2.735-1.515-3.525-6.313 2.736-.309-.705 12.254-5.33.309.705-5.422 2.355 1.515 3.524 5.429-2.361.301.712Z" fill="#000"/><path d="M191.491 112.551a12.665 12.665 0 0 1-8.235-3.017 21.96 21.96 0 0 1-17.599-1.501 13.887 13.887 0 0 1-9.161 3.468 13.712 13.712 0 0 1-3.373-.437l3.345 18.188h34.062l3.114-16.919c-.71.134-1.43.207-2.153.218Zm-24.683 13.352h-.148a1.046 1.046 0 0 1-.687-.26 1.062 1.062 0 0 1-.351-.649l-1.312-9.101a1.06 1.06 0 0 1 .194-.782 1.046 1.046 0 0 1 .69-.41 1.054 1.054 0 0 1 1.186.91l1.311 9.108a1.053 1.053 0 0 1-.883 1.184Zm8.613-.994a1.05 1.05 0 0 1-1.796.748 1.062 1.062 0 0 1-.308-.748v-9.206c0-.281.111-.55.308-.748a1.046 1.046 0 0 1 1.488 0c.197.198.308.467.308.748v9.206Zm9.056-9.002-1.319 9.101a1.044 1.044 0 0 1-1.031.909h-.155a1.036 1.036 0 0 1-.687-.41 1.022 1.022 0 0 1-.173-.372 1.025 1.025 0 0 1-.016-.409l1.276-9.115a1.064 1.064 0 0 1 1.903-.489c.169.227.242.512.202.792v-.007Z" fill="#CE4832"/><path d="M151.572 108.294c.288.126.569.26.87.359.302.099.603.19.905.282.302.092.603.148.912.219.308.064.619.111.933.141.312.038.625.06.94.063a5.9 5.9 0 0 0 .94 0c.314-.011.628-.039.94-.085l.925-.155c.309-.056.604-.162.905-.246l.456-.127.435-.177c.288-.126.589-.218.863-.373l.828-.444c.266-.162.519-.353.778-.529.261-.175.507-.37.737-.585.247-.194.481-.403.701-.627l.645-.705.064-.071.077.049 1.031.607c.344.197.701.359 1.059.542.358.184.701.325 1.094.48l.554.218.561.191c.379.12.751.254 1.144.338.393.085.764.197 1.157.268l1.172.19c.392.05.792.071 1.185.113.393.042.786 0 1.178.042h.597l.582-.035 1.199-.084c.4 0 .772-.12 1.158-.177.385-.056.771-.112 1.15-.218l1.136-.317c.19-.057.379-.099.561-.163l.548-.218 1.101-.416.273-.106.253.219c.294.254.568.528.877.768.304.242.623.466.954.67.325.208.665.392 1.017.55l.519.246.547.191a9.58 9.58 0 0 0 2.237.486c.372.05.758 0 1.137.05h.084c.042 0-.042 0 0 0h.484l.61-.057c.19-.017.377-.05.561-.099l.54-.119.246-.05.287-.084.148-.05h.077-.035.035l.288-.105.14-.057h.07-.049l.07-.035.281-.12c.175-.085.385-.162.533-.254l.477-.253.477-.304a9.88 9.88 0 0 0 1.718-1.409 9.482 9.482 0 0 0 1.347-1.777c.379-.64.685-1.321.912-2.03.22-.706.363-1.434.428-2.171a3.606 3.606 0 0 0 0-.55v-.522a10.66 10.66 0 0 0-.302-2.213c-.112-.346-.189-.705-.337-1.044a9.823 9.823 0 0 0-2.412-3.598 9.764 9.764 0 0 0-3.718-2.203l-.702-.212-.07-.874-.245-1.41c-.113-.458-.253-.91-.372-1.368-.119-.458-.344-.88-.512-1.325-.168-.444-.407-.853-.61-1.283a16.692 16.692 0 0 0-1.565-2.368 16.074 16.074 0 0 0-1.964-2.115 11.113 11.113 0 0 0-1.101-.903c-.196-.14-.379-.303-.575-.43l-.603-.387-.61-.388-.632-.338-.631-.339c-.21-.113-.442-.19-.659-.289-.435-.2-.88-.376-1.333-.529l-.702-.225a4.064 4.064 0 0 0-.701-.198c-.47-.105-.933-.24-1.403-.324l-1.403-.211-1.445-.092h-1.473c-.259 0-.498 0-.701.042l-.701.064c-.47.035-.954.148-1.403.218-.449.07-.947.219-1.403.325-.456.105-.926.289-1.403.437-.477.148-.905.36-1.361.543-.456.183-.877.422-1.312.648-.434.226-.848.486-1.255.761-.407.275-.821.536-1.193.853a13.21 13.21 0 0 0-1.115.96l-.54.5c-.175.176-.33.366-.498.542a9.49 9.49 0 0 0-.491.55l-.456.585c-.301.39-.582.794-.842 1.213-.287.409-.484.86-.736 1.29-.253.43-.407.902-.617 1.353l-.169.367-.364-.056c-.337-.05-.702-.12-1.011-.162a8.055 8.055 0 0 0-1.003-.064h-1.066l-1.003.134c-.678.119-1.345.298-1.992.536a8.056 8.056 0 0 0-.954.401c-.316.137-.621.3-.912.487l-.449.26-.427.304-.421.31c-.134.106-.267.226-.393.338a7.396 7.396 0 0 0-.765.705c-.25.246-.484.507-.701.783a11.536 11.536 0 0 0-1.157 1.748c-.155.317-.323.628-.456.952l-.379.987-.274 1.022c-.077.345-.119.705-.182 1.043a14.233 14.233 0 0 0-.098 2.115c0 .353.063.705.091 1.058a5.3 5.3 0 0 0 .203 1.043c.077.346.175.688.295 1.022.108.338.235.67.379.994.14.331.308.641.47.959.161.317.35.62.561.902.396.592.847 1.144 1.347 1.65.493.518 1.033.99 1.613 1.409.553.435 1.142.822 1.76 1.157Zm0 0a12.49 12.49 0 0 1-3.507-2.433c-.5-.506-.956-1.055-1.361-1.642-.217-.282-.378-.606-.575-.902-.196-.296-.336-.628-.477-.959-.14-.331-.287-.656-.399-.994a10.538 10.538 0 0 1-.302-1.029c-.098-.353-.147-.705-.225-1.058a6.044 6.044 0 0 1-.119-1.064 12.987 12.987 0 0 1 .035-2.115c.049-.36.091-.705.155-1.072l.252-1.05.358-1.022c.133-.338.294-.663.442-.987.328-.645.711-1.26 1.143-1.84.426-.588.91-1.131 1.445-1.621l.393-.374.428-.338.435-.339.456-.296c.3-.205.614-.388.939-.55.32-.174.651-.33.989-.465a12.672 12.672 0 0 1 2.105-.663l1.101-.19 1.066-.084h1.122c.379 0 .702.077 1.095.112l-.533.31c.196-.486.364-.986.582-1.466.217-.48.435-.965.701-1.41.253-.464.531-.914.835-1.346l.456-.649c.161-.211.33-.408.498-.62.168-.211.33-.409.512-.606l.547-.571c.358-.395.758-.705 1.15-1.093.393-.388.835-.655 1.249-.987.414-.331.877-.592 1.319-.895.442-.303.926-.515 1.403-.776.476-.26.96-.45 1.451-.655a15.8 15.8 0 0 1 1.502-.543c.512-.155 1.017-.317 1.536-.423.519-.106 1.038-.24 1.578-.303l.814-.106c.273-.042.54-.07.792-.084l.758-.043h.82c.526 0 1.067 0 1.6.05l1.592.19c.533.085 1.052.211 1.578.317.265.044.525.11.779.198l.771.232c.518.152 1.027.336 1.522.55.246.106.505.19.744.31l.701.36.702.366.701.423.702.43c.231.148.435.325.652.48.443.315.867.656 1.27 1.022a18.794 18.794 0 0 1 4.082 5.061c.238.494.519.973.701 1.48.183.508.407 1.023.568 1.545.162.521.302 1.057.421 1.593l.274 1.628-.821-.994c.858.29 1.683.667 2.462 1.128.771.47 1.488 1.024 2.14 1.65.65.635 1.225 1.345 1.711 2.115.483.763.879 1.579 1.179 2.432.303.856.503 1.746.596 2.65.051.428.077.86.077 1.29v.705c0 .219 0 .444-.056.67a11.218 11.218 0 0 1-.61 2.608 11.472 11.472 0 0 1-1.193 2.383 11.233 11.233 0 0 1-1.69 2.044 11.537 11.537 0 0 1-2.105 1.608l-.568.324-.617.296c-.21.106-.386.162-.582.24l-.288.105h-.07l-.119.043-.148.049a12.26 12.26 0 0 1-2.581.5h-1.269c-.435-.042-.87-.042-1.291-.119a10.787 10.787 0 0 1-2.49-.705l-.596-.24-.568-.303a7.806 7.806 0 0 1-1.095-.67 9.803 9.803 0 0 1-1.017-.789c-.322-.275-.61-.593-.912-.889l.533.113-1.171.388-.582.19c-.197.064-.4.092-.603.141l-1.193.268c-.4.092-.813.12-1.22.176-.407.057-.821.127-1.214.134l-1.206.036h-.618l-.603-.036c-.407-.035-.813 0-1.213-.098-.4-.099-.807-.099-1.207-.163l-1.192-.246c-.393-.092-.779-.219-1.171-.325-.39-.106-.774-.233-1.151-.38l-.568-.205-.554-.239a11.977 11.977 0 0 1-1.094-.515c-.358-.197-.702-.366-1.067-.578l-1.024-.641h.141l-.702.704a6.552 6.552 0 0 1-.701.621c-.24.21-.495.401-.765.571-.266.169-.526.352-.799.507l-.842.437a8 8 0 0 1-.877.367l-.442.176-.456.127c-.301.078-.603.183-.912.24l-.94.148a8.188 8.188 0 0 1-.939.07 7.02 7.02 0 0 1-.94 0 12.498 12.498 0 0 1-1.88-.225c-.302-.078-.617-.127-.912-.226-.295-.098-.603-.176-.898-.296-.295-.12-.533-.24-.821-.366Z" fill="#CE4832"/><path d="m111.401 253.484-.764 2.643a1.827 1.827 0 0 1-2.189 1.269l-1.936-.564a1.834 1.834 0 0 1-1.02-.894 1.85 1.85 0 0 1-.13-1.354l.765-2.637.764.226-.764 2.636a1.174 1.174 0 0 0 .589 1.474l1.88.542c.561.17 1.136-.352 1.297-.916l.758-2.637c.21-.705-.035-1.071-.519-1.698-.484-.628-1.179-1.565-1.796-2.313a2.121 2.121 0 0 1-.603-2.164l.652-2.263c.127-.457.427-.847.836-1.084.41-.237.895-.304 1.353-.185l1.522.444c.447.149.819.467 1.036.887.218.42.263.909.128 1.362l-.757 2.637-.765-.226.758-2.636a1.163 1.163 0 0 0-.583-1.467l-1.529-.451c-.554-.162-1.108.367-1.276.931l-.596 2.072c-.267.924 0 1.227.505 1.819.505.592 1.402 1.812 1.907 2.404a2.043 2.043 0 0 1 .477 2.143Zm4.02 5.618-.779-.183 3.044-13.394.772.176-3.037 13.401Zm12.324-11.667-2.266 13.578-.645-.113h-.119l-.786-.127-.933-13.394-2.146 12.865-.786-.134 2.266-13.577.61.106h.175l.59.099 1.094 13.647 2.174-13.098.772.148Zm7.849 5.238.252-2.538c.056-.585-.266-1.283-.841-1.339l-1.754-.176c-.582-.057-1.031.564-1.087 1.149l-.996 10.158c-.05.28.011.568.169.804.159.236.402.4.679.458l1.761.176c.283-.003.554-.117.755-.317.201-.2.318-.47.325-.754l.288-2.926.792.078-.294 2.932a1.816 1.816 0 0 1-.6 1.202 1.8 1.8 0 0 1-1.259.455l-1.831-.183a1.836 1.836 0 0 1-1.578-2.002l1.003-10.159c.045-.474.272-.912.634-1.221a1.809 1.809 0 0 1 1.302-.428l1.754.176c.47.06.898.302 1.192.675.295.373.434.846.386 1.32l-.253 2.538-.799-.078Zm9.287 9.39v.585l-4.209-.204h-.792l.701-13.754 4.91.24v.585l-4.103-.197-.267 5.512 3.311.163v.578l-3.311-.163-.316 6.486 4.076.169Zm11.945-13.507.996 13.733-.792.056-.961-12.759-2.042 1.543-.056-.775 2.027-1.741.828-.057Zm10.557.409.926 5.816.701 4.272c.067.43-.026.87-.262 1.236-.235.365-.597.63-1.015.745l-1.739.282c-.46.071-.93-.044-1.306-.32a1.77 1.77 0 0 1-.7-1.153l-.309-1.946.765-.127.315 1.946a1.108 1.108 0 0 0 1.144 1.022l1.55-.254a1.105 1.105 0 0 0 .771-1.325l-.701-4.181c-.248.248-.567.41-.912.466l-1.739.282a1.782 1.782 0 0 1-2.028-1.474l-.701-4.469a1.774 1.774 0 0 1 .819-1.791c.198-.122.418-.203.647-.239l1.74-.282a1.77 1.77 0 0 1 1.797.837c.121.201.202.424.237.657Zm-.077 4.589-.702-4.469a1.106 1.106 0 0 0-1.143-1.015l-1.747.282a1.11 1.11 0 0 0-.771 1.325l.701 4.47a1.099 1.099 0 0 0 1.143 1.001l1.747-.282a1.09 1.09 0 0 0 .772-1.312Zm8.41-6.52 1.403 5.717 1.038 4.229c.11.428.057.882-.148 1.273a1.77 1.77 0 0 1-.961.842l-1.711.423c-.45.106-.924.03-1.318-.213a1.76 1.76 0 0 1-.786-1.084l-.47-1.91.75-.191.442 1.89c.048.283.204.538.434.71.229.172.516.248.801.213l1.522-.381a1.12 1.12 0 0 0 .659-1.41l-.989-4.067a1.683 1.683 0 0 1-.87.536l-1.711.43a1.76 1.76 0 0 1-1.337-.204 1.776 1.776 0 0 1-.803-1.093l-1.087-4.392a1.788 1.788 0 0 1 .649-1.883c.187-.141.401-.244.628-.302l1.718-.43c.456-.114.938-.04 1.34.203.402.243.692.636.807 1.094Zm.315 4.582-1.087-4.392a1.116 1.116 0 0 0-.431-.705 1.103 1.103 0 0 0-.796-.211l-1.719.43a1.109 1.109 0 0 0-.652 1.409l1.087 4.392a1.097 1.097 0 0 0 1.221.903l1.718-.43a1.11 1.11 0 0 0 .632-.555 1.095 1.095 0 0 0 .055-.841h-.028Zm11.048 2.467c.076.22.108.454.095.686a1.777 1.777 0 0 1-1.189 1.57l-1.487.515a1.773 1.773 0 0 1-2.245-1.107l-.765-2.228.751-.261.765 2.235a1.11 1.11 0 0 0 1.304.804l1.487-.508a1.11 1.11 0 0 0 .567-.614 1.12 1.12 0 0 0-.02-.838l-1.332-3.913a1.094 1.094 0 0 0-.497-.661 1.082 1.082 0 0 0-.815-.121l-1.69.585-.19-.557 1.501-.514a1.12 1.12 0 0 0 .54-1.446l-1.017-2.967a1.096 1.096 0 0 0-1.297-.811l-1.123.388a1.105 1.105 0 0 0-.533 1.41l.702 2.051-.751.261-.701-2.052a1.792 1.792 0 0 1 1.101-2.255l1.101-.381h.042a1.748 1.748 0 0 1 2.203 1.114l1.017 2.968a1.765 1.765 0 0 1-.211 1.557 1.828 1.828 0 0 1 1.284.98l1.403 4.11Z" fill="#000"/><path d="M96.096 202.756H205.45a.7.7 0 0 0 .472-.666.703.703 0 0 0-.472-.666H96.096a.704.704 0 0 0-.342 1.075.704.704 0 0 0 .342.257Zm0 16.341H205.45a.66.66 0 0 0 .66-.663.66.66 0 0 0-.66-.663H96.096a.659.659 0 0 0-.66.663.659.659 0 0 0 .66.663Z" fill="#EF4136"/><path d="M111.31 208.241v-2.024c0-.465-.308-.987-.771-.987h-1.403c-.463 0-.772.522-.772.987v8.086a.858.858 0 0 0 .772.924h1.403a.858.858 0 0 0 .771-.924v-2.326h.632v2.326a1.412 1.412 0 0 1-1.34 1.452h-1.459a1.443 1.443 0 0 1-.995-.44 1.455 1.455 0 0 1-.408-1.012v-8.086a1.408 1.408 0 0 1 1.403-1.452h1.403c.376.011.732.169.994.44s.409.634.409 1.012v2.024h-.639Zm6.797 3.877h-2.427l-.645 3.595h-.582l1.985-10.92h.891l2.041 10.92h-.618l-.645-3.595Zm-.07-.466-1.129-6.252-1.137 6.252h2.266Zm5.689-1.762-.856 1.685v4.138h-.603v-10.906h.603v5.534l2.806-5.534h.631l-2.259 4.42 2.413 6.486h-.624l-2.111-5.823Zm9.385 5.358v.465h-3.949v-10.906h3.893v.466h-3.29v4.37h2.63v.466h-2.63v5.139h3.346Zm6.881-3.116v2.171c0 .378-.147.741-.408 1.012a1.443 1.443 0 0 1-.995.44h-1.599a1.443 1.443 0 0 1-.995-.44 1.455 1.455 0 0 1-.408-1.012v-2.178h.631v2.178c0 .465.309.987.765.987h1.557c.456 0 .778-.522.778-.987v-2.178c0-.606-.259-.804-.764-1.177a73.047 73.047 0 0 0-1.873-1.354 1.7 1.7 0 0 1-.94-1.516v-1.868a1.41 1.41 0 0 1 .396-1.024 1.407 1.407 0 0 1 1.007-.428h1.277a1.406 1.406 0 0 1 1.402 1.452v2.179h-.631v-2.179c0-.465-.301-.987-.764-.987h-1.263c-.463 0-.772.522-.772.987v1.749c0 .754.295.923.786 1.269.491.345 1.48 1.064 1.985 1.409a1.631 1.631 0 0 1 .828 1.495Zm16.308-5.915v3.151c0 .374-.148.733-.411.997-.263.265-.62.413-.992.413h-2.167v4.935h-.625v-10.906h2.806a1.4 1.4 0 0 1 .983.418c.26.264.406.621.406.992Zm-.631 3.116v-3.116a.882.882 0 0 0-.772-.944h-2.167v4.991h2.167a.862.862 0 0 0 .772-.896v-.035Zm6.123 2.785h-2.427l-.645 3.581h-.582l2.013-10.906h.891l2.013 10.92h-.617l-.646-3.595Zm-.077-.466-1.122-6.252-1.136 6.252h2.258Zm7.33-6.379h-2.013v10.44h-.61v-10.44h-2.027v-.466h4.65v.466Zm4.868 4.991h-1.754v5.449h-.617v-10.906h2.806c.372 0 .729.149.992.413.263.265.411.623.411.997v2.637a1.452 1.452 0 0 1-1.123 1.41l1.642 5.463h-.702l-1.655-5.463Zm-1.754-.466h2.168a.876.876 0 0 0 .764-.944v-2.637a.876.876 0 0 0-.764-.944h-2.168v4.525Zm7.478 5.915h-.632v-10.906h.632v10.906Zm7.323-.465v.465h-3.949v-10.906h3.886v.466h-3.255v4.37h2.63v.466h-2.63v5.139h3.318Zm6.881-3.116v2.171c0 .378-.147.741-.409 1.012a1.439 1.439 0 0 1-.994.44h-1.578a1.443 1.443 0 0 1-.995-.44 1.455 1.455 0 0 1-.408-1.012v-2.178h.631v2.178c0 .465.309.987.765.987h1.557c.456 0 .778-.522.778-.987v-2.178c0-.606-.259-.804-.764-1.177-.505-.374-1.242-.924-1.873-1.354a1.7 1.7 0 0 1-.94-1.516v-1.868a1.41 1.41 0 0 1 .396-1.024 1.407 1.407 0 0 1 1.007-.428h1.277a1.406 1.406 0 0 1 1.402 1.452v2.179h-.631v-2.179c0-.465-.302-.987-.764-.987h-1.263c-.456 0-.765.522-.765.987v1.749c0 .754.288.923.779 1.269.491.345 1.48 1.064 1.985 1.409a1.635 1.635 0 0 1 .807 1.495Z" fill="#000"/><path d="M36.51 117.021a2.893 2.893 0 0 1 1.48.802 2.917 2.917 0 0 1 .616 3.175 2.907 2.907 0 0 1-1.072 1.302 2.887 2.887 0 0 1-4.28-1.32 2.925 2.925 0 0 1 1.078-3.532 2.89 2.89 0 0 1 2.178-.427Zm-2.932 23.15a2.906 2.906 0 0 1 2.694 1.773 2.924 2.924 0 0 1-.6 3.18 2.886 2.886 0 0 1-4.462-.406 2.919 2.919 0 0 1-.501-1.614 2.91 2.91 0 0 1 .827-2.067 2.867 2.867 0 0 1 2.042-.866ZM35.5 163.42a2.88 2.88 0 0 1 2.986 1.175 2.918 2.918 0 0 1 .068 3.223 2.886 2.886 0 0 1-2.934 1.301 2.892 2.892 0 0 1-2.323-2.223 2.92 2.92 0 0 1 .382-2.199 2.895 2.895 0 0 1 1.82-1.277Zm6.684 22.34a2.89 2.89 0 0 1 4.042 1.947c.136.56.104 1.148-.093 1.69a2.906 2.906 0 0 1-2.603 1.909 2.903 2.903 0 0 1-2.749-1.69 2.925 2.925 0 0 1-.09-2.219c.263-.722.8-1.311 1.493-1.637Zm11.166 20.457a2.894 2.894 0 0 1 1.585-.568 2.894 2.894 0 0 1 2.759 1.665 2.927 2.927 0 0 1-.474 3.199 2.893 2.893 0 0 1-3.122.786 2.901 2.901 0 0 1-1.35-1.007 2.911 2.911 0 0 1-.16-3.234 2.9 2.9 0 0 1 .763-.841Zm15.152 17.68a2.888 2.888 0 0 1 4.478.16 2.92 2.92 0 0 1-1.034 4.381 2.88 2.88 0 0 1-3.192-.438 2.929 2.929 0 0 1-.252-4.103Zm18.476 14.12a2.9 2.9 0 0 1 2.872-1.458 2.895 2.895 0 0 1 2.44 2.108 2.93 2.93 0 0 1-.037 1.69 2.908 2.908 0 0 1-2.533 1.995 2.891 2.891 0 0 1-3.01-2.121 2.922 2.922 0 0 1 .268-2.214ZM198 240.464a2.93 2.93 0 0 1 .182-3.229c.345-.46.818-.807 1.358-.997a2.882 2.882 0 0 1 3.116.808c.382.429.629.962.709 1.532a2.93 2.93 0 0 1-.258 1.67 2.905 2.905 0 0 1-2.204 1.623 2.874 2.874 0 0 1-2.15-.557 2.904 2.904 0 0 1-.753-.85Zm19.079-13.303a2.913 2.913 0 0 1 .632-4.443 2.874 2.874 0 0 1 3.206.138 2.919 2.919 0 0 1 .252 4.482 2.872 2.872 0 0 1-4.09-.177Zm15.909-16.989a2.914 2.914 0 0 1-1.157-3.018 2.927 2.927 0 0 1 .829-1.47 2.889 2.889 0 0 1 4.444.55 2.925 2.925 0 0 1-.894 4.02 2.887 2.887 0 0 1-2.188.382 2.875 2.875 0 0 1-1.034-.464Zm12.043-19.943a2.9 2.9 0 0 1-1.283-1.092 2.923 2.923 0 0 1 .05-3.235 2.885 2.885 0 0 1 4.464-.371 2.918 2.918 0 0 1-1.015 4.73 2.89 2.89 0 0 1-2.216-.032Zm7.653-22.029a2.911 2.911 0 0 1-2.267-2.296 2.922 2.922 0 0 1 1.242-2.984 2.887 2.887 0 0 1 3.218.011c.476.321.845.777 1.063 1.309a2.927 2.927 0 0 1-1.077 3.535 2.873 2.873 0 0 1-2.179.425Zm2.932-23.144a2.876 2.876 0 0 1-1.614-.475 2.907 2.907 0 0 1-1.08-1.296 2.93 2.93 0 0 1 .598-3.179 2.892 2.892 0 0 1 1.475-.811 2.9 2.9 0 0 1 2.986 1.209 2.926 2.926 0 0 1-.325 3.68 2.897 2.897 0 0 1-2.04.872Zm-1.922-23.256a2.878 2.878 0 0 1-2.988-1.175 2.915 2.915 0 0 1-.066-3.224c.307-.484.75-.866 1.273-1.097a2.885 2.885 0 0 1 3.16.56c.413.397.699.908.823 1.468a2.916 2.916 0 0 1-.382 2.195 2.89 2.89 0 0 1-1.82 1.273Z" fill="#EDB116"/></g><defs><clipPath id="a"><path fill="#fff" d="M0 0h290v290H0z"/></clipPath></defs></svg>