<svg width="235" height="100" fill="none" xmlns="http://www.w3.org/2000/svg"><path d="M235 50c0 27.62-20.378 50-45.529 50H45.529C20.386 100 0 77.62 0 50 0 22.388 20.386 0 45.529 0H189.47C214.622 0 235 22.388 235 50Z" fill="#FFE2B0"/><path d="M226.462 50c0 24.781-18.897 44.87-42.218 44.87H50.79C27.435 94.87 8.555 74.782 8.555 50s18.88-44.853 42.2-44.853H184.21c23.321 0 42.218 20.089 42.218 44.87l.034-.017Z" fill="#FFE2B0"/><path d="M184.244 95.883H50.79C26.956 95.883 7.562 75.296 7.562 50c0-25.296 19.36-45.874 43.194-45.874H184.21c23.834 0 43.228 20.587 43.228 45.874 0 25.287-19.36 45.883-43.194 45.883ZM50.756 6.133C28.026 6.133 9.539 25.811 9.539 50c0 24.19 18.486 43.867 41.217 43.867H184.21c22.73 0 41.217-19.678 41.217-43.867 0-24.19-18.452-43.867-41.183-43.867H50.756Z" fill="#000"/><path d="M60.594 63.913a9.24 9.24 0 0 1-3.132.935c-8.434 1.115-13.833-5.104-14.86-12.695-1.248-9.599 4.526-21.444 20.182-23.503 9.675-1.27 18.94 2.29 20.197 11.734a13.356 13.356 0 0 1-.922 7.213 13.323 13.323 0 0 1-4.561 5.654 15.64 15.64 0 0 1 7.882 4.915 15.71 15.71 0 0 1 3.718 8.526c1.12 8.578-4.063 18.125-15.955 19.73a30.05 30.05 0 0 1-12.276-.532 14.26 14.26 0 0 1-7.613 3.43v-6.844a8.112 8.112 0 0 1 1.984-.472 11.196 11.196 0 0 1 5.202.575c3.182-4.1 4.14-13.202 4.277-25.974.017-9.83.3-16.487 1.155-20.793l4.945.55a77.013 77.013 0 0 0-1.42 16.366 27.737 27.737 0 0 1 4.49-.12c3.705-2.48 5.014-6.914 4.466-11.091-1.06-8.055-8.486-11.152-15.535-10.242-12.516 1.647-17.135 11.614-16.109 19.394.744 5.678 4.534 10.225 10.343 9.436a9.673 9.673 0 0 0 2.13-.54l1.412 4.348Zm23.448 3.157c-.71-5.473-3.952-10.61-9.496-12.19a20.206 20.206 0 0 1-5.133 1.459c0 13.913-2.566 22.302-6.304 27.089 3.161.713 6.427.832 9.632.351 8.683-1.132 12.276-9.272 11.301-16.71Zm19.471-20.75 3.661-.48c-.65 7.068-.898 12.772-.949 18.013-.02.453.006.907.077 1.355.102.772.299 1.115.556 1.081.573-.077 2.404-2.839 4.038-9.564.308 0 1.497.223 1.54.532-2.062 8.672-4.107 12.618-6.476 12.927-1.651.223-2.772-1.15-3.243-4.718 0-.155 0-.36-.068-.566-.77 3.302-2.216 6.279-5.201 6.673-2.567.326-3.918-2.324-4.415-6.09-.958-7.274 1.609-18.537 6.493-19.18 1.908-.249 3.14.738 3.799 3.01l.188-2.993Zm-6.22 18.014c.206 1.595.66 2.641 1.43 2.573 2.369-.317 4.2-9.11 3.575-13.913-.256-1.913-.855-3.191-2.027-3.045-2.148.257-3.602 9.684-2.969 14.385h-.008Zm15.793 4.589a13.056 13.056 0 0 1-.231-1.39 27.387 27.387 0 0 1 .504-8.518c.368-11.15.993-24.018 2.473-29.104a4.93 4.93 0 0 1 1.4-2.48 4.905 4.905 0 0 1 2.535-1.286c2.566-.343 3.721.815 3.987 2.78.538 4.185-2.96 11.837-5.638 16.177l-.257 4.392c1.189-3.671 2.969-6.065 5.236-6.356 2.113-.283 3.225 1.046 3.499 3.105.445 3.431-1.523 8.766-5.202 11.503 1.908 2.161 2.079 5.867 3.525 5.678 1.232-.163 3.114-2.985 4.602-9.212.308-.043 1.498.223 1.54.531-1.497 6.185-3.131 12.49-6.732 12.962-4.175.549-4.894-5.396-6.134-8.432l-.77.102c-.086 3.003-.154 6.056-.128 8.99l-4.209.558Zm8.708-21.84c-1.231.163-2.703 2.136-4.277 7.592l-.051 1.638a4.863 4.863 0 0 1 1.711.095c2.027-2.162 3.875-6.45 3.618-8.407-.068-.523-.282-.909-.752-.952l-.249.035Zm-.804-16.958c-.06-.463-.299-.695-.556-.669-.855.112-1.206 2.368-1.942 11.151a39.65 39.65 0 0 0 2.507-10.104c-.026-.112.008-.275-.009-.378Zm25.793 21.805c.308 0 1.497.223 1.54.532-1.711 7.102-3.559 12.806-8.606 13.475-4.483.584-6.844-3.293-7.511-8.148-.916-7.017 1.822-16.1 7.588-16.856 2.566-.343 4.106 1.347 4.414 3.723.479 3.663-1.959 9.024-7.905 10.808l.103.772c.402 3.097 1.6 5.464 3.969 5.147 3.037-.395 5.142-3.912 6.408-9.453Zm-10.582 1.553c3.61-2.42 4.842-6.202 4.594-8.115-.103-.772-.479-1.252-.993-1.184-2.07.283-3.541 4.933-3.601 9.299Zm21.447 5.841c1.137-.154 2.566-3.122 4.063-9.358.257 0 1.489.171 1.531.48v.052c-1.488 6.184-2.506 12.412-6.689 12.978-2.421.317-3.551-1.107-3.859-3.431-.436-3.354 1.455-7.326 1.104-9.96a8 8 0 0 0-1.531-3.688l-1.343 5.747s-1.472-.068-1.523-.48v-.051c.557-2.591.918-5.22 1.078-7.866a10.443 10.443 0 0 1-1.497-4.22c-.2-2.19-.082-4.398.35-6.554l4.013.626c.259 2.922.15 5.864-.326 8.758 1.934 1.536 4.415 3.303 4.8 6.245.436 3.302-1.369 7.9-1.138 9.71.103.806.453 1.072.967 1.012Z" fill="#7A4225"/><path d="M169.564 37.536s-.47 4.418-.898 11.194a42.96 42.96 0 0 0-.06 7.523c.197 1.493.796 1.716 1.266 1.613 2.567-.335 2.687-15.843 3.089-20.776l4.217-.557c-.299 2.505-.855 13.235-1.223 21.847 5.646-6.467 11.361-14.462 9.941-25.304-1.001-7.591-6.057-11.014-12.336-10.19-4.535.6-8.444 3.525-10.035 8.99l-3.79-.996c1.805-5.335 6.587-9.641 13.491-10.55 7.614-1.004 15.031 2.478 16.314 12.24 1.711 12.952-7.109 22.096-13.756 29.319l-.206 5.601c-.196 5.327-1.651 9.436-4.944 9.839-2.319.3-4.141-.858-4.5-3.56-.445-3.431 2.241-6.862 5.757-10.834.052-1.218.146-2.487.18-3.808-.796 1.527-1.865 2.573-3.259 2.736-2.721.36-3.978-1.998-4.423-5.447a40.42 40.42 0 0 1-.111-7.188c.41-6.862.906-11.091.906-11.091l4.38-.6Zm.676 37.04c.856-.12 1.147-1.201 1.249-2.84l.265-5.147c-1.882 2.402-3.002 4.65-2.729 6.768.112.935.685 1.27 1.215 1.218Zm-71.8-54.847c.08.07.151.147.214.232a.602.602 0 0 1 .103.36v.394h-2.182v-.394a.602.602 0 0 1 .103-.36.945.945 0 0 1 .213-.232l.086-.077a.259.259 0 0 0 0-.155v-6.399c0-.086-.051-.128-.154-.128h-.479a.47.47 0 0 1-.214-.112.515.515 0 0 1-.188-.214.654.654 0 0 1-.086-.37v-.265a1.95 1.95 0 0 0 .753-.189.951.951 0 0 0 .496-.532.856.856 0 0 1 .12-.223.376.376 0 0 1 .325-.137h.71v8.578a.411.411 0 0 0 0 .18l.18.043Zm3.499 1.055a3.285 3.285 0 0 1-.856-.12 1.936 1.936 0 0 1-.693-.369 1.726 1.726 0 0 1-.462-.618 1.993 1.993 0 0 1-.17-.857v-6.09a1.985 1.985 0 0 1 .17-.858 1.73 1.73 0 0 1 .462-.618c.204-.167.44-.29.693-.36a3.413 3.413 0 0 1 1.788 0c.257.069.496.192.702.36.2.165.355.377.453.618.113.271.169.563.163.857v6.073c.005.295-.05.587-.163.858a1.57 1.57 0 0 1-.453.618 1.906 1.906 0 0 1-.702.369 3.3 3.3 0 0 1-.932.137Zm.941-8.063a1.033 1.033 0 0 0-.077-.429.772.772 0 0 0-.205-.274.862.862 0 0 0-.308-.138 1.46 1.46 0 0 0-.702 0 .73.73 0 0 0-.299.137.787.787 0 0 0-.214.275 1.033 1.033 0 0 0-.077.429v6.099c-.005.146.021.293.077.429a.732.732 0 0 0 .513.403c.23.057.471.057.702 0a.864.864 0 0 0 .308-.137.735.735 0 0 0 .205-.266c.056-.136.082-.282.077-.43v-6.098Zm4.577 8.063a3.18 3.18 0 0 1-.856-.12 1.893 1.893 0 0 1-.701-.369 1.71 1.71 0 0 1-.462-.618 1.993 1.993 0 0 1-.171-.857v-6.09a1.978 1.978 0 0 1 .171-.858 1.71 1.71 0 0 1 .462-.618c.206-.168.445-.291.701-.36a3.18 3.18 0 0 1 .856-.12c.289.002.576.042.855.12.257.069.496.192.702.36.198.168.356.38.462.618.106.273.158.564.154.857v6.073c.004.294-.049.585-.154.858a1.73 1.73 0 0 1-.462.618 1.906 1.906 0 0 1-.702.369c-.278.083-.565.13-.855.137Zm.941-8.063a1.05 1.05 0 0 0-.077-.429.682.682 0 0 0-.206-.274.765.765 0 0 0-.308-.138 1.506 1.506 0 0 0-.35 0 1.572 1.572 0 0 0-.351 0 .682.682 0 0 0-.505.412 1.05 1.05 0 0 0-.077.429v6.099a1.05 1.05 0 0 0 .077.429.648.648 0 0 0 .206.266.73.73 0 0 0 .299.137c.114.031.232.046.351.043.118.003.236-.011.35-.043a.763.763 0 0 0 .308-.137.648.648 0 0 0 .206-.266 1.05 1.05 0 0 0 .077-.43v-6.098Zm4.038-1.964a1.84 1.84 0 0 1 .795.154c.211.098.398.242.548.42.138.179.24.383.299.6.069.223.104.454.103.687v.78c.017.484-.124.96-.402 1.356a1.59 1.59 0 0 1-1.335.514 1.553 1.553 0 0 1-1.292-.48 2.493 2.493 0 0 1-.444-1.39v-.746a2.41 2.41 0 0 1 .419-1.415 1.602 1.602 0 0 1 1.309-.48Zm.633 1.887a1.619 1.619 0 0 0-.137-.807.553.553 0 0 0-.496-.205.554.554 0 0 0-.497.214 1.489 1.489 0 0 0-.136.73v.857c-.015.256.032.512.136.746a.524.524 0 0 0 .497.24.58.58 0 0 0 .496-.214c.122-.268.17-.565.137-.858v-.703Zm3.37-1.887v.042l-3.276 10.01h-1.095l3.293-10.01s0-.042.052-.042h1.026Zm-.316 5.6c.276-.007.55.046.804.155.208.1.394.24.547.412.139.178.24.383.3.6.058.224.087.455.085.687V19c.015.485-.129.96-.41 1.355a1.975 1.975 0 0 1-2.618 0 2.64 2.64 0 0 1-.445-1.39v-.763c.001-.5.153-.987.436-1.398a1.6 1.6 0 0 1 1.301-.446Zm.624 1.87a1.608 1.608 0 0 0-.128-.78.542.542 0 0 0-.496-.214.532.532 0 0 0-.496.214c-.112.226-.16.478-.137.73v.857c-.019.26.028.519.137.755a.51.51 0 0 0 .496.24.545.545 0 0 0 .496-.223c.115-.27.159-.565.128-.858v-.72Zm10.394 3.432a3.064 3.064 0 0 1-.77-.086 2.979 2.979 0 0 1-.624-.189 2.836 2.836 0 0 1-.462-.24 2.714 2.714 0 0 1-.274-.206l-.094-.077a.446.446 0 0 0-.197 0 3.28 3.28 0 0 1-.855-.111 2.043 2.043 0 0 1-.719-.37 1.706 1.706 0 0 1-.47-.617 1.979 1.979 0 0 1-.171-.858V12.79a1.979 1.979 0 0 1 .171-.857 1.59 1.59 0 0 1 .47-.61 1.92 1.92 0 0 1 .719-.368 3.29 3.29 0 0 1 .855-.112c.306-.003.611.034.907.112.263.07.508.196.719.369.204.161.365.37.47.609.123.269.184.562.18.857v6.082c.011.294-.042.587-.154.858a1.494 1.494 0 0 1-.368.506.2.2 0 0 0-.043.086.078.078 0 0 0 0 .06c.004.01.01.019.017.026a.07.07 0 0 0 .026.017h.051l.129.06.128.06a.666.666 0 0 1 .162.111.94.94 0 0 1 .137.18.46.46 0 0 1 .06.25v.574Zm-1.437-8.792a.86.86 0 0 0-.308-.755 1.145 1.145 0 0 0-.676-.223 1.125 1.125 0 0 0-.658.223.854.854 0 0 0-.317.755v5.901a.897.897 0 0 0 .633.918 1.145 1.145 0 0 0 1.018-.172.856.856 0 0 0 .308-.746v-5.901Zm7.802-1.939v.395a.658.658 0 0 1-.086.36.613.613 0 0 1-.188.223.829.829 0 0 0-.085.086.445.445 0 0 0 0 .154v6.725c.004.296-.057.589-.18.858-.105.24-.27.45-.479.609a2.192 2.192 0 0 1-.719.369 3.298 3.298 0 0 1-.855.111 3.409 3.409 0 0 1-.898-.111 2.243 2.243 0 0 1-.728-.37 1.486 1.486 0 0 1-.487-.608 1.997 1.997 0 0 1-.18-.858v-6.69a.307.307 0 0 0 0-.18.249.249 0 0 0-.094-.095 1.058 1.058 0 0 1-.214-.223.605.605 0 0 1-.102-.36v-.395h2.224v.395a.517.517 0 0 1-.128.36c-.066.083-.14.158-.223.223a.276.276 0 0 0-.103.094.325.325 0 0 0 0 .18v6.545a.91.91 0 0 0 .317.755 1.1 1.1 0 0 0 .684.24c.244 0 .48-.085.668-.24a.856.856 0 0 0 .316-.755v-6.579a.202.202 0 0 0-.087-.109.202.202 0 0 0-.135-.028l-.086-.086a1.06 1.06 0 0 1-.214-.223.606.606 0 0 1-.102-.36v-.395l2.164-.017Zm5.937 8.801a.91.91 0 0 1 .205.232.8.8 0 0 1 .094.386v.368h-2.181v-.351a.743.743 0 0 1 .094-.386.655.655 0 0 1 .197-.206l.111-.103a.239.239 0 0 0 .043-.172c0-.163-.043-.317-.06-.454s-.043-.24-.06-.352a1.66 1.66 0 0 1 0-.223.316.316 0 0 0-.103-.214.348.348 0 0 0-.196-.052h-1.489c-.137 0-.214.086-.231.266a1.187 1.187 0 0 0 0 .223v.352c0 .128 0 .291-.051.454a.413.413 0 0 0 0 .172c.02.04.049.075.085.103a.57.57 0 0 1 .197.206.734.734 0 0 1 .094.386v.351h-2.181v-.343a.758.758 0 0 1 .102-.394.682.682 0 0 1 .197-.25.5.5 0 0 0 .12-.11.323.323 0 0 0 .077-.155l.667-3.603c.086-.454.171-.857.248-1.33.077-.471.154-.857.214-1.157.06-.3.12-.618.163-.858.042-.24.051-.317.051-.326a1.98 1.98 0 0 0 0-.189.112.112 0 0 0-.068-.111c-.214-.086-.326-.318-.326-.695v-.3h1.754a.681.681 0 0 1 .479.171.678.678 0 0 1 .206.412c0 .043 0 .18.068.42s.103.558.163.935c.059.378.136.807.222 1.278.086.472.171.953.257 1.442.196 1.14.419 2.436.675 3.877.012.057.038.11.077.154.023.052.052.1.086.146Zm-1.968-2.573a.179.179 0 0 0 .146-.06.183.183 0 0 0 0-.146v-.223c0-.137-.06-.318-.094-.532-.034-.215-.077-.472-.12-.746a100.91 100.91 0 0 0-.137-.858l-.393-2.299-.42 2.29c-.051.292-.102.566-.145.858l-.111.746c-.034.223-.069.395-.086.532-.017.137 0 .215 0 .223a.186.186 0 0 0-.016.077c0 .027.005.053.016.078a.22.22 0 0 0 .137.051l1.223.009Zm7.452 1.792v1.424a.316.316 0 0 1-.103.249.323.323 0 0 1-.214.094h-4.158v-.394a1.164 1.164 0 0 1 .069-.438.453.453 0 0 1 .205-.214.416.416 0 0 0 .129-.095.245.245 0 0 0 .051-.154v-7.222a.367.367 0 0 0 0-.198.308.308 0 0 0-.111-.094.867.867 0 0 1-.206-.223.605.605 0 0 1-.102-.36v-.395h2.181v.395a.549.549 0 0 1-.111.36.863.863 0 0 1-.205.223.242.242 0 0 0-.094.094.367.367 0 0 0 0 .198v7.196a.388.388 0 0 0 .042.18.139.139 0 0 0 .129.078h1.146a.13.13 0 0 0 .137-.069.274.274 0 0 0 .051-.146c0-.206.06-.334.197-.394.151-.066.314-.098.479-.095h.488Zm2.498.498a.295.295 0 0 0 0 .171.425.425 0 0 0 .094.086c.079.067.148.146.205.232a.6.6 0 0 1 .103.36v.395h-2.139v-.395a.658.658 0 0 1 .086-.36.934.934 0 0 1 .222-.232.359.359 0 0 0 .103-.086.45.45 0 0 0 0-.171v-7.248a.544.544 0 0 0 0-.19 1.205 1.205 0 0 0-.103-.102.846.846 0 0 1-.205-.223.6.6 0 0 1-.103-.36v-.386h2.173v.386a.6.6 0 0 1-.103.36.846.846 0 0 1-.205.223l-.103.103a.401.401 0 0 0 0 .189l-.025 7.248Zm6.741-8.406a.674.674 0 0 1 .12.463v1.123h-.702a.37.37 0 0 1-.291-.12.521.521 0 0 1-.102-.334c0-.12-.052-.172-.146-.172h-.633a.212.212 0 0 0-.145.052.242.242 0 0 0-.052.171v7.24a.325.325 0 0 0 0 .18.59.59 0 0 0 .103.103c.079.064.148.14.205.223a.67.67 0 0 1 .094.36v.386h-2.164v-.386a.615.615 0 0 1 .103-.36c.062-.082.134-.157.214-.223l.085-.103a.261.261 0 0 0 .043-.18V12.18a.147.147 0 0 0-.069-.137.255.255 0 0 0-.128 0h-.573a.288.288 0 0 0-.128 0 .17.17 0 0 0-.069.146.44.44 0 0 1-.12.335.604.604 0 0 1-.427.111h-.531v-1.184a.514.514 0 0 1 .163-.429.854.854 0 0 1 .505-.12h4.277a.539.539 0 0 1 .368.138Zm6.296-.103v.394a.654.654 0 0 1-.291.575l-.128.094a.248.248 0 0 0-.103.155s-.042.103-.094.248l-.171.567c-.068.223-.145.48-.239.772-.095.291-.189.583-.283.857-.222.695-.479 1.484-.753 2.36v2.487a.455.455 0 0 0 0 .18.27.27 0 0 0 .103.086 1.1 1.1 0 0 1 .205.231.6.6 0 0 1 .103.36v.395h-2.181v-.394a.596.596 0 0 1 .111-.36 1.08 1.08 0 0 1 .205-.232.335.335 0 0 0 .103-.086.413.413 0 0 0 0-.172v-2.479c-.274-.857-.522-1.715-.753-2.393l-.282-.857c-.086-.292-.171-.55-.24-.772l-.171-.558a1.838 1.838 0 0 1-.077-.24.29.29 0 0 0-.086-.137l-.085-.078a.774.774 0 0 1-.205-.206.691.691 0 0 1-.094-.368v-.395h2.113v.438a.573.573 0 0 1-.086.351.627.627 0 0 1-.188.18 1.369 1.369 0 0 1-.129.103.157.157 0 0 0-.042.163c.012.062.029.122.051.18 0 .103.068.232.111.395l.146.523c.06.189.111.386.162.575.137.463.274.978.437 1.553h.077c.179-.575.35-1.098.496-1.57l.179-.566.163-.532.128-.386a.93.93 0 0 0 .052-.172.156.156 0 0 0 0-.163c-.043 0-.077-.068-.129-.103a.601.601 0 0 1-.188-.197.634.634 0 0 1-.094-.377v-.395l2.147-.034Z" fill="#7A4225"/></svg>