<svg width="290" height="290" fill="none" xmlns="http://www.w3.org/2000/svg"><g clip-path="url(#a)"><path d="M148.185 36.647a2.861 2.861 0 0 1-1.752 2.635 2.826 2.826 0 0 1-3.093-.618 2.858 2.858 0 0 1-.615-3.108 2.831 2.831 0 0 1 4.629-.925 2.86 2.86 0 0 1 .831 2.016Zm-22.681 1.671a2.862 2.862 0 0 1-1.168 2.944 2.827 2.827 0 0 1-3.153.042 2.855 2.855 0 0 1-1.245-2.911 2.852 2.852 0 0 1 2.199-2.27 2.834 2.834 0 0 1 2.135.399 2.861 2.861 0 0 1 1.232 1.796Zm-21.836 6.381a2.86 2.86 0 0 1-1.971 3.939 2.825 2.825 0 0 1-2.942-1.14 2.861 2.861 0 0 1 1.169-4.25 2.825 2.825 0 0 1 2.171-.054 2.843 2.843 0 0 1 1.573 1.505Zm-20.042 10.8a2.861 2.861 0 0 1-1.113 4.264 2.825 2.825 0 0 1-3.114-.499 2.855 2.855 0 0 1-.733-3.081 2.85 2.85 0 0 1 2.001-1.787 2.817 2.817 0 0 1 2.959 1.103Zm-17.37 14.75a2.855 2.855 0 0 1 .78 3.07 2.85 2.85 0 0 1-.976 1.335A2.829 2.829 0 0 1 61.8 73.6a2.865 2.865 0 0 1 .45-3.137 2.836 2.836 0 0 1 4.006-.214ZM52.322 88.313c.486.283.877.704 1.125 1.21a2.865 2.865 0 0 1-.416 3.143 2.824 2.824 0 0 1-4.386-.153 2.86 2.86 0 0 1 1.526-4.487 2.821 2.821 0 0 1 2.15.287Zm-9.894 20.572a2.84 2.84 0 0 1 1.35.948 2.86 2.86 0 0 1-.945 4.305c-.5.255-1.064.356-1.621.29a2.837 2.837 0 0 1-2.396-2.059 2.862 2.862 0 0 1 1.444-3.315 2.827 2.827 0 0 1 2.168-.169ZM37 131.079a2.834 2.834 0 0 1 2.423 2.025 2.853 2.853 0 0 1-.934 3.026 2.824 2.824 0 0 1-3.138.292 2.84 2.84 0 0 1-1.158-1.177 2.863 2.863 0 0 1 .013-2.69 2.84 2.84 0 0 1 1.69-1.376c.358-.107.733-.14 1.104-.1Zm-.715 22.85a2.824 2.824 0 0 1 1.619.31c.497.262.905.667 1.174 1.162a2.866 2.866 0 0 1-.286 3.157 2.83 2.83 0 0 1-4.388.031 2.856 2.856 0 0 1-.64-1.525 2.862 2.862 0 0 1 .613-2.094c.234-.291.523-.533.85-.712a2.8 2.8 0 0 1 1.058-.329Zm4.033 22.491a2.821 2.821 0 0 1 3.036.859 2.86 2.86 0 0 1-.77 4.341 2.822 2.822 0 0 1-3.144-.25 2.866 2.866 0 0 1-.77-3.534 2.84 2.84 0 0 1 1.648-1.416Zm8.589 21.158a2.818 2.818 0 0 1 3.147.206 2.865 2.865 0 0 1 .145 4.407 2.825 2.825 0 0 1-3.127.414 2.864 2.864 0 0 1-1.486-3.296 2.85 2.85 0 0 1 1.321-1.731Zm12.787 18.9a2.82 2.82 0 0 1 3.12-.449c.505.243.928.632 1.215 1.116a2.864 2.864 0 0 1-.167 3.163 2.83 2.83 0 0 1-4.38.203 2.87 2.87 0 0 1 .212-4.033Zm16.414 15.82a2.823 2.823 0 0 1 4.38-.256 2.857 2.857 0 0 1 .491 3.13 2.846 2.846 0 0 1-1.095 1.237 2.826 2.826 0 0 1-3.15-.126 2.85 2.85 0 0 1-1.092-2.975c.088-.364.246-.707.466-1.01Zm19.328 12.043a2.849 2.849 0 0 1 1.078-1.252 2.826 2.826 0 0 1 3.153.083 2.856 2.856 0 0 1 1.129 2.959 2.86 2.86 0 0 1-.815 1.44 2.833 2.833 0 0 1-4.604-1.048 2.862 2.862 0 0 1 .06-2.182Zm21.431 7.741a2.85 2.85 0 0 1 .796-1.443 2.82 2.82 0 0 1 4.345.494 2.85 2.85 0 0 1-1.321 4.19 2.816 2.816 0 0 1-2.654-.295 2.838 2.838 0 0 1-1.183-1.832 2.842 2.842 0 0 1 .017-1.114Zm22.495 3.101c0-.564.166-1.116.478-1.585a2.84 2.84 0 0 1 1.274-1.05 2.822 2.822 0 0 1 3.092.618 2.86 2.86 0 0 1-.43 4.388 2.823 2.823 0 0 1-2.663.266 2.832 2.832 0 0 1-1.537-1.545 2.856 2.856 0 0 1-.214-1.092Zm22.681-1.678a2.856 2.856 0 0 1 1.167-2.944 2.83 2.83 0 0 1 4.215 1.224 2.862 2.862 0 0 1-.573 3.116 2.842 2.842 0 0 1-3.582.408 2.841 2.841 0 0 1-1.227-1.804Zm21.835-6.374a2.867 2.867 0 0 1 .554-3.114 2.829 2.829 0 0 1 4.368.333 2.871 2.871 0 0 1 .08 3.163 2.849 2.849 0 0 1-1.243 1.082 2.816 2.816 0 0 1-2.183.055 2.83 2.83 0 0 1-1.576-1.519Zm20.043-10.807a2.861 2.861 0 0 1-.114-3.156 2.824 2.824 0 0 1 5.163.828c.13.546.097 1.119-.096 1.647a2.842 2.842 0 0 1-3.103 1.83 2.808 2.808 0 0 1-1.85-1.149Zm17.383-14.75a2.866 2.866 0 0 1-.775-3.07c.188-.531.527-.995.977-1.333a2.832 2.832 0 0 1 4.258 1.054 2.861 2.861 0 0 1-1.335 3.803 2.825 2.825 0 0 1-3.125-.454Zm13.921-18.057a2.85 2.85 0 0 1-1.399-2.841 2.869 2.869 0 0 1 .678-1.509 2.84 2.84 0 0 1 1.398-.876 2.837 2.837 0 0 1 2.987 1.014c.342.447.545.986.582 1.549a2.858 2.858 0 0 1-2.092 2.947 2.804 2.804 0 0 1-2.154-.284Zm9.894-20.579a2.855 2.855 0 0 1-1.954-2.488 2.845 2.845 0 0 1 1.54-2.766 2.83 2.83 0 0 1 3.132.373c.427.367.736.852.888 1.396a2.87 2.87 0 0 1-.033 1.655 2.847 2.847 0 0 1-1.41 1.658 2.825 2.825 0 0 1-2.163.172Zm5.421-22.201a2.822 2.822 0 0 1-1.512-.645 2.862 2.862 0 0 1-.887-3.03 2.825 2.825 0 0 1 5.207-.479c.261.497.369 1.061.311 1.62a2.822 2.822 0 0 1-.326 1.064 2.83 2.83 0 0 1-1.689 1.373 2.784 2.784 0 0 1-1.104.097Zm.714-22.843a2.829 2.829 0 0 1-2.777-1.479 2.855 2.855 0 0 1 .293-3.145 2.821 2.821 0 0 1 4.375-.025 2.863 2.863 0 0 1 .536 2.629 2.85 2.85 0 0 1-1.369 1.693 2.813 2.813 0 0 1-1.058.327Zm-4.033-22.491a2.833 2.833 0 0 1-3.033-.865 2.868 2.868 0 0 1-.366-3.147 2.852 2.852 0 0 1 1.144-1.192 2.825 2.825 0 0 1 3.143.254 2.856 2.856 0 0 1 1.07 2.465 2.866 2.866 0 0 1-.301 1.072 2.84 2.84 0 0 1-1.657 1.413Zm-8.588-21.158a2.828 2.828 0 0 1-3.147-.206 2.864 2.864 0 0 1-.145-4.407 2.83 2.83 0 0 1 4.329.718 2.862 2.862 0 0 1-1.037 3.895Zm-12.787-18.9a2.824 2.824 0 0 1-4.32-.672 2.854 2.854 0 0 1 1.487-4.131 2.817 2.817 0 0 1 3.046.77 2.857 2.857 0 0 1-.213 4.033Zm-16.415-15.813a2.837 2.837 0 0 1-2.958 1.089 2.835 2.835 0 0 1-1.419-.839 2.857 2.857 0 0 1-.49-3.128 2.83 2.83 0 0 1 4.998-.296 2.863 2.863 0 0 1-.131 3.174Zm-19.328-12.043a2.828 2.828 0 0 1-4.23 1.162 2.853 2.853 0 0 1-1.127-2.959c.124-.55.408-1.05.815-1.438a2.83 2.83 0 0 1 4.602 1.05 2.86 2.86 0 0 1-.06 2.185Zm-21.396-7.741a2.85 2.85 0 0 1-2.259 2.21 2.824 2.824 0 0 1-2.896-1.252 2.858 2.858 0 0 1 1.329-4.202 2.826 2.826 0 0 1 3.431 1.097 2.855 2.855 0 0 1 .395 2.147Z" fill="#EDB116"/><path d="M43.54 145.014c.005 5.048.379 10.089 1.12 15.081h200.68a102.919 102.919 0 0 0 0-30.19H44.661a104.143 104.143 0 0 0-1.12 15.109Z" fill="#F4D5B2"/><path d="M144.976 272.571c-69.966 0-126.906-57.232-126.906-127.557S75.01 17.436 144.976 17.436c69.966 0 126.954 57.225 126.954 127.578 0 70.352-56.946 127.557-126.954 127.557Zm0-252.048c-68.27 0-123.834 55.844-123.834 124.491 0 68.647 55.565 124.463 123.834 124.463s123.875-55.837 123.875-124.463c0-68.626-55.558-124.491-123.875-124.491Z" fill="#F15B40"/><path d="M192.935 145.014a48.36 48.36 0 0 1-8.081 26.763 48.006 48.006 0 0 1-21.512 17.742 47.718 47.718 0 0 1-27.694 2.742 47.864 47.864 0 0 1-24.544-13.181 48.26 48.26 0 0 1-13.123-24.664 48.407 48.407 0 0 1 2.721-27.834 48.137 48.137 0 0 1 17.647-21.625 47.728 47.728 0 0 1 44.98-4.467 47.914 47.914 0 0 1 15.56 10.444 48.192 48.192 0 0 1 10.397 15.636 48.386 48.386 0 0 1 3.649 18.444Z" fill="#F4D5B2"/><path d="M144.997 187.171c23.174 0 41.96-18.88 41.96-42.171s-18.786-42.171-41.96-42.171c-23.175 0-41.961 18.88-41.961 42.171s18.786 42.171 41.961 42.171Z" fill="#38312D"/><path d="M144.976 247.739c-56.341 0-102.205-46.101-102.205-102.725 0-56.625 45.864-102.753 102.205-102.753s102.246 46.087 102.246 102.753-45.857 102.725-102.246 102.725Zm0-203.931C89.459 43.808 44.29 89.204 44.29 145c0 55.796 45.19 101.192 100.686 101.192 55.496 0 100.714-45.389 100.714-101.178 0-55.79-45.17-101.206-100.714-101.206Z" fill="#F15B40"/><path d="M106.368 76.415a1.368 1.368 0 0 1-1.642-.103 2.437 2.437 0 0 0-1.175-.477 4.071 4.071 0 0 0-1.243.69c-1.077.747-1.709 2.4-1.897 4.959-.265 3.453.282 6.176 1.642 8.17a4.346 4.346 0 0 0 2.618 1.85 3.52 3.52 0 0 0 3.017-.504 6.01 6.01 0 0 0 1.903-2.176c.422-.868.783-1.766 1.079-2.686.106-.429.327-.82.639-1.132a1.234 1.234 0 0 1 1.051-.187 1.37 1.37 0 0 1 .923.646 1.381 1.381 0 0 1 .135 1.122c-.77 3.094-2.158 5.331-4.164 6.712a6.1 6.1 0 0 1-5.112.905 7.124 7.124 0 0 1-4.322-3.018c-1.722-2.527-2.434-5.849-2.136-9.964.247-3.425 1.266-5.755 3.057-6.989a10.47 10.47 0 0 1 1.017-.628c.28-.151.575-.274.879-.366a1.421 1.421 0 0 1 .626-1.264c.508-.359 1.065-.241 1.662.346.63.647 1.199 1.352 1.698 2.106.199.285.305.625.302.973a1.179 1.179 0 0 1-.557 1.015Zm27.422 6.319c-.79.235-1.779-.58-2.968-2.459-.454-.69-1.141-1.995-2.061-3.846-.843.378-1.933.937-3.271 1.678l-3.229 1.734c-.103 1.263-.351 3.148-.756 5.641a1.323 1.323 0 0 1-.914 1.063 1.367 1.367 0 0 1-1.037-.103 1.272 1.272 0 0 1-.687-.815c-.124-.414.061-2.196.556-5.33a1.439 1.439 0 0 1-.447-.691c-.206-.69.083-1.278.873-1.727.458-2.15 1.074-4.654 1.848-7.513 1.086-3.894 1.878-5.918 2.378-6.07.687-.2 1.285.138 1.82 1.022l2.096 4.144 4.617 8.438 1.34 1.837c.319.394.584.828.79 1.291a1.263 1.263 0 0 1-.13 1.057 1.331 1.331 0 0 1-.818.649Zm-8.932-13.521-1.945 7.099c.972-.58 2.463-1.377 4.473-2.39l-2.528-4.709Zm29.002 13.203c-1.374-.032-3.291-1.289-5.751-3.77l-3.937-4.185v.187l-.192 7.112c0 .898-.426 1.333-1.21 1.312a1.418 1.418 0 0 1-1.209-.69 2.145 2.145 0 0 1-.35-1.216c.055-2.113.197-5.278.426-9.495.229-4.217.371-7.39.426-9.522a1.381 1.381 0 0 1 .846-1.275 1.29 1.29 0 0 1 .521-.093 1.301 1.301 0 0 1 .962.436 1.384 1.384 0 0 1 .357 1c0 .878-.11 2.245-.268 4.096-.158 1.85-.233 3.156-.247 4.143 1.232-1.119 2.631-2.527 4.198-4.226l3.985-4.42a1.306 1.306 0 0 1 1.533-.401c.175.073.332.184.46.325a1.386 1.386 0 0 1 .391 1.001c0 .604-1.202 2.167-3.607 4.69a126.055 126.055 0 0 1-5.098 5.054c1.053 1.165 2.705 2.848 4.954 5.048l1.374 1.23a5.718 5.718 0 0 0 1.642.931 1.341 1.341 0 0 1 1.031 1.381 1.575 1.575 0 0 1-.303.878 1.068 1.068 0 0 1-.934.47Zm22.722-12.913a1.308 1.308 0 0 1-.378-.193 15.941 15.941 0 0 0-3.978-2.003 15.31 15.31 0 0 0-2.357-.573 24.604 24.604 0 0 0-2.879-.29c-.079.467-.187.928-.323 1.381-.391 1.195-1.003 2.817-1.834 4.834l5.792 1.319c1.704.38 2.748.628 3.126.752a1.37 1.37 0 0 1 .9 1.782 1.26 1.26 0 0 1-1.098.98c-.174.018-.35 0-.516-.055l-3.14-.739-6.081-1.429c-.227.6-.447 1.167-.646 1.706-.199.538-.378 1.05-.536 1.519-.625 1.899-.852 3.066-.687 3.453.131.31.763.69 1.896 1.028.529.18 1.333.429 2.412.753 1.079.325 1.876.573 2.419.746.255.08.517.138.783.173.26.036.517.09.769.158a1.257 1.257 0 0 1 1.046 1.23c.003.196-.04.39-.125.566a1.28 1.28 0 0 1-.568.782 1.265 1.265 0 0 1-.95.157 35.867 35.867 0 0 1-5.298-1.485c-2.652-.884-4.239-1.804-4.761-2.762-.568-1.036-.399-2.932.508-5.69a46.75 46.75 0 0 1 .625-1.795c.241-.65.509-1.333.797-2.072a1.527 1.527 0 0 1 .069-.69 1.42 1.42 0 0 1 .502-.691c.989-2.43 1.676-4.233 2.061-5.42.146-.473.258-.956.337-1.444.08-.487.19-.97.329-1.443.337-1.015.928-1.381 1.787-1.105a1.38 1.38 0 0 1 .797.69c1.043.057 2.083.175 3.112.353a17.97 17.97 0 0 1 2.639.642c1.711.5 3.315 1.313 4.734 2.396a1.317 1.317 0 0 1 .447 1.526 1.381 1.381 0 0 1-.633.801 1.193 1.193 0 0 1-1.099.152Zm1.189 16.897a1.125 1.125 0 0 1 .852-.524 1.37 1.37 0 0 1 1.452.964c.063.202.078.415.046.624a5.246 5.246 0 0 0 .178 1.858 6.152 6.152 0 0 0 2.261 2.582 8.497 8.497 0 0 0 3.676 1.56c1.697.27 2.947-.151 3.758-1.277.687-.918.687-2.03 0-3.321a9.304 9.304 0 0 0-2.748-3.135 7.823 7.823 0 0 1-2.391-2.9 3.461 3.461 0 0 1 .281-3.681c.942-1.305 2.536-1.954 4.81-1.961a9.045 9.045 0 0 1 5.497 1.65c.8.593 1.518 1.29 2.137 2.072.948 1.174 1.248 2.007.9 2.5a1.057 1.057 0 0 1-1.684.248 10.041 10.041 0 0 1-1.374-1.38 9.93 9.93 0 0 0-1.532-1.465 6.283 6.283 0 0 0-3.511-1.264 3.025 3.025 0 0 0-2.707 1.16c-.44.615-.206 1.43.687 2.466a21.29 21.29 0 0 0 2.137 1.96 7.492 7.492 0 0 1 2.748 4.434 5.19 5.19 0 0 1-.955 4.054 5.866 5.866 0 0 1-2.383 1.952 5.835 5.835 0 0 1-3.038.472 10.767 10.767 0 0 1-5.813-2.176 10.671 10.671 0 0 1-3.112-3.452c-.88-1.54-.949-2.9-.172-4.02ZM98.652 212.846l-2.15 1.712-.928-.614 6.919-5.4 1.072.69-2.206 8.508-.955-.636.688-2.672-2.44-1.588Zm2.749.808.639-2.445a18.64 18.64 0 0 1 .474-1.512c-.371.345-.763.69-1.175 1.022l-2 1.561 2.062 1.374Zm7.475-1.195.955.483-3.332 6.65 3.161 1.609-.406.808-4.122-2.071 3.744-7.479Zm4.913 11.511.818-8.562 1.065.386-.488 4.302a60.889 60.889 0 0 1-.385 2.921c.405-.732.983-1.574 1.608-2.492l2.453-3.584 1.058.379-.474 4.323c-.11 1.015-.234 2.017-.413 2.887.475-.801 1.004-1.595 1.594-2.486l2.447-3.584 1.03.366-5.016 7.05-1.051-.38.474-4.44c.084-.927.217-1.849.399-2.762a27.636 27.636 0 0 1-1.512 2.341l-2.57 3.688-1.037-.353Zm12.849 1.243-1.375 2.383-1.085-.228 4.459-7.562 1.264.263 1.058 8.735-1.099-.235-.323-2.762-2.899-.594Zm2.83-.255-.302-2.514c-.069-.573-.089-1.084-.11-1.581-.227.456-.46.925-.721 1.381l-1.306 2.182 2.439.532Zm6.617 4.468.344-3.515-2.144-5.034 1.209.124.941 2.403c.262.691.454 1.181.688 1.789.288-.518.618-1.029.996-1.623l1.408-2.175 1.216.117-3.229 4.489-.343 3.535-1.086-.11Zm7.517-.808a3.735 3.735 0 0 0 1.924.511c1.099 0 1.724-.601 1.71-1.443-.013-.843-.46-1.216-1.58-1.63-1.374-.463-2.205-1.153-2.226-2.327 0-1.299 1.037-2.279 2.645-2.3a3.7 3.7 0 0 1 1.835.38l-.282.877a3.228 3.228 0 0 0-1.58-.366c-1.127 0-1.546.691-1.539 1.271 0 .78.522 1.153 1.669 1.581 1.409.518 2.137 1.188 2.151 2.41.014 1.222-.907 2.41-2.858 2.444a4.292 4.292 0 0 1-2.123-.504l.254-.904Zm13.164-7.928 4.391-.808.158.891-3.339.608.494 2.762 3.085-.566.158.877-3.085.559.688 3.708-1.052.194-1.498-8.225Zm7.978-1.567a11.864 11.864 0 0 1 1.917-.753 3.415 3.415 0 0 1 2.494-.048 2.063 2.063 0 0 1 1.071 1.326 2.194 2.194 0 0 1-.886 2.492v.035a2.062 2.062 0 0 1 1.649 1.25c.363.705.786 1.377 1.264 2.009l-1.058.318a10.845 10.845 0 0 1-1.099-1.747c-.563-1.022-1.113-1.312-2.061-1.07l-.962.297 1.03 3.452-1.023.311-2.336-7.872Zm2.116 3.328 1.044-.317c1.093-.332 1.608-1.147 1.333-2.072-.309-1.029-1.182-1.25-2.267-.939a4.539 4.539 0 0 0-.983.4l.873 2.928Zm11.783-3.812-2.961 1.271 1.175 2.762 3.298-1.381.35.829-4.28 1.837-3.257-7.659 4.123-1.767.35.835-3.126 1.34 1.023 2.424 2.969-1.278.336.787Zm5.14.353a3.766 3.766 0 0 0 1.937-.47c.955-.539 1.23-1.381.818-2.072-.412-.69-.983-.849-2.164-.69-1.416.248-2.488.048-3.058-.974-.632-1.132-.172-2.5 1.23-3.294a3.739 3.739 0 0 1 1.8-.545l.165.911a3.182 3.182 0 0 0-1.56.428c-.989.56-1.03 1.381-.755 1.858.377.691 1.003.766 2.219.587 1.484-.214 2.439 0 3.037 1.091.598 1.091.343 2.555-1.374 3.522a4.227 4.227 0 0 1-2.103.573l-.192-.925Zm4.576-10.994 2.061 2.804 3.229-2.376-2.061-2.81.873-.649 4.899 6.719-.873.642-2.302-3.149-3.229 2.382 2.295 3.149-.859.642-4.906-6.725.873-.629Z" fill="#F15B40"/><path d="M57.145 144.724h-3.222v3.004h3.586v.897h-4.658v-8.286h4.48v.904h-3.436v2.625h3.223l.027.856Zm4.068 2.596a3.845 3.845 0 0 0 1.917.539c1.092 0 1.731-.573 1.731-1.416 0-.842-.44-1.222-1.56-1.657-1.374-.483-2.184-1.188-2.184-2.355 0-1.298 1.072-2.265 2.68-2.265a3.754 3.754 0 0 1 1.827.408l-.295.877a3.313 3.313 0 0 0-1.574-.394c-1.127 0-1.56.691-1.56 1.25 0 .773.502 1.16 1.65 1.602 1.374.545 2.109 1.222 2.109 2.444 0 1.223-.942 2.397-2.893 2.397a4.245 4.245 0 0 1-2.116-.532l.268-.898Zm10.244-6.097h-2.521v-.919h6.129v.919h-2.529v7.402h-1.079v-7.402Zm6.995-.808a15.46 15.46 0 0 1 2.274-.173 4.744 4.744 0 0 1 3.353 1.036 3.86 3.86 0 0 1 1.168 2.99 4.415 4.415 0 0 1-1.195 3.239 5.087 5.087 0 0 1-3.663 1.194 18.996 18.996 0 0 1-1.937-.096v-8.19Zm1.065 7.361c.36.049.723.07 1.086.062 2.28 0 3.524-1.284 3.524-3.535 0-1.962-1.092-3.205-3.353-3.205a5.647 5.647 0 0 0-1.257.111v6.567Zm128.857-6.16-1.374.753-.207-.829 1.746-.939h.92v8.024h-1.044l-.041-7.009Zm7.049 6.243a4.4 4.4 0 0 0 .866-.035 3.009 3.009 0 0 0 1.677-.78 3.46 3.46 0 0 0 1.051-2.134h-.035a2.393 2.393 0 0 1-2.682.714 2.397 2.397 0 0 1-1.145-.905 2.416 2.416 0 0 1-.412-1.404 2.773 2.773 0 0 1 .773-2.011 2.733 2.733 0 0 1 1.975-.841c1.636 0 2.646 1.333 2.646 3.384a5.058 5.058 0 0 1-1.374 3.763 3.929 3.929 0 0 1-2.323 1.077 4.819 4.819 0 0 1-.989.063l-.028-.891Zm.392-4.62a1.54 1.54 0 0 0 1.532 1.706 1.785 1.785 0 0 0 1.574-.836.693.693 0 0 0 .096-.393c0-1.382-.502-2.424-1.629-2.424-.955 0-1.573.815-1.573 1.947Zm7.743 5.386v-.69l.846-.829c2.061-1.954 2.961-2.99 2.975-4.198a1.443 1.443 0 0 0-.418-1.169 1.431 1.431 0 0 0-1.17-.399 2.741 2.741 0 0 0-1.69.691l-.343-.767a3.523 3.523 0 0 1 2.26-.815 2.246 2.246 0 0 1 1.746.614 2.272 2.272 0 0 1 .7 1.72c0 1.485-1.072 2.68-2.748 4.309l-.639.594h3.586v.898l-5.105.041Zm14.072-4.095c0 2.728-1.003 4.233-2.748 4.233-1.56 0-2.618-1.47-2.639-4.143-.02-2.672 1.155-4.178 2.749-4.178s2.638 1.527 2.638 4.088Zm-4.336.125c0 2.071.639 3.266 1.622 3.266 1.106 0 1.635-1.291 1.635-3.342s-.501-3.273-1.621-3.273c-.948 0-1.636 1.16-1.636 3.349Z" fill="#38312D"/><path d="M157.893 290.028c-2.336 0-4.638-1.52-6.871-2.984-2.061-1.339-4.122-2.762-6.025-2.762-1.904 0-3.979 1.381-6.019 2.762-2.385 1.568-4.844 3.191-7.359 2.963-2.515-.228-4.72-2.306-6.802-4.309-1.739-1.671-3.539-3.398-5.318-3.729-1.78-.331-4.123.635-6.397 1.568-2.061.87-4.219 1.767-6.184 1.767a5.866 5.866 0 0 1-1.587-.207c-2.467-.69-4.198-3.135-5.875-5.49-1.408-1.961-2.858-3.998-4.555-4.661-1.546-.607-4.123-.166-6.555.359-2.906.615-5.991 1.071-7.97.076-2.288-1.146-3.546-3.853-4.755-6.47-1.024-2.196-2.061-4.468-3.628-5.442-1.25-.78-3.092-.884-4.727-.884h-1.773c-2.81.076-5.744.208-7.86-1.381-2.116-1.588-2.748-4.433-3.483-7.23-.598-2.347-1.224-4.785-2.577-6.021-1.354-1.236-3.834-1.644-6.225-2.03-2.83-.456-5.758-.933-7.476-2.825-1.717-1.892-1.923-4.833-2.116-7.734-.165-2.423-.33-4.937-1.443-6.408s-3.435-2.313-5.737-3.128c-2.7-.974-5.497-1.982-6.87-4.143-1.375-2.162-.997-5.117-.688-7.976.282-2.417.577-4.917-.247-6.581-.825-1.664-2.975-2.9-5.057-4.143-2.488-1.457-5.05-2.963-5.978-5.359-.928-2.396 0-5.206.81-7.955.73-2.327 1.478-4.73.97-6.519-.509-1.788-2.378-3.397-4.198-4.978-2.172-1.906-4.425-3.867-4.893-6.402-.467-2.534.921-5.11 2.261-7.637 1.14-2.161 2.322-4.399 2.15-6.263-.171-1.865-1.71-3.757-3.201-5.649C1.862 149.944 0 147.596 0 145.014c0-2.583 1.862-4.944 3.655-7.216 1.498-1.899 3.044-3.833 3.216-5.656.172-1.823-1.017-4.095-2.158-6.256-1.34-2.528-2.748-5.152-2.26-7.645.488-2.492 2.748-4.502 4.892-6.394 1.82-1.581 3.703-3.225 4.198-4.979.495-1.754-.24-4.198-.969-6.525-.845-2.763-1.724-5.58-.81-7.955.913-2.376 3.497-3.902 5.984-5.359 2.061-1.222 4.233-2.486 5.05-4.143.818-1.657.53-4.143.248-6.574-.33-2.859-.688-5.815.687-7.983 1.374-2.168 4.122-3.183 6.87-4.143 2.275-.815 4.625-1.657 5.738-3.128 1.113-1.471 1.278-3.985 1.436-6.408.199-2.873.398-5.843 2.116-7.735 1.718-1.892 4.597-2.368 7.455-2.824 2.391-.387 4.858-.787 6.184-2.03 1.326-1.243 1.979-3.68 2.583-6.029.687-2.762 1.45-5.676 3.484-7.223 2.034-1.546 5.043-1.47 7.853-1.38.598 0 1.189.034 1.773.034 1.635 0 3.477-.11 4.727-.89 1.553-.968 2.611-3.24 3.628-5.442 1.216-2.618 2.473-5.325 4.761-6.47 1.986-.988 5.057-.54 7.964.082 2.439.525 5.009.96 6.555.36 1.697-.691 3.153-2.7 4.555-4.662 1.677-2.355 3.435-4.785 5.882-5.49 2.246-.642 5.139.442 7.791 1.554 2.247.939 4.542 1.927 6.397 1.574 1.855-.352 3.58-2.071 5.318-3.729 2.061-2.002 4.239-4.074 6.809-4.309 2.57-.234 4.968 1.382 7.352 2.963 2.061 1.34 4.122 2.727 6.019 2.727 1.896 0 3.985-1.38 6.026-2.727 2.384-1.568 4.857-3.184 7.358-2.963 2.501.221 4.721 2.307 6.809 4.31 1.732 1.67 3.525 3.397 5.312 3.728 1.786.332 4.122-.635 6.396-1.574 2.062-.87 4.219-1.768 6.184-1.768a5.834 5.834 0 0 1 1.581.214c2.473.69 4.204 3.135 5.881 5.525 1.374 1.968 2.858 3.998 4.555 4.66 1.546.602 4.123.166 6.555-.358 2.9-.615 5.985-1.07 7.97-.07 2.288 1.14 3.546 3.847 4.755 6.464 1.024 2.196 2.061 4.468 3.628 5.441 1.257.78 3.092.884 4.727.884h1.766c2.817-.069 5.751-.2 7.86 1.381 2.11 1.582 2.749 4.434 3.491 7.224.597 2.354 1.223 4.785 2.576 6.021 1.354 1.236 3.834 1.65 6.225 2.072 2.831.455 5.765.932 7.476 2.817 1.711 1.885 1.917 4.834 2.116 7.741.165 2.424.33 4.93 1.443 6.401s3.435 2.32 5.737 3.136c2.7.973 5.497 1.974 6.871 4.143 1.374 2.168.989 5.123.687 7.982-.288 2.417-.577 4.924.248 6.581.824 1.657 2.968 2.907 5.05 4.144 2.487 1.457 5.057 2.969 5.984 5.365.928 2.396.035 5.207-.817 7.948-.729 2.327-1.471 4.737-.969 6.526.501 1.788 2.377 3.397 4.198 4.979 2.178 1.899 4.432 3.86 4.899 6.401.467 2.541-.921 5.103-2.261 7.637-1.147 2.162-2.329 4.392-2.157 6.257.172 1.864 1.711 3.763 3.209 5.655 1.793 2.265 3.655 4.613 3.655 7.202 0 2.59-1.862 4.945-3.662 7.21-1.491 1.892-3.037 3.839-3.202 5.648-.165 1.81 1.01 4.102 2.157 6.264 1.34 2.534 2.749 5.144 2.261 7.637-.488 2.493-2.749 4.502-4.899 6.401-1.821 1.582-3.697 3.218-4.198 4.979-.502 1.761.24 4.192.962 6.519.852 2.762 1.738 5.586.817 7.962-.92 2.375-3.49 3.901-5.977 5.351-2.062 1.223-4.24 2.486-5.05 4.144-.811 1.657-.536 4.143-.255 6.581.337 2.858.687 5.807-.687 7.975-1.374 2.169-4.122 3.184-6.871 4.144-2.274.814-4.624 1.664-5.73 3.128-1.106 1.464-1.278 3.984-1.443 6.408-.192 2.88-.392 5.849-2.109 7.734-1.718 1.885-4.652 2.369-7.483 2.824-2.391.387-4.864.788-6.218 2.031-1.353 1.243-1.986 3.673-2.583 6.028-.687 2.762-1.457 5.683-3.491 7.223-2.033 1.54-5.05 1.471-7.86 1.381h-1.773c-1.635 0-3.47.111-4.72.884-1.553.974-2.611 3.246-3.628 5.448-1.216 2.611-2.467 5.318-4.755 6.464-1.978.994-5.063.545-7.963-.076-2.439-.518-5.016-.96-6.562-.359-1.697.69-3.153 2.7-4.555 4.668-1.677 2.348-3.435 4.778-5.875 5.483-2.26.642-5.146-.442-7.798-1.554-2.24-.946-4.528-1.926-6.39-1.574-1.862.352-3.58 2.071-5.318 3.722-2.061 2.009-4.239 4.081-6.809 4.316-.124-.076-.309-.076-.447-.076Zm-12.917-7.52c2.405 0 4.734 1.54 6.995 3.031 2.129 1.381 4.328 2.852 6.225 2.673 1.896-.18 3.882-2.031 5.75-3.826 1.869-1.796 3.91-3.764 6.184-4.192 2.275-.428 4.913.643 7.393 1.685 2.481 1.043 4.899 1.982 6.638 1.485 1.875-.532 3.435-2.707 4.919-4.834 1.484-2.127 3.168-4.433 5.36-5.283 1.958-.766 4.857-.303 7.558.277 2.59.552 5.283.987 6.815.221 1.732-.864 2.852-3.287 3.937-5.628 1.086-2.341 2.295-4.951 4.302-6.215 1.628-1.015 3.765-1.146 5.648-1.146h3.593c1.766 0 3.738-.125 4.975-1.071 1.546-1.167 2.205-3.749 2.844-6.249.639-2.5 1.374-5.297 3.106-6.906 1.731-1.609 4.48-2.037 7.125-2.465 2.535-.414 5.16-.835 6.459-2.272 1.298-1.436 1.484-4.088 1.655-6.657.179-2.686.365-5.462 1.794-7.361s4.033-2.824 6.548-3.729c2.514-.904 4.926-1.767 5.95-3.452s.687-4.282.405-6.83c-.309-2.679-.632-5.448.426-7.596 1.058-2.147 3.436-3.515 5.737-4.834 2.302-1.319 4.528-2.651 5.229-4.474.701-1.823-.096-4.33-.859-6.781-.797-2.576-1.621-5.242-.975-7.541.646-2.3 2.748-4.081 4.741-5.835 1.992-1.754 3.964-3.453 4.321-5.38.358-1.926-.893-4.219-2.061-6.477-1.264-2.396-2.57-4.834-2.357-7.257.213-2.424 1.931-4.503 3.587-6.588 1.656-2.086 3.271-4.143 3.271-6.111 0-1.969-1.663-4.075-3.271-6.098-1.608-2.023-3.374-4.261-3.587-6.602-.213-2.34 1.093-4.833 2.357-7.25 1.196-2.258 2.432-4.599 2.061-6.484-.371-1.886-2.377-3.681-4.321-5.38-1.945-1.698-4.123-3.57-4.741-5.835-.619-2.265.178-4.958.982-7.534.756-2.451 1.546-4.985.852-6.78-.694-1.796-3.002-3.17-5.229-4.476-2.226-1.305-4.685-2.762-5.737-4.833-1.051-2.072-.735-4.903-.426-7.596.303-2.555.612-5.2-.405-6.837-1.017-1.636-3.525-2.548-5.937-3.452-2.521-.905-5.132-1.844-6.554-3.736-1.423-1.892-1.615-4.668-1.801-7.354-.171-2.57-.35-5.228-1.649-6.657-1.298-1.43-3.923-1.858-6.458-2.272-2.646-.428-5.38-.87-7.132-2.465-1.752-1.596-2.433-4.296-3.099-6.906-.639-2.5-1.299-5.082-2.845-6.215-1.243-.946-3.215-1.077-4.988-1.077-.577 0-1.168 0-1.766.035h-1.807c-1.882 0-4.026-.132-5.654-1.147-2-1.25-3.168-3.763-4.302-6.215-1.133-2.451-2.205-4.757-3.944-5.634-1.525-.767-4.218-.332-6.815.22-2.701.58-5.593 1.043-7.558.277-2.192-.85-3.8-3.1-5.353-5.283-1.553-2.182-3.051-4.281-4.919-4.834-1.732-.497-4.26.49-6.638 1.485-2.377.994-5.077 2.113-7.4 1.678-2.322-.435-4.287-2.334-6.184-4.185-1.896-1.85-3.792-3.646-5.75-3.825-1.959-.18-4.123 1.277-6.225 2.68-2.261 1.477-4.59 3.017-6.995 3.017-2.405 0-4.727-1.54-6.988-3.018-2.13-1.381-4.294-2.859-6.225-2.68-1.931.18-3.882 2.031-5.751 3.826-1.869 1.796-3.909 3.757-6.184 4.185-2.274.428-4.912-.635-7.393-1.678-2.377-.994-4.912-1.975-6.637-1.485-1.876.532-3.435 2.714-4.926 4.834-1.491 2.12-3.168 4.579-5.367 5.428-1.958.766-4.85.304-7.557-.276-2.59-.553-5.291-.988-6.816-.228-1.732.87-2.859 3.294-3.944 5.635-1.086 2.34-2.295 4.95-4.302 6.214-1.628 1.022-3.772 1.154-5.654 1.154h-3.573c-1.773 0-3.745.124-4.988 1.07-1.546 1.174-2.206 3.756-2.845 6.215-.687 2.603-1.374 5.296-3.099 6.905-1.724 1.61-4.486 2.072-7.125 2.465-2.535.415-5.16.836-6.465 2.272-1.306 1.437-1.478 4.088-1.65 6.657-.178 2.638-.384 5.414-1.758 7.334s-4.027 2.824-6.548 3.729c-2.522.904-4.92 1.767-5.944 3.418-1.023 1.65-.687 4.288-.412 6.836.31 2.68.64 5.449-.426 7.596-1.065 2.148-3.435 3.515-5.737 4.834-2.302 1.319-4.528 2.652-5.229 4.475-.7 1.823.096 4.33.859 6.78.797 2.577 1.628 5.242.976 7.542-.653 2.299-2.749 4.081-4.734 5.835-1.986 1.754-3.965 3.452-4.322 5.379-.357 1.927.886 4.226 2.061 6.491 1.264 2.389 2.57 4.834 2.35 7.244-.22 2.41-1.924 4.502-3.58 6.595-1.656 2.092-3.27 4.143-3.27 6.104 0 1.961 1.662 4.074 3.27 6.111s3.367 4.247 3.58 6.588c.213 2.341-1.086 4.834-2.357 7.251-1.195 2.258-2.432 4.599-2.061 6.484.371 1.885 2.377 3.68 4.322 5.379 1.944 1.699 4.122 3.57 4.734 5.835.611 2.265-.179 4.965-.976 7.541-.762 2.451-1.553 4.986-.859 6.774.694 1.789 3.003 3.177 5.23 4.475 2.225 1.298 4.685 2.762 5.736 4.868 1.052 2.106.735 4.903.426 7.596-.295 2.555-.604 5.193.406 6.837 1.01 1.643 3.531 2.555 5.95 3.452 2.418.898 5.126 1.844 6.54 3.729 1.416 1.885 1.623 4.675 1.801 7.361.179 2.569.357 5.228 1.656 6.657 1.299 1.43 3.923 1.858 6.459 2.265 2.645.428 5.38.87 7.132 2.472 1.752 1.602 2.432 4.289 3.098 6.906.667 2.617 1.299 5.082 2.845 6.256 1.237.939 3.209 1.07 4.974 1.07.578 0 1.175 0 1.766-.034.591-.035 1.223 0 1.821 0 1.883 0 4.026.138 5.655 1.153 2 1.25 3.167 3.764 4.301 6.215 1.134 2.451 2.206 4.758 3.944 5.628 1.525.766 4.219.331 6.809-.221 2.707-.58 5.6-1.043 7.558-.276 2.192.849 3.8 3.107 5.352 5.282 1.553 2.176 3.051 4.282 4.934 4.834 1.724.49 4.253-.49 6.63-1.491 2.377-1.002 5.085-2.107 7.393-1.678 2.309.428 4.295 2.347 6.218 4.191 1.924 1.844 3.793 3.646 5.744 3.826 1.952.179 4.123-1.278 6.232-2.68 2.233-1.615 4.569-3.155 6.94-3.155Z" fill="#F15B40"/><path d="M149.882 169.342s-.131-.152-.385-.394a10.89 10.89 0 0 0-1.931-1.457 15.045 15.045 0 0 0-.955-.511c-.172-.076-.343-.159-.522-.228l-.275-.11-.275-.097c-.185-.069-.378-.111-.563-.173-.186-.062-.392-.096-.584-.131-.192-.034-.392-.083-.591-.104l-.295-.034a2.089 2.089 0 0 0-.296 0h-.584c-.19-.01-.38-.01-.57 0a4.82 4.82 0 0 0-.55.048h-.268l-.254.042a8.282 8.282 0 0 0-.948.2l-.419.117-.193.063-.178.055c-.227.09-.433.152-.598.221l-.509.214h-.034l.502-.242c.158-.083.364-.159.591-.248.226-.09.494-.18.783-.277l.46-.124.502-.11.261-.049.268-.034c.178 0 .371-.049.563-.056.192-.01.385-.01.577 0h.598c.406.02.811.071 1.209.152l.598.145c.193.056.385.104.577.18l.282.097.275.11c.185.069.364.159.536.235.332.159.656.336.969.532.295.179.57.372.817.552.248.18.461.366.646.532.186.165.344.31.467.442.255.248.385.407.385.407a.064.064 0 0 1 .019.045.064.064 0 0 1-.019.045.052.052 0 0 1-.03.006.053.053 0 0 1-.03-.009.056.056 0 0 1-.021-.022.067.067 0 0 1-.008-.03Z" fill="#ED9F61"/><path d="M149.875 169.321a4.861 4.861 0 0 1-.179-.539 9.648 9.648 0 0 1-.302-1.45 10.214 10.214 0 0 1-.089-.98 9.822 9.822 0 0 1 0-1.112c0-.194 0-.387.055-.58.055-.194 0-.201.034-.297.034-.097.034-.2.055-.297 0-.2.082-.401.124-.601.041-.2.103-.394.164-.587.119-.392.271-.773.454-1.139.041-.09.082-.187.131-.276l.144-.256c.089-.18.199-.338.295-.504.096-.166.213-.318.323-.463.11-.145.103-.152.158-.221l.172-.207c.22-.276.453-.504.687-.732.234-.228.419-.407.618-.559.2-.152.358-.297.502-.394l.454-.324h.034l-.433.352c-.137.103-.295.255-.481.414a1.073 1.073 0 0 1-.137.124l-.145.145-.302.311c-.206.221-.426.463-.639.739-.048.069-.103.131-.158.2l-.151.221a5.48 5.48 0 0 0-.309.463c-.097.159-.2.325-.289.497l-.137.256-.124.269-.124.269-.103.277c-.082.186-.137.379-.206.566-.069.186-.11.386-.158.58a5.999 5.999 0 0 0-.124.58c-.027.193-.034.2-.055.29-.02.09 0 .2-.034.29 0 .193 0 .387-.055.573 0 .373-.034.739 0 1.084.034.345.041.691.076.974.054.484.141.964.261 1.436.089.339.151.525.151.525a.069.069 0 0 1 .005.024.053.053 0 0 1-.005.025.048.048 0 0 1-.014.02.066.066 0 0 1-.02.014.07.07 0 0 1-.025.005.052.052 0 0 1-.024-.005.048.048 0 0 1-.02-.014.06.06 0 0 1-.014-.021l-.041.035Z" fill="#ED9F61"/><path d="M132.608 160.896s6.294-5.931 12.705.525c-.007-.014-5.717 6.45-12.705-.525Z" fill="#EA9C41"/><path d="M151.29 150.131s-8.279 2.451-5.984 11.276c0 0 8.437-1.664 5.984-11.276Z" fill="#ED9F61"/><path d="M127.558 152.285s6.294-5.925 12.705.525c0 0-5.71 6.47-12.705-.525Z" fill="#EA9C41"/><path d="M146.247 141.561s-8.245 2.452-5.984 11.27c0-.021 8.437-1.685 5.984-11.27Z" fill="#ED9F61"/><path d="M122.515 143.688s6.294-5.925 12.704.532c0 0-5.703 6.463-12.704-.532Z" fill="#EA9C41"/><path d="M141.204 132.943s-8.245 2.452-5.985 11.277c0 0 8.438-1.665 5.985-11.277Z" fill="#ED9F61"/><path d="M117.492 135.098s6.301-5.932 12.705.524c-.021 0-5.724 6.471-12.705-.524Z" fill="#EA9C41"/><path d="M136.167 124.353s-8.279 2.451-5.991 11.269c0 0 8.437-1.657 5.991-11.269Z" fill="#ED9F61"/><path d="M112.429 126.5s6.3-5.924 12.704.532c0 .028-5.703 6.464-12.704-.532Z" fill="#EA9C41"/><path d="M131.124 115.756s-8.279 2.451-5.991 11.276c0 .028 8.437-1.664 5.991-11.276Z" fill="#ED9F61"/><path d="M107.385 117.91s6.301-5.932 12.705.525c0 0-5.703 6.47-12.705-.525Zm3.69-15.081s8.376 2.106 6.452 11.048c0-.027-8.5-1.319-6.452-11.048Z" fill="#EA9C41"/><path d="M126.081 107.165s-8.279 2.452-5.991 11.27c0 0 8.444-1.664 5.991-11.27Z" fill="#ED9F61"/><path d="M150.789 170.888a.14.14 0 0 1-.117-.069l-33.771-57.57a.142.142 0 0 1-.01-.099.142.142 0 0 1 .059-.081.13.13 0 0 1 .048-.016.146.146 0 0 1 .051.003.142.142 0 0 1 .046.023.137.137 0 0 1 .033.039l33.771 57.563c.018.03.023.065.016.098a.135.135 0 0 1-.058.082.127.127 0 0 1-.068.027Z" fill="#EA9C41"/><path d="M155.124 168.285c.048-.122.089-.246.124-.373a7.83 7.83 0 0 0 .302-1.705v-1.596c0-.069-.048-.283-.075-.421a4.243 4.243 0 0 0-.103-.414c-.042-.131-.076-.276-.124-.414a1.834 1.834 0 0 1-.069-.201l-.082-.193-.083-.193c0-.07-.062-.132-.089-.194-.027-.062-.131-.242-.192-.359-.062-.117-.138-.228-.207-.338l-.103-.159c-.041-.048-.075-.104-.11-.152-.144-.207-.295-.38-.432-.546l-.213-.227-.097-.104-.096-.097c-.13-.117-.233-.228-.33-.31l-.302-.263.316.242c.103.076.213.179.351.297.137.117.268.262.426.421.158.159.144.159.226.256.083.096.151.179.227.276l.117.152c.041.055.069.11.11.165.041.056.151.221.213.339.062.117.144.241.206.366.062.124.062.124.096.186l.083.2c.118.268.215.545.288.829.041.138.076.283.103.421.028.138.062.29.076.435.014.145 0 .138 0 .208v.635c.014.262.014.525 0 .787 0 .249-.055.483-.09.691-.034.207-.082.407-.123.58-.041.172-.09.324-.131.442a3.89 3.89 0 0 1-.137.379.049.049 0 0 1-.014.011.047.047 0 0 1-.017.003.047.047 0 0 1-.017-.003.049.049 0 0 1-.014-.011.04.04 0 0 1-.015-.021.05.05 0 0 1 .001-.027Z" fill="#ED9F61"/><path d="m155.131 168.271.289-.29.343-.297c.138-.11.296-.234.474-.359.179-.124.385-.248.598-.373.223-.129.452-.246.687-.352l.385-.159.199-.069.206-.062c.138-.048.282-.076.419-.11a4.22 4.22 0 0 1 .426-.083c.289-.049.581-.075.873-.076h.426l.412.034c.134.008.268.027.399.056h.192l.186.048c.233.049.462.113.687.193.189.06.375.132.556.214.158.076.303.132.413.194l.35.186-.357-.166c-.117-.055-.261-.103-.419-.172l-.131-.049-.137-.048-.289-.097c-.206-.055-.433-.124-.687-.165l-.179-.035h-.192a3.68 3.68 0 0 0-.392-.048 3.908 3.908 0 0 0-.405 0h-.838l-.426.055-.419.083c-.138 0-.275.062-.406.104l-.206.069-.192.069c-.131.041-.255.096-.385.145-.241.11-.474.214-.687.338-.213.124-.419.242-.598.359a7.854 7.854 0 0 0-.824.628c-.186.166-.289.27-.289.27a.045.045 0 0 1-.014.01.033.033 0 0 1-.017.004.033.033 0 0 1-.017-.004.045.045 0 0 1-.014-.01.045.045 0 0 1-.014-.031c0-.006.001-.012.004-.017.002-.006.006-.01.01-.014v.027Z" fill="#ED9F61"/><path d="M154.932 154.488s5.785 2.127 3.751 8.287c.035.02-5.936-1.554-3.751-8.287Z" fill="#EA9C41"/><path d="M167.76 163.009s-4.212-4.516-9.077-.214c.035 0 3.773 4.875 9.077.214Z" fill="#ED9F61"/><path d="M158.759 148.467s5.792 2.126 3.758 8.286c0 .048-5.943-1.526-3.758-8.286Z" fill="#EA9C41"/><path d="M171.594 157.015s-4.219-4.516-9.077-.214c0 0 3.759 4.869 9.077.214Z" fill="#ED9F61"/><path d="M162.593 142.493s5.785 2.134 3.751 8.287c0 .027-5.936-1.547-3.751-8.287Z" fill="#EA9C41"/><path d="M175.421 151.015s-4.219-4.51-9.077-.208c0 0 3.773 4.869 9.077.208Z" fill="#ED9F61"/><path d="M166.42 136.499s5.785 2.134 3.758 8.287c0 .028-5.964-1.547-3.758-8.287Z" fill="#EA9C41"/><path d="M179.255 145.014s-4.219-4.516-9.077-.207c0 .007 3.766 4.875 9.077.207Z" fill="#ED9F61"/><path d="M170.254 130.512s5.785 2.127 3.751 8.287c0 0-5.943-1.554-3.751-8.287Z" fill="#EA9C41"/><path d="M183.082 139.027s-4.219-4.516-9.076-.214c0-.014 3.765 4.875 9.076.214Z" fill="#ED9F61"/><path d="M174.081 124.512s5.785 2.126 3.758 8.286c0 .021-5.943-1.554-3.758-8.286Zm10.746-2.486s1.374 6.042-4.913 7.679c.007 0-1.896-5.87 4.913-7.679Z" fill="#EA9C41"/><path d="M186.888 133.033s-4.225-4.516-9.076-.214c.027 0 3.793 4.875 9.076.214Z" fill="#ED9F61"/><path d="M154.437 169.362a.098.098 0 0 1-.013-.048c0-.017.005-.034.013-.048l25.656-40.135a.098.098 0 0 1 .131 0 .1.1 0 0 1 0 .132l-25.629 40.106a.089.089 0 0 1-.123 0 .054.054 0 0 1-.035-.007Z" fill="#EA9C41"/><path d="M124.885 147.341s-3.985-4.143.578-7.334c-2.817-5.842 4.479-13.258 14.683-14.176-.083-4.586 5.723-3.584 6.726-4.503 1.003-.918-.419-3.328-2.748-2.334 3.319-4.412 9.619-.248 9.372 2.838 5.229-1.25 4.645 3.667 4.645 3.667s4.315-1.084 3.902 3.253c6.802-.836 5.971 5.586 5.971 6.498 3.731-.995 6.637 4.675 4.397 8.977 2.818 2.258-.584 8.673-11.034 10.758-10.451 2.086-37.9 4.447-36.492-7.644Z" fill="#F99C95"/><path d="M157.921 123.531a20.158 20.158 0 0 1-12.821 6.001c8.513.884 15.26-4.786 15.26-4.786l-2.439-1.215Zm-36.176 21.794s8.349 3.01 17.095 2.071c-8.733 3.453-21.526-.863-21.526-.863l4.431-1.208Zm46.187-12.693a15.286 15.286 0 0 1-4.732 4.614 15.195 15.195 0 0 1-6.227 2.174c9.365.449 12.882-4.999 12.882-4.999l-1.923-1.789Zm-27.079-9.101s3.257 3.536 7.016 3.045c-5.305 1.285-10.843-1.498-10.843-1.498l3.827-1.547Zm32.342 17.788s-2.062 4.834-11.681 5.214c9.551 1.001 13.529-2.072 13.529-2.072l-1.848-3.142Zm-49.333-7.236c3.868 4.668 14.133 8.452 26.865 6.905-15.027 2.451-24.873.691-29.854-3.266 1.553-4.972 2.989-3.639 2.989-3.639Zm18.888-12.927c5.222 1.968 6.871-1.036 5.572-2.252-1.299-1.215-4.191.09-4.191.09l-1.381 2.162Zm19.527 3.653s-.687 5.904-6.569 7.119c7.18-.842 8.768-4.212 8.768-4.212l-2.199-2.907Z" fill="#38312D"/><path d="M128.225 151.077h5.022l3.209.78 2.996-.932 1.793.932 2.281-.78 1.965.78 2.659-.932 2.659.932 1.959-.78 2.288.78 1.793-.932 2.996.932 3.208-.78 4.24.31 4.583-1.56s-5.889 18.106-7.847 24.818c-4.892 2.659-26.865 2.659-31.757 0-1.965-6.712-7.16-24.411-7.16-24.411l3.113.843Z" fill="#F4D5B2"/><path d="M148.15 177.276c-5.984 0-13.384-.546-16.201-2.072l-.241-.131-.075-.269c-1.959-6.705-7.16-24.404-7.16-24.404l-.336-1.153 4.177 1.16h5.009l3.106.753 3.085-.967 1.786.939 2.247-.767 1.951.774 2.652-.932 2.646.932 1.958-.774 2.247.767 1.786-.939 3.078.967 3.133-.76 4.212.311 5.703-1.954-.405 1.27c-.062.18-5.909 18.175-7.84 24.798l-.076.269-.247.131c-2.817 1.505-10.21 2.051-16.195 2.051Zm-15.329-3.121c2.336 1.091 8.245 1.788 15.329 1.788 7.084 0 12.993-.69 15.329-1.788 1.697-5.78 6.005-19.128 7.352-23.292l-3.435 1.174-4.274-.311-3.284.794-2.914-.905-1.8.94-2.322-.795-1.965.788-2.673-.946-2.68.946-1.958-.788-2.322.795-1.807-.94-2.907.905-3.305-.801h-5.036l-2.061-.573c1.161 3.998 5.029 17.174 6.733 23.009Z" fill="#38312D"/><path d="m169.855 150.49-7.578 18.258 4.047-17.457.969.069 2.562-.87Zm-8.313.925-4.569 16.863 1.223-16.966 1.649.517 1.697-.414Zm-10.733.414-2.487 15.904-2.831-15.904 2.659-1.643 2.659 1.643Zm-13.46-.324 1.21 16.228-3.711-16.228.99.511 1.511-.511Zm-10.553-.822 6.891 17.595-4.26-17.208-1.202.007-1.429-.394Z" fill="#38312D"/></g><defs><clipPath id="a"><path fill="#fff" d="M0 0h290v290H0z"/></clipPath></defs></svg>