<svg width="290" height="290" fill="none" xmlns="http://www.w3.org/2000/svg"><path d="M145 290C65.045 290 0 224.954 0 145.004S65.045 0 145 0s145 65.046 145 145.004C290 224.961 224.948 290 145 290Zm0-288.277C65.997 1.723 1.723 65.999 1.723 145.004c0 79.005 64.274 143.273 143.277 143.273 79.003 0 143.277-64.276 143.277-143.273C288.277 66.006 224.003 1.723 145 1.723Z" fill="#EF4136"/><path d="M145 271.003c-69.48 0-125.996-56.526-125.996-125.999 0-69.474 56.517-126 125.996-126 69.479 0 125.996 56.519 125.996 126S214.465 271.003 145 271.003Zm0-250.276c-68.527 0-124.273 55.748-124.273 124.277 0 68.528 55.746 124.269 124.273 124.269 68.527 0 124.273-55.748 124.273-124.269 0-68.522-55.746-124.277-124.273-124.277Z" fill="#EF4136"/><path d="m71.246 69.183-2-1.948a1.294 1.294 0 0 0-1.722-.19l-1.353 1.39a1.28 1.28 0 0 0 .24 1.715l7.997 7.786a1.192 1.192 0 0 0 1.658.131l1.352-1.396a1.192 1.192 0 0 0-.174-1.65l-2.305-2.247.604-.625 2.304 2.247a1.978 1.978 0 0 1 .146 2.726l-1.41 1.454a2 2 0 0 1-2.785 0L65.8 70.797a2.014 2.014 0 0 1-.088-2.792l1.353-1.388a2.007 2.007 0 0 1 2.791 0l2 1.948-.611.618Zm13.086-4.355-2.61 2.116 2.414 4.362-.626.509-7.27-13.428.342-.284.255-.196.363-.298 11.632 9.916-.654.538-3.846-3.235Zm-.487-.429-6.63-5.721 4.202 7.691 2.428-1.97Zm7.517-8.324.24 2.595 3.046 4.828-.727.443-7.997-12.715.727-.444 4.064 6.449-.8-8.52.727-.473.596 6.819 7.597 5.816-.726.466-6.747-5.264Zm17.47-1.076.276.574-4.144 2-.189.094-.596.284-6.543-13.545 4.871-2.34.276.574-4.071 1.962 2.624 5.431 3.279-1.585.276.582-3.278 1.578 3.075 6.39 4.144-2Zm18.509-14.119.153.625-1.265.313 1.403 5.62a1.943 1.943 0 0 1-1.41 2.348l-1.672.414a1.942 1.942 0 0 1-2.349-1.41l-1.148-4.587a1.915 1.915 0 0 1 .574-1.658 1.894 1.894 0 0 1-1.091-1.301l-.828-3.33a1.93 1.93 0 0 1 1.323-2.327h.065l.226-.058 1.032-.261a1.95 1.95 0 0 1 2.348 1.41l.575 2.297-.844.211-.574-2.29a1.208 1.208 0 0 0-1.352-1.003l-1.258.313a1.216 1.216 0 0 0-.727 1.519l.887 3.3a1.215 1.215 0 0 0 1.352 1.004l4.58-1.149Zm-1.955 1.149-2.705.669a1.205 1.205 0 0 0-.727 1.505l1.098 4.362a1.206 1.206 0 0 0 1.367.996l1.672-.415a1.22 1.22 0 0 0 .727-1.52l-1.432-5.597Zm23.191-5.496-.109-2.785c0-.632-.473-1.345-1.113-1.323l-1.933.073c-.64 0-1.04.727-1.011 1.403l.407 11.174a1.196 1.196 0 0 0 1.113 1.236l1.933-.073a1.192 1.192 0 0 0 1.018-1.316l-.116-3.213h.872l.117 3.213a1.973 1.973 0 0 1-1.774 2.065l-2.021.073a2.006 2.006 0 0 1-2.014-1.985l-.407-11.145a1.985 1.985 0 0 1 1.861-2.065l1.934-.072a1.993 1.993 0 0 1 2.006 1.926l.102 2.785-.865.029Zm15.121-4.064-1.097 13.042a2.002 2.002 0 0 1-2.101 1.832l-1.927-.16a2.006 2.006 0 0 1-1.767-2.18l1.106-13.014.865.065-1.098 13.087c-.051.64.305 1.395.945 1.453l1.934.168c.632.05 1.119-.64 1.17-1.273l1.098-13.086.872.066Zm14.024 4.376-.887 4.21a1.917 1.917 0 0 1-2.29 1.454l-2.973-.596-1.418 6.732-.85-.175 3.097-14.722.647.138.21.044 2.908.618a1.957 1.957 0 0 1 1.556 2.297Zm-1.745 4.035.887-4.217a1.21 1.21 0 0 0-.77-1.454l-2.945-.617-1.417 6.732 2.944.625a1.194 1.194 0 0 0 1.301-1.069Zm13.363 2.392.901-2.639a1.285 1.285 0 0 0-.567-1.636l-1.832-.625c-.603-.204-1.243.342-1.454.945l-3.635 10.55a1.192 1.192 0 0 0 .589 1.555l1.832.625a1.198 1.198 0 0 0 1.454-.865l1.04-3.039.821.284-1.04 3.039a1.966 1.966 0 0 1-2.399 1.294l-1.912-.655a1.998 1.998 0 0 1-1.185-2.522l3.635-10.55a2.006 2.006 0 0 1 2.465-1.228l1.832.625a2.006 2.006 0 0 1 1.185 2.523l-.909 2.639-.821-.32Zm9.567 9.924-3.032-1.454-2.958 4.064-.727-.356 9.043-12.36.407.197.284.138.429.203-4.02 14.766-.771-.37 1.345-4.828Zm.182-.625 2.341-8.448-5.14 7.088 2.799 1.36Zm10.723 3.279-2.254 1.315-3.068 4.813-.727-.45 8.121-12.672.727.443-4.1 6.434 7.386-4.362.727.465-5.918 3.454-1.992 9.342-.727-.473 1.825-8.31Zm8.419 15.354-.4.495-3.57-2.909-.167-.138-.509-.414 9.451-11.632 4.188 3.387-.4.495-3.512-2.843-3.758 4.66 2.821 2.29-.4.502-2.828-2.297-4.486 5.54 3.57 2.864Zm11.595 5.242-2.144 2.072a2.001 2.001 0 0 1-2.77 0l-1.549-1.585a1.999 1.999 0 0 1 .102-2.755l2.181-2.094.611.625-2.181 2.094a1.28 1.28 0 0 0-.226 1.716l1.505 1.54a1.296 1.296 0 0 0 1.73-.18l2.145-2.095c.596-.581.538-1.032.415-1.897a62.628 62.628 0 0 0-.48-3.163 2.328 2.328 0 0 1 .589-2.384l1.839-1.803a1.983 1.983 0 0 1 2.77 0l1.221 1.25c.345.384.528.888.511 1.404a2.004 2.004 0 0 1-.605 1.366l-2.123 2.145-.611-.626 2.181-2.093a1.278 1.278 0 0 0 .233-1.716l-1.222-1.243a1.263 1.263 0 0 0-1.715.189l-1.694 1.65c-.727.727-.625 1.185-.487 1.992.138.807.378 2.494.538 3.323a2.267 2.267 0 0 1-.764 2.268Z" fill="#000"/><path fill-rule="evenodd" clip-rule="evenodd" d="M130.322 120.227c-.727-2.523-3.163-4.093-7.394-4.689a24.095 24.095 0 0 0-9.407.509 26.13 26.13 0 0 0-7.037 2.988l-1.985 1.512c-.669.501-1.367.989-2.087 1.454-1.345-.218-2.522-.4-3.526-.553l-2.5-.349a28.865 28.865 0 0 0-10.099 1.185c-4.773 1.319-8.622 3.076-11.544 5.271-.698.567-2.763 2.581-6.194 6.042a25.515 25.515 0 0 0-9.837.392c-7.211 1.992-12.671 6.439-16.379 13.341-3.707 6.902-4.548 13.93-2.523 21.084 1.76 6.363 5.247 10.856 10.462 13.479 5.215 2.622 11.031 3.048 17.448 1.279 7.604-2.099 13.544-5.477 17.819-10.135 3.557-3.974 6.482-9.647 8.775-17.019.64-2.162.998-5.712 1.076-10.651 0-2.414.13-4.456.312-6.143a15.53 15.53 0 0 1 .88-4.05c2.297-6.034 4.258-9.785 5.881-11.254 2.293.548 4.11 3.257 5.453 8.128.892 3.228-.136 7.253-3.083 12.076a5.734 5.734 0 0 0-4.035-.647c-1.584.436-2.231 1.199-1.926 2.297a1.875 1.875 0 0 0 1.454 1.251 3.92 3.92 0 0 0 2.181.087c.4-.109.727-.225 1.069-.334.284-.1.561-.219.828-.357a25.62 25.62 0 0 1 1.702 4.428c1.109 4.028 1.051 7.013-.175 8.957a33.806 33.806 0 0 0-9.654 4.267c-4.057 2.729-5.654 5.657-4.791 8.783.615 2.239 2.626 2.942 6.034 2.108a22.515 22.515 0 0 0 5.983-2.457 20.804 20.804 0 0 0 4.842-3.948 19.266 19.266 0 0 0 4.972-11.356 34.616 34.616 0 0 0 7.467-8.164l-.727-.429a24.816 24.816 0 0 1-6.674 7.219c-1.299-4.721-3.548-8.218-6.747-10.491a28.952 28.952 0 0 0 3.141-3.57 23.459 23.459 0 0 0 1.912-2.973 10.645 10.645 0 0 0 .727-7.997 10.143 10.143 0 0 0-3.591-5.184l-2.545-1.665c-.785-.509-1.541-1.01-2.261-1.497 3.693-2.909 6.931-4.741 9.713-5.497a22.481 22.481 0 0 1 8.6-.53c3.941.523 6.218 1.9 6.834 4.129.313 1.141-.124 2.363-1.323 3.635-.455.507-.956.969-1.498 1.381-.565.43-1.18.788-1.832 1.069l.953.538a10.56 10.56 0 0 0 3.635-2.77c1.155-1.454 1.548-2.835 1.177-4.18h.044Zm-26.557 24.987c-.5.345-1.052.605-1.636.771-.989.276-1.585.066-1.774-.632-.124-.451.109-.727.727-.916.727-.204 1.65.05 2.704.777h-.021Zm-19.811 3.221c.238 1.364.215 2.76-.066 4.115a9.341 9.341 0 0 1-5.583 4.188c-3.126.862-5.835.54-8.128-.967a11.633 11.633 0 0 1-4.725-6.958 12.964 12.964 0 0 1 .152-7.583c.3-.956.688-1.883 1.156-2.77a64.513 64.513 0 0 1 2.101-3.744c8.075 1.939 13.106 6.512 15.093 13.719Zm21.999 12.548-2.479 6.137c-2.094 3.831-4.573 6.099-7.43 6.775-2.104.529-3.347.097-3.73-1.294-.727-2.636.594-5.113 3.963-7.43a31.853 31.853 0 0 1 9.676-4.188Zm-4.806-37.746a31.407 31.407 0 0 0-9.065 11.327 39.516 39.516 0 0 0-4.086 13.958 931.672 931.672 0 0 0-.552 5.569c-.124 1.287-.211 2.051-.255 2.276a36.448 36.448 0 0 1-3.759 11.509 35.627 35.627 0 0 1-6.68 8.789 22.846 22.846 0 0 1-9.379 5.562c-6.165 1.701-11.688 1.352-16.568-1.047-5.138-2.525-8.552-6.853-10.244-12.984-1.904-6.907-1.032-13.724 2.617-20.452 3.65-6.727 8.872-11.057 15.667-12.991a17.95 17.95 0 0 1 9.015-.168c-1.628 2.807-2.58 4.515-2.835 5.09a14.583 14.583 0 0 0-.487 9.276c.93 3.393 2.612 5.896 5.045 7.51a10.411 10.411 0 0 0 8.935 1.302 20.039 20.039 0 0 0 4.987-2.581 11.948 11.948 0 0 1-4.144 8.528c-1.992 1.89-3.867 2.939-5.627 3.148l.291 1.047a13.806 13.806 0 0 0 4.362-2.036 15.276 15.276 0 0 0 3.38-3.293 16.552 16.552 0 0 0 2.276-4.246 18.07 18.07 0 0 0 1.032-4.857c1.97-3.482 2.618-6.39 1.92-8.724a8.3 8.3 0 0 0-1.454-3.039 5.012 5.012 0 0 1-.48-.436 56.154 56.154 0 0 1-1.17-1.2l-.728.451c1.726 1.987 2.707 3.509 2.945 4.566a6.542 6.542 0 0 1-.08 2.908l-.793 2.944c-.13-.872-.225-1.526-.261-1.97-.037-.443-.073-.691-.088-.727-1.938-7.008-7.068-11.741-15.39-14.199a38.758 38.758 0 0 1 6.725-6.434 33.95 33.95 0 0 1 10.301-4.529 25.801 25.801 0 0 1 14.627.153Z" fill="#004C5D"/><path fill-rule="evenodd" clip-rule="evenodd" d="m152.604 140.234-.727-.363a145.512 145.512 0 0 1-2.748 5.736 110.656 110.656 0 0 1-3.409 6.238c-3.49 6.15-6.078 9.458-7.765 9.924-1.097.305-1.781-.044-2.057-1.04-.189-.693-.08-1.951.327-3.773l4.682-21.004a7.097 7.097 0 0 0-.96 1.454c-.429.727-.727 1.164-.945 1.222a8.625 8.625 0 0 1-1.599.232 8.767 8.767 0 0 0-1.629.204c-.45.123-.872.647-1.257 1.556a4.514 4.514 0 0 0-4.297-.727c-4.173 1.148-7.546 3.843-10.12 8.084-2.573 4.241-3.259 8.443-2.057 12.607 1.347 4.846 3.683 6.821 7.008 5.925 2.588-.722 4.551-2.814 5.889-6.274 2.137 2.515 4.427 3.424 6.863 2.755 3.625-1.003 8.566-8.571 14.823-22.705l-.022-.051Zm-18.836 1.992c.247.897-.965 6.369-3.635 16.416-1.032 3.82-2.542 6.001-4.529 6.544-.999.286-1.726-.395-2.181-2.043-.742-2.676-.328-6.694 1.243-12.054 1.769-5.996 4.119-9.388 7.052-10.178 1.01-.328 1.701.13 2.05 1.315Z" fill="#004C5D"/><path fill-rule="evenodd" clip-rule="evenodd" d="M173.753 103.353a2 2 0 0 0-1.454-1.396 3.918 3.918 0 0 0-2.181-.065c-3.228.891-7.164 7.272-11.807 19.142-1.803 4.507-3.271 8.441-4.405 11.799a72.345 72.345 0 0 0-2.399 8.608 539.396 539.396 0 0 1-2.181 10.28 916.417 916.417 0 0 1-2.181 9.619 7.496 7.496 0 0 0 1.185-1.527c.479-.771.843-1.2 1.097-1.265a3.887 3.887 0 0 1 1.222-.058c.435.038.874.011 1.301-.08.892-.247 1.597-1.377 2.116-3.388a221.72 221.72 0 0 1 1.207-5.816c.363-1.621.683-2.865.959-3.802l2.755-.728c1.52-.305 2.327-.29 2.429.059.101.349 0 1.854-.407 4.362-.378 2.297-.473 3.795-.284 4.493a2.617 2.617 0 0 0 1.534 1.781c.8.343 1.696.395 2.53.145 2.186-.606 4.779-3.809 7.779-9.611.485-.887 1.19-2.392 2.115-4.515a454.03 454.03 0 0 0 3.446-8.171l-.727-.357c-5.631 13.087-9.32 19.872-11.065 20.357-.545.145-.872 0-.981-.371.097-1.232.326-2.451.683-3.635.534-2.123.706-3.533.517-4.231-.165-.596-.88-1.442-2.145-2.537 4.464-4.174 6.31-7.651 5.54-10.433-.531-1.941-1.796-2.632-3.781-2.087-2.389.659-5.164 3.299-8.324 7.918.335-1.113.611-2.029.843-2.763.233-.734.4-1.251.531-1.549 3.092-2.568 6.451-7.158 10.076-13.769 3.999-7.416 5.511-12.89 4.537-16.424l-.08.015Zm-3.562 1.628c.581 2.516-.202 6.662-2.349 12.44-2.399 6.233-5.19 10.936-8.375 14.111.117-2.491 1.343-7.537 3.679-15.136 2.472-8.114 4.41-12.365 5.816-12.752.596-.168 1.018.283 1.258 1.337h-.029Zm-5.089 29.634c.368 1.347.055 2.825-.938 4.434-1.59 2.574-4.256 4.297-7.997 5.169.261-1.577 1.148-3.584 2.668-6.034 1.556-2.675 2.981-4.192 4.275-4.551 1.076-.291 1.723.036 1.984.982h.008Z" fill="#004C5D"/><path fill-rule="evenodd" clip-rule="evenodd" d="m200.761 126.937-.727-.356a39.842 39.842 0 0 1-2.247 5.816 53.427 53.427 0 0 1-3.867 6.645c-3.834 5.874-7.391 9.267-10.673 10.178-1.337.374-2.261-.354-2.769-2.181a13.22 13.22 0 0 1-.102-5.583c2.287-.635 4.953-2.227 7.997-4.777 3.95-3.334 5.491-6.567 4.624-9.698a3.945 3.945 0 0 0-2.072-2.559 4.36 4.36 0 0 0-3.308-.371c-3.485.969-6.635 3.441-9.451 7.416-3.267 4.643-4.248 9.325-2.945 14.046a6.758 6.758 0 0 0 3.17 4.224 6.49 6.49 0 0 0 5.147.625c3.577-.97 7.333-4.605 11.269-10.906 3.039-4.9 5.021-9.056 5.947-12.468l.007-.051Zm-11.908-.436c.484 1.745-.306 4.209-2.37 7.394-2.065 3.184-4.021 5.009-5.867 5.474 1.745-8.777 3.812-13.493 6.201-14.148 1.047-.261 1.723.168 2.036 1.28Z" fill="#004C5D"/><path fill-rule="evenodd" clip-rule="evenodd" d="m222.753 120.867-.727-.364c-4.484 12.796-8.69 19.734-12.621 20.815-1.287.356-2.123-.131-2.494-1.454-.131-.495.051-1.643.575-3.446l3.111-11.691c.545-2.072.727-3.439.553-4.078a3.121 3.121 0 0 0-1.309-1.847 2.436 2.436 0 0 0-2.101-.342 5.879 5.879 0 0 0-2.813 2.298l-3.614 5.016c1.178-2.525 1.573-4.481 1.185-5.867-.315-1.139-1.068-1.546-2.261-1.221-1.09.305-1.899 1.25-2.428 2.835a6.984 6.984 0 0 0-.254 4.006c.523 1.88 1.381 2.658 2.573 2.334a4.879 4.879 0 0 0 2.443-1.876c.727-1.062 1.265-1.636 1.614-1.73.196-.059.342.094.436.436.153.552-.334 2.842-1.454 6.906-1.119 4.064-1.49 6.696-1.141 7.772 1.052 3.621 2.869 5.075 5.452 4.362 3.829-1.056 7.178-4.226 10.047-9.509 1.61-2.908 3.354-7.348 5.235-13.319l-.007-.036Zm-21.374-.604c.276.999-.209 2.979-1.454 5.94-.545.153-.938-.189-1.171-1.032a6.02 6.02 0 0 1 .189-3.105c.378-1.33.916-2.101 1.614-2.29a.62.62 0 0 1 .528.046.608.608 0 0 1 .294.441Z" fill="#004C5D"/><path fill-rule="evenodd" clip-rule="evenodd" d="m251.222 113-.727-.356-7.27 11.96-3.781 6.339c-.77 1.12-1.512 2.181-2.253 3.192a24.134 24.134 0 0 1-2.298 2.719 129.437 129.437 0 0 0 5.409-18.176l2.305-10.818c-.439.468-.805 1-1.083 1.578-.473.829-.829 1.272-1.076 1.345-.455.09-.921.109-1.382.058a4.644 4.644 0 0 0-1.454.08c-.727.211-1.272.996-1.592 2.37l-3.955 16.176a10.473 10.473 0 0 1-3.14 5.191c-1.345 1.338-2.334 2.094-2.981 2.268-.647.175-1.236-.399-1.621-1.788a9.06 9.06 0 0 1 .182-3.991l4.405-19.506a8.178 8.178 0 0 0-1.018 1.563c-.465.829-.821 1.272-1.068 1.338a5.034 5.034 0 0 1-1.454.087 5.44 5.44 0 0 0-1.614.123c-.727.204-1.272.996-1.592 2.363l-2.908 12.999a10.183 10.183 0 0 0 0 4.973c.925 3.33 2.702 4.631 5.329 3.904 1.643-.455 3.741-2.346 6.295-5.671l-1.403 7.125c-4.914 3.218-8.464 5.962-10.65 8.23-3.184 3.393-4.372 6.543-3.563 9.451a5.549 5.549 0 0 0 2.908 3.635 6.38 6.38 0 0 0 4.733.422c2.685-.742 4.866-2.605 6.543-5.591a30.813 30.813 0 0 0 1.767-4.049 35.56 35.56 0 0 0 1.381-5.162c.444-2.094.822-3.911 1.149-5.445.327-1.534.589-2.814.785-3.825a36.18 36.18 0 0 0 5.452-6.405 105.11 105.11 0 0 0 2.37-3.904 103.597 103.597 0 0 1 1.651-2.74c3.79-6.229 6.213-10.266 7.27-12.113l-.051.051Zm-21.81 28.245c-.771 2.835-1.435 5.133-1.992 6.892a315.194 315.194 0 0 1-1.185 3.693c-1.905 4.915-4.049 7.692-6.434 8.361-2.087.567-3.417-.182-3.999-2.276-.736-2.68.412-5.588 3.446-8.724a39.977 39.977 0 0 1 3.912-3.409c1.701-1.319 3.787-2.831 6.259-4.537h-.007Z" fill="#004C5D"/><path d="m151.092 51.582 3.206 6.5 7.169 1.04-5.184 5.06 1.221 7.131-6.412-3.366-6.412 3.366 1.221-7.132-5.183-5.06 7.168-1.04 3.206-6.5Zm23.351 9.488 1.665 3.373 3.715.545-2.69 2.625.64 3.7-3.33-1.745-3.329 1.745.632-3.7-2.69-2.625 3.723-.545 1.664-3.373Zm-46.695 0 1.658 3.373 3.722.545-2.69 2.625.633 3.7-3.323-1.745-3.329 1.745.632-3.7-2.69-2.625 3.722-.545 1.665-3.373Zm23.344 176.548-3.206-6.499-7.168-1.04 5.183-5.06-1.221-7.132 6.412 3.366 6.412-3.366-1.221 7.132 5.184 5.06-7.169 1.04-3.206 6.499Zm-23.351-9.487-1.665-3.374-3.715-.545 2.69-2.624-.64-3.701 3.33 1.745 3.33-1.745-.633 3.701 2.69 2.624-3.722.545-1.665 3.374Zm46.702 0-1.664-3.374-3.723-.545 2.69-2.624-.632-3.701 3.329 1.745 3.33-1.745-.64 3.701 2.69 2.624-3.715.545-1.665 3.374Z" fill="#EDB116"/><path d="m86.731 229.2-2.53-2.218-3.926 3.126-.61-.53 11.995-9.452.335.291.24.211.348.313L84.79 234.1l-.64-.56 2.581-4.34Zm.342-.553 4.507-7.51-6.863 5.453 2.356 2.057Zm8.891 12.723-.356.531-3.38-2.261-.728-.488.356-.53 7.997-11.96.727.487-7.997 11.96 3.38 2.261Zm21.475-4.922-8.673 12.497-.189-.094-.596-.284-.189-.094 3.635-11.909-7.11 10.229-.189-.094-.596-.284-.189-.094 4.42-14.541.785.386-3.817 12.577 7.481-10.811.785.378-3.824 12.585 7.481-10.811.785.364Zm5.831 12.577-3.206-1.018-2.348 4.443-.771-.24 7.197-13.494.429.138.306.095.443.145-1.883 15.166-.807-.255.64-4.98Zm.087-.639 1.127-8.688-4.107 7.742 2.98.946Zm15.362-6.144-4.413 7.678-1.243 6.543-.836-.16 1.243-6.543-1.302-8.776.858.168 1.098 7.488 3.759-6.543.836.145Zm11.043 11.087-.175 2.996a1.997 1.997 0 0 1-2.028 1.89l-2.181-.124a1.99 1.99 0 0 1-1.774-2.108l.167-3.003.873.051-.175 2.995c0 .64.349 1.389.989 1.454l2.145.124c.639 0 1.127-.662 1.163-1.301l.174-2.996c.051-.828-.298-1.126-.967-1.679-.668-.553-1.65-1.374-2.493-2.021a2.333 2.333 0 0 1-1.171-2.181l.146-2.574a1.976 1.976 0 0 1 2.028-1.883l1.745.102a1.999 1.999 0 0 1 1.803 2.108l-.175 2.996-.872-.051.174-2.996c.037-.639-.349-1.388-.988-1.454l-1.745-.101c-.633-.037-1.105.661-1.141 1.301l-.139 2.363c-.058 1.039.335 1.294.989 1.803.654.509 1.956 1.585 2.632 2.094a2.239 2.239 0 0 1 .996 2.195Zm17.143-10.549 1.003 5.94 3.802-.647.102.632-3.795.647 1.287 7.612-.858.146-1.287-7.612-.109-.633-1.011-5.939-.101-.633.857-.145 4.239-.727.109.632-4.238.727Zm15.325 3.475-2.319.727 2.181 7.191-.815.247-4.398-14.373.618-.189.203-.059 2.865-.879a1.947 1.947 0 0 1 2.421 1.287l1.068 3.482a1.989 1.989 0 0 1-.93 2.283l4.362 6.543-.894.269-4.362-6.529Zm-2.509.102 2.872-.872a1.223 1.223 0 0 0 .64-1.556l-1.069-3.483a1.205 1.205 0 0 0-1.396-.93l-2.908.88 1.861 5.961Zm19.993.349.262.589-4.188 1.905-.189.087-.596.276-6.252-13.675 4.9-2.239.269.581-4.108 1.883 2.501 5.475 3.315-1.512.262.581-3.308 1.513 2.981 6.47 4.151-1.934Zm9.734-10.6 1.593 2.545a1.991 1.991 0 0 1-.553 2.711l-1.839 1.186a1.998 1.998 0 0 1-2.668-.691l-1.6-2.545.727-.465 1.6 2.545a1.28 1.28 0 0 0 1.628.588l1.825-1.141a1.303 1.303 0 0 0 .189-1.738l-1.599-2.537c-.437-.727-.895-.727-1.76-.807a71.117 71.117 0 0 0-3.199-.203 2.329 2.329 0 0 1-2.181-1.076l-1.374-2.181a1.987 1.987 0 0 1 .56-2.719l1.454-.924a2 2 0 0 1 2.69.676l1.592 2.538-.727.465-1.599-2.537a1.276 1.276 0 0 0-1.629-.589l-1.454.93a1.265 1.265 0 0 0-.181 1.716l1.265 2.007c.552.879 1.017.865 1.846.894.829.029 2.516.16 3.359.182a2.24 2.24 0 0 1 2.035 1.17Zm4.704-16.438 9.691 11.48-.662.567-4.987-5.903-3.286 2.77 4.987 5.91-.668.56-9.699-11.487.669-.56 4.297 5.089 3.286-2.777-4.297-5.089.669-.56Z" fill="#000"/><path d="M149.144 12.926a3.449 3.449 0 0 1-4.136 3.348 3.446 3.446 0 1 1 4.136-3.348Zm-27.553 2.029a3.44 3.44 0 0 1-1.419 3.557 3.443 3.443 0 0 1-3.829.05 3.45 3.45 0 0 1-.591-5.295 3.448 3.448 0 0 1 5.839 1.688Zm-26.529 7.706a3.446 3.446 0 1 1-6.292 2.81 3.446 3.446 0 0 1 6.292-2.81Zm-24.34 13.057a3.446 3.446 0 1 1-4.812-.763 3.453 3.453 0 0 1 4.813.763ZM49.625 53.552a3.447 3.447 0 1 1-4.626 5.112 3.447 3.447 0 0 1 4.626-5.112Zm-16.91 21.825a3.446 3.446 0 1 1-4.711 1.258 3.454 3.454 0 0 1 4.711-1.258Zm-12.039 24.871a3.45 3.45 0 0 1 2.345 3.026 3.448 3.448 0 0 1-5.694 2.847 3.445 3.445 0 0 1 .716-5.686 3.44 3.44 0 0 1 2.633-.187Zm-6.594 26.827a3.452 3.452 0 0 1 2.944 2.451 3.446 3.446 0 1 1-2.944-2.451Zm-.865 27.612a3.45 3.45 0 0 1 3.403 1.759 3.448 3.448 0 0 1-3.976 4.976 3.447 3.447 0 0 1 .573-6.735Zm4.893 27.191a3.44 3.44 0 0 1 3.691 1.013 3.448 3.448 0 0 1-.897 5.25 3.441 3.441 0 0 1-4.975-1.901 3.436 3.436 0 0 1 2.18-4.362Zm10.44 25.569a3.447 3.447 0 1 1 3.448 5.969 3.447 3.447 0 0 1-3.449-5.969Zm15.528 22.85a3.445 3.445 0 1 1 4.607 5.124 3.445 3.445 0 0 1-4.607-5.124Zm19.942 19.121a3.45 3.45 0 0 1 5.322-.28 3.448 3.448 0 0 1-.769 5.274 3.446 3.446 0 0 1-4.553-4.994Zm23.474 14.555a3.445 3.445 0 0 1 6.51 2.157 3.447 3.447 0 1 1-6.51-2.157Zm25.998 9.386a3.432 3.432 0 0 1 2.738-2.661 3.438 3.438 0 1 1-.085 6.746 3.43 3.43 0 0 1-2.175-1.492 3.435 3.435 0 0 1-.478-2.593Zm27.364 3.715a3.445 3.445 0 0 1 5.883-2.437 3.446 3.446 0 1 1-5.883 2.437Zm27.553-2.021a3.439 3.439 0 1 1 6.73-1.417 3.439 3.439 0 0 1-6.73 1.417Zm26.521-7.714a3.45 3.45 0 0 1 .654-3.772 3.448 3.448 0 0 1 5.312.389 3.45 3.45 0 0 1 .098 3.827 3.445 3.445 0 0 1-1.513 1.308 3.437 3.437 0 0 1-4.551-1.752Zm24.347-13.05a3.45 3.45 0 0 1 1.347-5.155 3.443 3.443 0 0 1 4.793 2.326 3.445 3.445 0 0 1-3.891 4.207 3.45 3.45 0 0 1-2.249-1.378Zm21.098-17.834a3.44 3.44 0 0 1-.939-3.711 3.444 3.444 0 0 1 5.009-1.809 3.445 3.445 0 1 1-4.07 5.52Zm16.932-21.832a3.447 3.447 0 1 1 3.818-.247 3.447 3.447 0 0 1-2.546.681 3.44 3.44 0 0 1-1.272-.434Zm12.017-24.871a3.443 3.443 0 0 1-2.345-3.026 3.442 3.442 0 0 1 1.896-3.325 3.447 3.447 0 1 1 .449 6.351Zm6.587-26.827a3.45 3.45 0 0 1-2.931-4.449 3.449 3.449 0 0 1 4.935-2.007 3.44 3.44 0 0 1 1.783 3.388 3.44 3.44 0 0 1-2.448 2.945c-.434.128-.889.17-1.339.123Zm.865-27.613a3.443 3.443 0 0 1-3.791-3.743 3.453 3.453 0 0 1 2.41-2.975 3.45 3.45 0 0 1 3.702 5.462 3.447 3.447 0 0 1-2.321 1.256Zm-4.878-27.19a3.443 3.443 0 0 1-3.692-1.013 3.45 3.45 0 0 1-.478-3.798 3.44 3.44 0 0 1 3.325-1.896 3.444 3.444 0 0 1 3.026 2.345 3.447 3.447 0 0 1-1.01 3.698 3.448 3.448 0 0 1-1.171.664Zm-10.455-25.569a3.444 3.444 0 0 1-3.989-5.579 3.444 3.444 0 0 1 5.254.868 3.442 3.442 0 0 1-.249 3.826c-.277.359-.622.66-1.016.885Zm-15.528-22.85a3.448 3.448 0 0 1-5.746-2.743 3.446 3.446 0 0 1 6-2.128 3.443 3.443 0 0 1 .889 2.488 3.442 3.442 0 0 1-1.143 2.383ZM225.973 40.59a3.447 3.447 0 1 1-.727-4.82 3.453 3.453 0 0 1 .727 4.82Zm-23.475-14.555a3.441 3.441 0 0 1-3.24 2.035 3.448 3.448 0 0 1-3.265-4.207 3.45 3.45 0 0 1 2.777-2.634 3.446 3.446 0 0 1 1.984.247 3.453 3.453 0 0 1 1.744 4.559Zm-25.99-9.357a3.444 3.444 0 0 1-4.73 2.445 3.443 3.443 0 0 1-1.482-5.114 3.447 3.447 0 0 1 6.212 2.669Z" fill="#EDB116"/><path d="M167.857 187.272a54.967 54.967 0 0 0-59.541 2.821l.385.538a54.28 54.28 0 0 1 58.821-2.777c6.434 3.73 6.849 3.206.335-.582Z" fill="#F4D5B2"/><path d="M112.925 187.781c-2.77 2.698-3.148 12.149-14.497 11.364 2.247-1.876 1.258-11.509 14.497-11.364Z" fill="#F4D5B2"/><path d="M113.157 188.021a11.33 11.33 0 0 0-1.861 3.112c-1.81 3.78-4.289 8.957-12.89 8.339l-.828-.058.64-.531a6.496 6.496 0 0 0 1.272-2.516c1.33-3.635 3.344-9.029 13.435-8.913h.814l-.582.567Zm-2.457 2.828c.415-.955.916-1.87 1.498-2.733-9 .152-10.847 5.147-12.083 8.477-.25.785-.583 1.541-.996 2.254 7.612.283 9.807-4.297 11.581-7.998Z" fill="#38312D"/><path d="M112.925 187.781s-6.841 4.362-8.724 7.779c1.192-3.148 5.547-6.172 5.547-6.172s-2.705.785-3.875 1.963c.305-1.33 7.052-3.57 7.052-3.57Z" fill="#38312D"/><path d="M117.912 184.939c-1.578 3.518 1.621 12.468-9.233 15.936 1.389-2.566-3.111-11.123 9.233-15.936Z" fill="#F4D5B2"/><path d="M118.217 185.07a11.23 11.23 0 0 0-.567 3.591c-.276 4.173-.647 9.902-8.869 12.534l-.785.247.392-.727c.29-.905.377-1.864.255-2.806-.109-3.795-.262-9.611 9.131-13.247l.727-.29-.284.698Zm-1.228 3.547c.026-1.041.15-2.078.37-3.097-8.295 3.49-8.149 8.819-8.055 12.36.055.82.024 1.643-.094 2.457 7.175-2.552 7.51-7.626 7.779-11.72Z" fill="#38312D"/><path d="M117.912 184.939s-4.725 6.608-5.198 10.469c-.065-3.366 2.857-7.794 2.857-7.794s-2.225 1.738-2.872 3.257c-.218-1.345 5.213-5.932 5.213-5.932Z" fill="#38312D"/><path d="M117.912 184.939c-3.809-.567-9.618-8.092-18.4-.822 2.915.211 7.713 8.63 18.4.822Z" fill="#F4D5B2"/><path d="M118.108 185.208c-8.149 5.954-12.948 2.697-16.117.545a6.545 6.545 0 0 0-2.501-1.309l-.822-.058.633-.523c6.645-5.504 11.632-2.727 15.34-.727a11.574 11.574 0 0 0 3.322 1.454l.8.116-.655.502Zm-15.747 0c2.908 1.999 7.35 4.994 14.766-.109a16.974 16.974 0 0 1-2.806-1.353c-3.592-1.984-8.041-4.434-14.075.218.747.335 1.457.75 2.115 1.236v.008Z" fill="#38312D"/><path d="M117.912 184.939s-8.106.414-11.632-1.265c2.792 1.875 8.099 1.803 8.099 1.803s-2.661.923-4.297.654c1.04.909 7.83-1.192 7.83-1.192Z" fill="#38312D"/><path d="M125.153 182.263c-1.803 3.41.843 12.541-10.178 15.333 1.527-2.479-2.443-11.32 10.178-15.333Z" fill="#F4D5B2"/><path d="M125.444 182.416a11.278 11.278 0 0 0-.785 3.541c-.538 4.158-1.265 9.843-9.633 11.966l-.793.197.429-.727c.357-.56.393-1.593.437-2.792.13-3.832.327-9.626 9.952-12.679l.771-.248-.378.742Zm-1.454 3.461c.093-1.039.283-2.066.567-3.068-8.499 2.966-8.724 8.288-8.811 11.85.011.821-.069 1.64-.24 2.443 7.357-2.123 7.968-7.154 8.491-11.225h-.007Z" fill="#38312D"/><path d="M125.153 182.263s-5.125 6.296-5.816 10.12c.138-3.358 3.33-7.604 3.33-7.604s-2.32 1.599-3.061 3.082c-.16-1.359 5.547-5.598 5.547-5.598Z" fill="#38312D"/><path d="M125.153 182.263c-3.744-.807-9.102-8.673-18.284-1.963 2.864.393 7.132 9.095 18.284 1.963Z" fill="#F4D5B2"/><path d="M125.327 182.547c-8.498 5.431-13.086 1.883-16.117-.465a6.767 6.767 0 0 0-2.421-1.455l-.814-.109.669-.487c6.971-5.089 11.813-1.999 15.346.248a11.352 11.352 0 0 0 3.221 1.657l.793.167-.677.444Zm-15.717-.989c2.813 2.181 7.03 5.445 14.75.807a16.983 16.983 0 0 1-2.726-1.527c-3.468-2.181-7.75-4.929-14.053-.654.723.384 1.403.845 2.029 1.374Z" fill="#38312D"/><path d="M125.153 182.263s-8.106-.087-11.516-1.963c2.676 2.051 7.997 2.305 7.997 2.305s-2.719.763-4.325.385c.937.945 7.844-.727 7.844-.727Z" fill="#38312D"/><path d="M131.231 180.671c-2.051 3.272-.095 12.57-11.32 14.54 1.731-2.362-1.563-11.479 11.32-14.54Z" fill="#F4D5B2"/><path d="M131.507 180.846a11.43 11.43 0 0 0-1.047 3.475c-.843 4.1-1.992 9.72-10.491 11.21l-.814.138.487-.661a6.604 6.604 0 0 0 .64-2.748c.414-3.81 1.047-9.575 10.905-11.909l.785-.189-.465.684Zm-1.701 3.337c.175-1.026.442-2.033.799-3.01-8.724 2.326-9.283 7.619-9.669 11.159a11.105 11.105 0 0 1-.429 2.421c7.445-1.57 8.484-6.543 9.299-10.57Z" fill="#38312D"/><path d="M131.231 180.671s-5.584 5.903-6.543 9.662c.385-3.351 3.882-7.335 3.882-7.335s-2.436 1.454-3.279 2.842c-.065-1.367 5.94-5.169 5.94-5.169Z" fill="#38312D"/><path d="M131.231 180.671c-3.701-1.076-8.434-9.32-18.117-3.322 2.857.603 6.463 9.604 18.117 3.322Z" fill="#F4D5B2"/><path d="M131.383 180.962c-8.891 4.791-13.187.916-16.045-1.658-.879-.799-1.65-1.497-2.297-1.628l-.8-.175.727-.429c7.329-4.551 11.93-1.119 15.267 1.389a11.444 11.444 0 0 0 3.097 1.89l.778.226-.727.385Zm-15.594-2.116c2.639 2.378 6.594 5.94 14.642 1.898a17.207 17.207 0 0 1-2.603-1.723c-3.286-2.458-7.357-5.489-13.965-1.701.695.437 1.341.949 1.926 1.526Z" fill="#38312D"/><path d="M131.231 180.671s-8.099-.691-11.334-2.843c2.515 2.24 7.779 2.909 7.779 2.909s-2.763.559-4.362.065c.901 1.018 7.917-.131 7.917-.131Z" fill="#38312D"/><path d="M139.715 180.075c-2.385 3.032-1.454 12.483-12.803 13.246 1.978-2.166-.334-11.567 12.803-13.246Z" fill="#F4D5B2"/><path d="M139.969 180.3a11.508 11.508 0 0 0-1.41 3.345c-1.272 3.991-3.01 9.451-11.632 10.025l-.814.058.552-.61a6.648 6.648 0 0 0 .916-2.669c.829-3.744 2.072-9.4 12.083-10.679l.8-.102-.495.632Zm-2.043 3.141a16.72 16.72 0 0 1 1.113-2.908c-8.892 1.389-10.04 6.594-10.804 10.069a11.037 11.037 0 0 1-.676 2.356c7.583-.785 9.117-5.635 10.367-9.539v.022Z" fill="#38312D"/><path d="M139.715 180.075s-6.18 5.271-7.561 8.899c.727-3.279 4.638-6.871 4.638-6.871s-2.566 1.149-3.569 2.472c.116-1.367 6.492-4.5 6.492-4.5Z" fill="#38312D"/><path d="M139.715 180.075c-3.57-1.454-7.394-10.178-17.659-5.235 2.777.909 5.394 10.244 17.659 5.235Z" fill="#F4D5B2"/><path d="M139.838 180.38c-9.349 3.817-13.209-.501-15.776-3.351a6.583 6.583 0 0 0-2.108-1.869l-.785-.261.727-.349c7.772-3.745 11.981.152 15.056 3.009a11.646 11.646 0 0 0 2.872 2.182l.727.305-.713.334Zm-15.267-3.802c2.363 2.654 5.918 6.623 14.351 3.453a17.255 17.255 0 0 1-2.399-1.992c-3.01-2.791-6.732-6.245-13.711-3.177.642.51 1.229 1.085 1.752 1.716h.007Z" fill="#38312D"/><path d="M139.715 180.075s-7.997-1.549-10.971-4.035c2.261 2.501 7.43 3.708 7.43 3.708s-2.806.254-4.325-.407c.77 1.134 7.866.734 7.866.734Z" fill="#38312D"/><path d="M148.65 192.114a54.933 54.933 0 0 1 53.797-25.707l-.087.654a54.28 54.28 0 0 0-53.129 25.395c-3.918 6.332-4.558 6.071-.581-.342Z" fill="#F4D5B2"/><path d="M197.271 166.552c3.715 1.04 8.528 9.234 18.175 3.141-2.886-.581-6.579-9.538-18.175-3.141Z" fill="#F4D5B2"/><path d="m196.406 166.647.727-.385c8.84-4.886 13.188-1.047 16.06 1.497a6.544 6.544 0 0 0 2.319 1.607l.807.16-.727.443c-7.27 4.617-11.923 1.229-15.304-1.243a11.43 11.43 0 0 0-3.111-1.861l-.771-.218Zm18.27 3.112a11.153 11.153 0 0 1-1.941-1.505c-2.669-2.356-6.66-5.882-14.664-1.752a16.738 16.738 0 0 1 2.617 1.693c3.315 2.421 7.408 5.417 13.988 1.564Z" fill="#38312D"/><path d="M197.271 166.552s8.099.604 11.363 2.727c-2.537-2.218-7.808-2.814-7.808-2.814s2.756-.589 4.362-.109c-.901-1.025-7.917.196-7.917.196Z" fill="#38312D"/><path d="M191.535 166.414c3.054 2.349 4.479 11.742 15.682 9.662-2.45-1.592-2.545-11.297-15.682-9.662Z" fill="#F4D5B2"/><path d="m190.699 166.182.793-.102c10.025-1.243 12.628 3.94 14.351 7.365a6.553 6.553 0 0 0 1.555 2.355l.684.451-.807.153c-8.484 1.57-11.523-3.294-13.748-6.842a11.53 11.53 0 0 0-2.181-2.908l-.647-.472Zm15.769 9.676a11.038 11.038 0 0 1-1.243-2.123c-1.6-3.169-3.992-7.931-12.956-7.074a17.358 17.358 0 0 1 1.796 2.545c2.225 3.482 4.9 7.786 12.403 6.652Z" fill="#38312D"/><path d="M191.535 166.414s7.27 3.577 9.531 6.754c-1.534-2.995-6.201-5.518-6.201-5.518s2.777.48 4.071 1.52c-.465-1.294-7.401-2.756-7.401-2.756Z" fill="#38312D"/><path d="M191.535 166.407c3.09-2.305 4.646-11.676 15.82-9.451-2.465 1.585-2.705 11.269-15.82 9.451Z" fill="#F4D5B2"/><path d="m190.692 166.625.647-.48a11.326 11.326 0 0 0 2.239-2.857c2.268-3.519 5.38-8.339 13.813-6.645l.807.167-.727.437a6.678 6.678 0 0 0-1.585 2.333c-1.774 3.403-4.456 8.543-14.453 7.154l-.741-.109Zm15.936-9.451c-7.517-1.243-10.273 3.024-12.497 6.47a16.272 16.272 0 0 1-1.832 2.523c8.949.989 11.421-3.737 13.086-6.892.339-.742.756-1.446 1.243-2.101Z" fill="#38312D"/><path d="M191.535 166.407s7.343-3.468 9.626-6.616c-1.571 2.974-6.274 5.424-6.274 5.424s2.777-.444 4.085-1.454c-.458 1.272-7.437 2.646-7.437 2.646Z" fill="#38312D"/><path d="M183.931 167.476c3.199 2.181 5.191 11.443 16.241 8.68-2.574-1.454-3.264-11.123-16.241-8.68Z" fill="#F4D5B2"/><path d="m183.044 167.301.792-.152c9.924-1.854 12.839 3.148 14.773 6.463.391.867.97 1.636 1.694 2.254l.727.407-.793.203c-8.375 2.094-11.704-2.573-14.14-5.983a11.504 11.504 0 0 0-2.377-2.748l-.676-.444Zm16.357 8.681a11.482 11.482 0 0 1-1.366-2.043c-1.796-3.068-4.471-7.67-13.37-6.267.723.753 1.376 1.57 1.948 2.443 2.407 3.337 5.315 7.466 12.788 5.867Z" fill="#38312D"/><path d="M183.931 167.476s7.495 3.126 9.931 6.158c-1.716-2.908-6.543-5.126-6.543-5.126s2.806.305 4.158 1.265c-.552-1.265-7.546-2.297-7.546-2.297Z" fill="#38312D"/><path d="M183.931 167.476c2.908-2.494 3.911-11.945 15.201-10.404-2.399 1.723-2.043 11.407-15.201 10.404Z" fill="#F4D5B2"/><path d="m183.066 167.745.618-.524c.837-.88 1.53-1.889 2.05-2.988 2.05-3.635 4.863-8.659 13.406-7.488l.814.116-.662.487a6.555 6.555 0 0 0-1.454 2.421c-1.563 3.505-3.918 8.797-13.98 8.034l-.792-.058Zm15.318-10.418c-7.576-.778-10.062 3.635-12.069 7.226a17.194 17.194 0 0 1-1.657 2.661c8.993.422 11.159-4.442 12.599-7.692a11.52 11.52 0 0 1 1.127-2.195Z" fill="#38312D"/><path d="M183.931 167.476s7.11-3.919 9.196-7.198c-1.388 3.068-5.932 5.816-5.932 5.816s2.755-.618 3.999-1.708c-.429 1.294-7.263 3.09-7.263 3.09Z" fill="#38312D"/><path d="M177.788 168.952c3.351 1.912 6.026 11.028 16.844 7.444-2.639-1.258-4.049-10.847-16.844-7.444Z" fill="#F4D5B2"/><path d="m176.923 168.843.785-.211c9.749-2.596 13.035 2.181 15.209 5.343a6.53 6.53 0 0 0 1.861 2.123l.727.349-.786.262c-8.186 2.712-11.864-1.687-14.54-4.908a11.442 11.442 0 0 0-2.573-2.559l-.683-.399Zm16.968 7.437a11.636 11.636 0 0 1-1.52-1.927c-2.014-2.908-5.031-7.321-13.813-5.256a17.43 17.43 0 0 1 2.13 2.283c2.639 3.148 5.889 7.052 13.203 4.9Z" fill="#38312D"/><path d="M177.788 168.952s7.706 2.559 10.359 5.401c-1.926-2.77-6.899-4.623-6.899-4.623s2.821.101 4.246.945c-.618-1.214-7.706-1.723-7.706-1.723Z" fill="#38312D"/><path d="M177.788 168.952c2.748-2.705 3.009-12.207 14.387-11.502-2.232 1.883-1.149 11.516-14.387 11.502Z" fill="#F4D5B2"/><path d="m176.981 169.279.574-.56a11.296 11.296 0 0 0 1.832-3.133c1.767-3.796 4.195-9.001 12.81-8.47l.814.058-.625.531a6.457 6.457 0 0 0-1.251 2.522c-1.301 3.635-3.249 9.066-13.347 9.052h-.807Zm14.503-11.516c-7.619-.204-9.771 4.398-11.501 8.113a16.63 16.63 0 0 1-1.454 2.748c9.008-.239 10.803-5.256 12.003-8.6.234-.786.554-1.544.952-2.261Z" fill="#38312D"/><path d="M177.788 168.952s6.797-4.442 8.636-7.867c-1.156 3.163-5.481 6.231-5.481 6.231s2.697-.814 3.853-2c-.291 1.331-7.008 3.636-7.008 3.636Z" fill="#38312D"/><path d="M170.031 172.441c3.533 1.549 7.168 10.324 17.542 5.606-2.755-.967-5.183-10.346-17.542-5.606Z" fill="#F4D5B2"/><path d="m169.158 172.427.727-.291c9.451-3.635 13.195.778 15.696 3.686a6.633 6.633 0 0 0 2.072 1.912l.778.276-.727.342c-7.859 3.57-11.974-.422-14.991-3.33a11.1 11.1 0 0 0-2.828-2.275l-.727-.32Zm17.666 5.583a11.232 11.232 0 0 1-1.715-1.752c-2.32-2.704-5.816-6.739-14.279-3.759a16.603 16.603 0 0 1 2.356 2.051c2.944 2.842 6.594 6.383 13.653 3.46h-.015Z" fill="#38312D"/><path d="M170.031 172.441s7.938 1.723 10.905 4.268c-2.181-2.545-7.343-3.861-7.343-3.861s2.806-.203 4.311.488c-.771-1.142-7.873-.895-7.873-.895Z" fill="#38312D"/><path d="M170.031 172.441c2.442-2.981 1.693-12.454 13.086-12.962-2.021 2.115.087 11.574-13.086 12.962Z" fill="#F4D5B2"/><path d="m169.26 172.856.516-.626a11.514 11.514 0 0 0 1.454-3.307c1.36-3.963 3.213-9.394 11.836-9.779l.821-.036-.567.596c-.458.472-.727 1.454-.981 2.646-.902 3.73-2.269 9.364-12.308 10.418l-.771.088Zm13.217-13.007c-7.597.596-9.24 5.409-10.571 9.284a17.796 17.796 0 0 1-1.17 2.908c8.927-1.206 10.178-6.376 11.014-9.829.154-.812.398-1.604.727-2.363Z" fill="#38312D"/><path d="M170.031 172.441s6.288-5.14 7.749-8.724c-.807 3.264-4.791 6.776-4.791 6.776s2.596-1.098 3.635-2.399c-.152 1.345-6.593 4.347-6.593 4.347Z" fill="#38312D"/></svg>