<svg width="120" height="28" viewBox="0 0 120 28" fill="none" xmlns="http://www.w3.org/2000/svg">
<path d="M0 5.19369V22.2353L1.74846 20.482V5.21136C1.74846 3.29984 3.30136 1.74941 5.21766 1.74941H20.4456L22.1918 0H5.20457C2.33051 0.000768297 0 2.32564 0 5.19369Z" fill="#005ABF"/>
<path d="M28.3562 22.8071V5.76471L26.6077 7.51796V22.7886C26.6077 24.7002 25.0548 26.2506 23.1385 26.2506H7.91055L6.1644 28H23.1516C26.0264 27.9992 28.3562 25.6744 28.3562 22.8071Z" fill="#FF1900"/>
<path d="M13.5616 19.7647C13.5616 19.7647 21.1024 19.7647 21.1094 19.7647C22.1967 19.7647 23.3474 19.454 24.1719 18.7017C25.0683 17.8817 25.3821 16.5963 25.2298 15.4033C25.0776 14.1984 24.4447 13.0384 23.3319 12.5172C23.0869 12.3989 22.8141 12.2972 22.5421 12.2649L25.4795 8.64706H21.1387L18.6125 11.9179H16.0315V8.64706L13.5616 19.7647ZM20.1929 14.3608C20.5607 14.3608 20.8946 14.5138 21.1349 14.759C21.3752 15.0043 21.5251 15.3449 21.5251 15.7203C21.5251 16.4733 20.9278 17.0821 20.1929 17.0821H16.0206V14.3608H20.1929Z" fill="#005ABF"/>
<path d="M40.3986 9.47059C38.0095 9.47059 36.0558 11.421 36.0504 13.8391C36.0474 15.0508 36.5316 16.151 37.318 16.9447C37.8191 17.4518 38.4418 17.8343 39.1379 18.0434L35.7712 22.1083C35.7299 22.1586 35.7651 22.2353 35.8294 22.2353H40.716C40.7382 22.2353 40.7596 22.2252 40.7742 22.2074L44.0682 18.2276H46.7264V22.1579C46.7264 22.2005 46.7609 22.2353 46.8029 22.2353H51.2934C51.3354 22.2353 51.3699 22.2005 51.3699 22.1579V9.59757C51.3699 9.52711 51.314 9.47059 51.2444 9.47059H40.3986ZM46.7264 15.5734H42.1358C41.6371 15.5734 41.185 15.4031 40.8598 15.1298C40.534 14.8564 40.332 14.4771 40.332 14.0582C40.332 13.2189 41.1391 12.5414 42.1366 12.5414H46.7272V15.5734H46.7264Z" fill="#FF1900"/>
<path d="M77.4678 9.47059H72.7331C72.6843 9.47059 72.6394 9.49846 72.6185 9.54337L69.6134 15.8615C69.5847 15.9219 69.4933 15.9017 69.4933 15.8344V9.59757C69.4933 9.52711 69.4367 9.47059 69.3662 9.47059H64.8896C64.8501 9.47059 64.8129 9.48917 64.7888 9.52014L60.757 14.7682C60.6276 14.937 60.3742 14.9385 60.2425 14.7721L56.0743 9.51859C56.0503 9.4884 56.0139 9.47059 55.9751 9.47059H51.497C51.4264 9.47059 51.3699 9.52711 51.3699 9.59757V22.1579C51.3699 22.2005 51.4047 22.2353 51.4474 22.2353H55.5613C55.6039 22.2353 55.6388 22.2005 55.6388 22.1579V15.232C55.6388 15.1112 55.7907 15.057 55.8674 15.1499L60.0054 20.1788C60.1332 20.3337 60.3696 20.3383 60.5021 20.1873L64.974 15.1274C65.0523 15.0384 65.1995 15.0942 65.1995 15.2126V22.1579C65.1995 22.2005 65.2344 22.2353 65.277 22.2353H66.5835H69.4948H70.4836C70.5123 22.2353 70.5386 22.219 70.5518 22.1935L71.6684 20.0472H78.3062L79.4229 22.1935C79.436 22.219 79.4624 22.2353 79.4911 22.2353H83.7584C83.8158 22.2353 83.853 22.1749 83.8274 22.1238L77.5825 9.54182C77.5608 9.49846 77.5166 9.47059 77.4678 9.47059ZM76.7797 17.393H73.3515C73.1307 17.393 72.985 17.1607 73.0826 16.9633L74.7463 13.5402C74.8533 13.3172 75.1694 13.3125 75.2833 13.5332L77.0462 16.9563C77.1485 17.156 77.0028 17.393 76.7797 17.393Z" fill="#075AB3"/>
<path d="M113.468 9.47135H108.72C108.672 9.47135 108.629 9.49734 108.607 9.53939L104.002 18.3947C103.975 18.397 103.967 18.3978 103.939 18.3993L101.039 14.4861L106.169 9.68693C106.252 9.60895 106.196 9.47059 106.081 9.47059H101.167C101.134 9.47059 101.102 9.48358 101.078 9.50652L95.5871 14.8125C95.4799 14.9165 95.2982 14.8416 95.2982 14.6933V9.59672C95.2982 9.52716 95.2415 9.47135 95.1709 9.47135H89.7024C89.6597 9.47135 89.6193 9.49276 89.596 9.52792L86.326 14.4487L83.132 9.52869C83.1087 9.49276 83.0683 9.47059 83.0248 9.47059H78.621C78.5185 9.47059 78.4579 9.58296 78.5154 9.66629L84.1966 17.891V21.996C84.1966 22.0381 84.2316 22.0725 84.2743 22.0725H88.4157C88.4584 22.0725 88.4933 22.0381 88.4933 21.996V17.6677L90.767 14.574C90.8649 14.441 91.0792 14.509 91.0792 14.6734V21.9976C91.0792 22.0396 91.1142 22.074 91.1569 22.074H95.2221C95.2648 22.074 95.2998 22.0396 95.2998 21.9976V19.6033C95.2998 19.5383 95.3277 19.4772 95.3759 19.4336L97.7273 17.3237C97.8119 17.2481 97.9439 17.261 98.0115 17.352L101.626 22.204C101.64 22.2238 101.664 22.2353 101.688 22.2353H106.628C106.691 22.2353 106.728 22.165 106.69 22.1145L106.602 21.996L106.603 21.9953L106.702 22.1283C106.737 22.1757 106.811 22.168 106.835 22.1145L107.807 19.9886H114.345L115.503 22.1932C115.516 22.2185 115.542 22.2345 115.571 22.2345H119.923C119.98 22.2345 120.017 22.1749 119.992 22.1244L113.582 9.54092C113.56 9.49811 113.516 9.47135 113.468 9.47135ZM112.926 17.2389H109.379C109.201 17.2389 109.084 17.0546 109.162 16.8972L110.936 13.3716C111.026 13.1965 111.279 13.1965 111.365 13.3716L113.139 16.8972C113.22 17.0546 113.104 17.2389 112.926 17.2389Z" fill="#075AB3"/>
<path d="M7.65773 8.64706C6.7613 8.64706 5.82238 8.85758 5.0581 9.35354C4.13231 10.034 3.53031 11.1434 3.53031 12.3971V12.5548C3.53031 14.2185 4.59211 15.6291 6.06194 16.1195C6.11062 16.1361 6.16008 16.1511 6.21031 16.1653L3.28766 19.7647H7.62759L10.1546 16.4941H12.7357V19.7647L13.5046 16.3048L13.7078 15.3894L15.1506 8.89385L15.2055 8.64706H7.65773ZM8.57502 11.3295H12.7473V14.0513H8.57502C8.20717 14.0513 7.87333 13.8984 7.633 13.6532C7.39266 13.4079 7.24274 13.0673 7.24274 12.692C7.24197 11.9382 7.83933 11.3295 8.57502 11.3295Z" fill="#FF1405"/>
</svg>
