<svg width="34" height="34" viewBox="0 0 34 34" fill="none" xmlns="http://www.w3.org/2000/svg">
<path d="M0 6.30662V27L2.06901 24.871V6.32808C2.06901 4.00694 3.90661 2.12429 6.17423 2.12429H24.194L26.2603 0H6.15874C2.75777 0.000932932 0 2.82399 0 6.30662Z" fill="#005ABF"/>
<path d="M33.5547 27.6943V7L31.4857 9.12895V27.6719C31.4857 29.9931 29.6481 31.8757 27.3805 31.8757H9.36071L7.29443 34H27.396C30.7979 33.9991 33.5547 31.176 33.5547 27.6943Z" fill="#FF1900"/>
<path d="M16.0479 24C16.0479 24 24.9711 24 24.9793 24C26.266 24 27.6276 23.6227 28.6033 22.7093C29.6641 21.7135 30.0354 20.1527 29.8552 18.704C29.6751 17.2409 28.9261 15.8324 27.6093 15.1995C27.3194 15.0559 26.9966 14.9323 26.6747 14.8931L30.1506 10.5H25.0141L22.0247 14.4718H18.9705V10.5L16.0479 24ZM23.8948 17.4382C24.3301 17.4382 24.7251 17.6239 25.0095 17.9217C25.2939 18.2195 25.4713 18.6331 25.4713 19.0889C25.4713 20.0033 24.7644 20.7425 23.8948 20.7425H18.9577V17.4382H23.8948Z" fill="#005ABF"/>
<path d="M9.06163 10.5C8.00086 10.5 6.8898 10.7556 5.9854 11.3579C4.88988 12.1841 4.17752 13.5313 4.17752 15.0536V15.2451C4.17752 17.2653 5.43398 18.9782 7.17328 19.5737C7.23089 19.5938 7.28941 19.612 7.34885 19.6293L3.89038 24H9.02597L12.0162 20.0285H15.0705V24L15.9804 19.7987L16.2209 18.6871L17.9282 10.7997L17.9931 10.5H9.06163ZM10.1471 13.7572H15.0842V17.0623H10.1471C9.71181 17.0623 9.31676 16.8766 9.03237 16.5788C8.74797 16.2811 8.57057 15.8674 8.57057 15.4117C8.56965 14.4964 9.27653 13.7572 10.1471 13.7572Z" fill="#FF1405"/>
</svg>
