<?xml version="1.0" encoding="utf-8"?>
<!DOCTYPE svg PUBLIC "-//W3C//DTD SVG 1.0//EN" "http://www.w3.org/TR/2001/REC-SVG-20010904/DTD/svg10.dtd">
<svg version="1.0" xmlns="http://www.w3.org/2000/svg" width="28px" height="28px" viewBox="0 0 592 578" preserveAspectRatio="xMidYMid meet">
 <g fill="#ffffff">
  <path d="M189 399 l0 -12.1 54.5 -69.5 c30 -38.2 54.5 -69.7 54.5 -69.9 0 -0.3 -23.6 -0.5 -52.6 -0.5 l-52.5 0 0.1 -24.7 0.2 -24.8 -5.7 -17.4 c-3.1 -9.5 -5.4 -17.5 -5.2 -17.7 0.8 -0.8 183.9 -60.6 184.3 -60.1 0.2 0.2 3.6 9.5 7.5 20.7 4.5 12.9 6.7 20.5 6.1 20.9 -0.6 0.3 -40.8 13.4 -89.3 29.1 l-88.1 28.5 93.6 0.3 93.6 0.2 0 19.1 0 19 -48 62.5 c-26.4 34.3 -48 62.7 -48 62.9 0 0.3 21.6 0.5 48 0.5 l48 0 0 22.5 0 22.5 -100.5 0 -100.5 0 0 -12z m125.1 -174.2 c5.2 -7.2 9.6 -13.5 9.7 -14 0.2 -0.4 -12.9 -0.8 -29.1 -0.8 l-29.4 0 -10.6 13.5 c-5.9 7.4 -10.7 13.7 -10.7 14 0 0.3 13.7 0.5 30.3 0.5 l30.4 0 9.4 -13.2z m-12.4 -64 c15.6 -5 28.3 -9.5 28.3 -9.8 0 -1 -26.9 -20 -28.2 -20 -2.3 0 -54.8 17.4 -54.8 18.1 0 1.1 24 20.9 25.3 20.9 0.7 0 13.9 -4.1 29.4 -9.2z"/>
 </g>
</svg>