<svg width="46" height="109" viewBox="0 0 46 109" fill="none" xmlns="http://www.w3.org/2000/svg">
<path d="M24.0414 70H0V74H24.0414V70Z" fill="#70C3A7"/>
<path d="M24 56H0V61H24V56Z" fill="#70C3A7"/>
<path d="M9.18677 81C9.18677 81 9.18677 64.2546 9.18677 30.7637C9.18677 30.7637 13.802 30.7637 23.0325 30.7637C26.2864 30.7637 28.9426 30.9629 31.0012 31.3613C33.0819 31.7598 34.8971 32.4349 36.4465 33.3867C38.3502 34.5156 39.8222 36.1758 40.8625 38.3672C41.9029 40.5365 42.4231 43.071 42.4231 45.9707C42.4231 48.4941 41.9915 50.752 41.1282 52.7441C40.2649 54.7363 39.0253 56.3301 37.4094 57.5254C35.8821 58.6543 34.0891 59.4622 32.0305 59.9492C29.9719 60.4362 27.2493 60.6797 23.8625 60.6797H14.2004V81H9.18677ZM14.2004 56.0977H23.5305C28.0461 56.0977 31.2668 55.5332 33.1926 54.4043C34.5208 53.696 35.539 52.6003 36.2473 51.1172C36.9778 49.6341 37.343 47.8965 37.343 45.9043C37.343 43.4473 36.856 41.3997 35.8821 39.7617C34.9081 38.1016 33.5136 36.9837 31.6985 36.4082C29.5292 35.6777 26.0761 35.3125 21.3391 35.3125H14.2004V56.0977Z" fill="#70C3A7"/>
</svg>
