<svg width="34" height="24" viewBox="0 0 34 24" fill="none" xmlns="http://www.w3.org/2000/svg">
<path d="M24.3125 15.9375C24.3125 16.3825 24.1805 16.8176 23.9333 17.1876C23.6861 17.5576 23.3347 17.846 22.9235 18.0163C22.5124 18.1866 22.06 18.2311 21.6236 18.1443C21.1871 18.0575 20.7862 17.8432 20.4715 17.5285C20.1568 17.2139 19.9426 16.8129 19.8557 16.3765C19.7689 15.94 19.8135 15.4876 19.9838 15.0765C20.1541 14.6654 20.4425 14.314 20.8125 14.0667C21.1825 13.8195 21.6175 13.6875 22.0625 13.6875C22.6592 13.6875 23.2315 13.9246 23.6535 14.3465C24.0755 14.7685 24.3125 15.3408 24.3125 15.9375ZM11.9375 13.6875C11.4925 13.6875 11.0575 13.8195 10.6875 14.0667C10.3175 14.314 10.0291 14.6654 9.85878 15.0765C9.68848 15.4876 9.64392 15.94 9.73074 16.3765C9.81756 16.8129 10.0318 17.2139 10.3465 17.5285C10.6612 17.8432 11.0621 18.0575 11.4986 18.1443C11.935 18.2311 12.3874 18.1866 12.7985 18.0163C13.2097 17.846 13.5611 17.5576 13.8083 17.1876C14.0555 16.8176 14.1875 16.3825 14.1875 15.9375C14.1875 15.3408 13.9504 14.7685 13.5285 14.3465C13.1065 13.9246 12.5342 13.6875 11.9375 13.6875ZM33.3125 17.625V21C33.3117 21.7457 33.0151 22.4606 32.4878 22.9878C31.9606 23.5151 31.2457 23.8117 30.5 23.8125H3.50001C2.75434 23.8117 2.03946 23.5151 1.5122 22.9878C0.984936 22.4606 0.688349 21.7457 0.687508 21V17.7838C0.683197 13.4465 2.38669 9.28187 5.42945 6.19095L2.30676 3.06829C1.99065 2.75174 1.81317 2.32263 1.81333 1.87528C1.81349 1.42793 1.99127 0.998944 2.30759 0.682619C2.62392 0.366293 3.0529 0.188515 3.50025 0.188358C3.9476 0.188201 4.37671 0.365679 4.69326 0.681783L8.04162 4.03014C10.6762 2.26741 13.7726 1.32205 16.9425 1.31267C16.9617 1.31253 16.9814 1.31253 17.0006 1.31253C20.1951 1.30397 23.3209 2.24041 25.9845 4.00405L29.3068 0.68178C29.6233 0.365676 30.0524 0.188198 30.4998 0.188355C30.9471 0.188511 31.3761 0.366291 31.6924 0.682616C32.0087 0.998941 32.1865 1.42793 32.1867 1.87528C32.1868 2.32263 32.0094 2.75174 31.6933 3.06828L28.602 6.15957C31.63 9.20581 33.3243 13.3299 33.3125 17.625ZM29.9375 17.625C29.9375 15.9222 29.6013 14.2361 28.9483 12.6635C28.2953 11.0908 27.3382 9.66259 26.132 8.46064C24.9257 7.25869 23.4941 6.30668 21.9192 5.65922C20.3442 5.01175 18.657 4.68157 16.9541 4.6876C9.84564 4.71219 4.06251 10.5871 4.06251 17.7838V20.4375H29.9375V17.625Z" fill="#70C3A7"/>
</svg>
