<svg width="26" height="24" viewBox="0 0 26 24" fill="none" xmlns="http://www.w3.org/2000/svg">
<path d="M25.1741 14.7003C25.0979 14.5171 24.9494 14.3736 24.7638 14.3036C21.8024 13.187 20.875 9.97762 21.7142 7.64386C22.1291 6.48632 22.9453 5.54557 24.0745 4.92332C24.2603 4.82092 24.3915 4.64163 24.4328 4.43348C24.4741 4.22533 24.4213 4.00951 24.2887 3.84393C22.7878 1.97086 20.6544 0.852635 18.5816 0.852635C17.1304 0.852635 16.148 1.22522 15.2813 1.55389C14.6428 1.79598 14.0915 2.00509 13.4595 2.00509C12.7604 2.00509 12.1228 1.77671 11.3843 1.51218C10.5211 1.20297 9.54289 0.852539 8.32026 0.852539C5.96387 0.852539 3.57574 2.27757 2.08695 4.57289C1.53603 5.42668 1.14974 6.48134 0.938332 7.70886C0.343602 11.2009 1.35128 15.362 3.63423 18.8404C4.92886 20.8088 6.56032 22.8237 8.84298 22.8432L8.88958 22.8434C9.8404 22.8434 10.4801 22.5577 11.0987 22.2813C11.7524 21.9894 12.3699 21.7136 13.4883 21.708L13.5251 21.7079C14.6224 21.7079 15.2203 21.9822 15.8533 22.2726C16.4597 22.5509 17.0868 22.8386 18.0352 22.8386L18.0786 22.8383C20.3156 22.8193 22.0098 20.6997 23.3735 18.6269C24.2116 17.343 24.5308 16.6868 25.1663 15.2708C25.2474 15.0899 25.2502 14.8834 25.1741 14.7003ZM22.1705 17.8386C21.0843 19.4899 19.6361 21.3869 18.0656 21.4003L18.0351 21.4004C17.4009 21.4004 16.9824 21.2084 16.4528 20.9654C15.7773 20.6554 14.9365 20.2697 13.5249 20.2697L13.4805 20.2698C12.0597 20.2769 11.2015 20.6602 10.512 20.9683C9.96543 21.2125 9.53369 21.4053 8.88948 21.4053L8.85612 21.4052C7.23943 21.3913 5.85831 19.6049 4.83606 18.0507C2.74784 14.8691 1.8207 11.0934 2.35579 7.95172C2.53393 6.91729 2.85004 6.04289 3.29443 5.3541C4.52004 3.46454 6.44584 2.29071 8.32026 2.29071C9.29303 2.29071 10.0733 2.57019 10.8994 2.86607C11.6915 3.14987 12.5106 3.44325 13.4595 3.44325C14.3551 3.44325 15.0852 3.16636 15.7913 2.89857C16.5792 2.59972 17.394 2.29071 18.5817 2.29071C19.9948 2.29071 21.4625 2.97115 22.6288 4.14134C21.5739 4.91028 20.7973 5.93963 20.3608 7.15776C19.2225 10.3233 20.6471 13.833 23.5568 15.3377C23.1243 16.2757 22.817 16.8481 22.1705 17.8386Z" fill="#70C3A7" stroke="#70C3A7"/>
</svg>
