<svg width="26" height="32" viewBox="0 0 26 32" fill="none" xmlns="http://www.w3.org/2000/svg">
<path d="M12.5921 8.89597C12.6388 8.89741 12.6858 8.89808 12.7325 8.89808H12.7327C14.3899 8.89808 16.1882 7.96375 17.3134 6.51811C18.4749 5.02797 19.0026 3.24043 18.7613 1.61367C18.7061 1.24214 18.3732 0.974928 17.9997 1.00187C16.3664 1.11625 14.5174 2.10935 13.3988 3.47283C12.1817 4.95501 11.6241 6.76212 11.9072 8.3068C11.9683 8.63998 12.2535 8.88533 12.5921 8.89597ZM14.5105 4.3854C15.2043 3.53976 16.3273 2.84119 17.3796 2.56104C17.3295 3.99192 16.5525 5.15511 16.1789 5.6345C15.4525 6.56758 14.3356 7.23901 13.2701 7.41456C13.2913 5.99164 14.1991 4.76469 14.5105 4.3854Z" fill="#70C3A7" stroke="#70C3A7"/>
<path d="M25.1741 22.7003C25.0979 22.5171 24.9494 22.3736 24.7638 22.3036C21.8024 21.187 20.875 17.9776 21.7142 15.6439C22.1291 14.4863 22.9453 13.5456 24.0745 12.9233C24.2603 12.8209 24.3915 12.6416 24.4328 12.4335C24.4741 12.2253 24.4213 12.0095 24.2887 11.8439C22.7878 9.97086 20.6544 8.85263 18.5816 8.85263C17.1304 8.85263 16.148 9.22522 15.2813 9.55389C14.6428 9.79598 14.0915 10.0051 13.4595 10.0051C12.7604 10.0051 12.1228 9.77671 11.3843 9.51218C10.5211 9.20297 9.54289 8.85254 8.32026 8.85254C5.96387 8.85254 3.57574 10.2776 2.08695 12.5729C1.53603 13.4267 1.14974 14.4813 0.938332 15.7089C0.343602 19.2009 1.35128 23.362 3.63423 26.8404C4.92886 28.8088 6.56032 30.8237 8.84298 30.8432L8.88958 30.8434C9.8404 30.8434 10.4801 30.5577 11.0987 30.2813C11.7524 29.9894 12.3699 29.7136 13.4883 29.708L13.5251 29.7079C14.6224 29.7079 15.2203 29.9822 15.8533 30.2726C16.4597 30.5509 17.0868 30.8386 18.0352 30.8386L18.0786 30.8383C20.3156 30.8193 22.0098 28.6997 23.3735 26.6269C24.2116 25.343 24.5308 24.6868 25.1663 23.2708C25.2474 23.0899 25.2502 22.8834 25.1741 22.7003ZM22.1705 25.8386C21.0843 27.4899 19.6361 29.3869 18.0656 29.4003L18.0351 29.4004C17.4009 29.4004 16.9824 29.2084 16.4528 28.9654C15.7773 28.6554 14.9365 28.2697 13.5249 28.2697L13.4805 28.2698C12.0597 28.2769 11.2015 28.6602 10.512 28.9683C9.96543 29.2125 9.53369 29.4053 8.88948 29.4053L8.85612 29.4052C7.23943 29.3913 5.85831 27.6049 4.83606 26.0507C2.74784 22.8691 1.8207 19.0934 2.35579 15.9517C2.53393 14.9173 2.85004 14.0429 3.29443 13.3541C4.52004 11.4645 6.44584 10.2907 8.32026 10.2907C9.29303 10.2907 10.0733 10.5702 10.8994 10.8661C11.6915 11.1499 12.5106 11.4433 13.4595 11.4433C14.3551 11.4433 15.0852 11.1664 15.7913 10.8986C16.5792 10.5997 17.394 10.2907 18.5817 10.2907C19.9948 10.2907 21.4625 10.9712 22.6288 12.1413C21.5739 12.9103 20.7973 13.9396 20.3608 15.1578C19.2225 18.3233 20.6471 21.833 23.5568 23.3377C23.1243 24.2757 22.817 24.8481 22.1705 25.8386Z" fill="#70C3A7" stroke="#70C3A7"/>
</svg>
