<svg width="44" height="44" viewBox="0 0 44 44" fill="none" xmlns="http://www.w3.org/2000/svg">
<rect width="44" height="44" rx="22" fill="white"/>
<path d="M21.9338 14.4074C24.2554 14.4074 26.1375 12.5253 26.1375 10.2037C26.1375 7.88206 24.2554 6 21.9338 6C19.6122 6 17.7301 7.88206 17.7301 10.2037C17.7301 12.5253 19.6122 14.4074 21.9338 14.4074Z" fill="#70C3A7"/>
<path d="M36.649 21.7688L32.7311 20.9516C31.3963 20.6719 30.0785 21.2837 29.3818 22.3714C28.7051 22.0238 27.9775 21.7241 27.2035 21.4753V19.1456C27.205 17.3828 25.762 15.9414 24.0055 15.9414H19.9996C18.2338 15.9414 16.797 17.3828 16.797 19.1456V21.4876C16.0307 21.7317 15.3108 22.0314 14.6295 22.3806C13.9327 21.2883 12.6133 20.6719 11.277 20.9516L7.35597 21.7688C5.63492 22.1288 4.51793 23.8359 4.87789 25.5631L5.86203 30.2643C6.21892 31.9869 7.92757 33.1038 9.65019 32.7439L10.8907 32.4843C11.5118 33.402 12.3708 34.244 13.4707 34.9639C15.7618 36.4656 18.7883 37.2937 22.0002 37.2937C26.9145 37.2937 31.1476 35.3177 33.0973 32.4797L34.3579 32.7439C36.079 33.1023 37.7876 31.9869 38.1445 30.2643L39.1302 25.5631C39.4885 23.8359 38.3716 22.1288 36.649 21.7688ZM21.9986 35.6885C19.0972 35.6885 16.3782 34.9577 14.3497 33.6214C13.6545 33.1672 13.0782 32.662 12.6164 32.1213L13.5665 31.922C15.2906 31.5636 16.4076 29.8564 16.0476 28.1323L15.1655 23.9054C15.6799 23.6289 16.2207 23.3863 16.7953 23.1793V23.9502C16.7953 25.7099 18.2352 27.1513 19.9979 27.1513H24.0039C25.762 27.1513 27.2019 25.7084 27.2019 23.9502V23.1391C27.7874 23.3477 28.3374 23.5872 28.8472 23.8591L27.9527 28.1339C27.5958 29.858 28.7112 31.5652 30.4353 31.9235L31.3947 32.1244C29.6058 34.2425 26.0663 35.6885 21.9986 35.6885Z" fill="#70C3A7"/>
<path d="M35.7962 19.9335C38.1179 19.9335 39.9999 18.0515 39.9999 15.7298C39.9999 13.4082 38.1179 11.5261 35.7962 11.5261C33.4746 11.5261 31.5925 13.4082 31.5925 15.7298C31.5925 18.0515 33.4746 19.9335 35.7962 19.9335Z" fill="#70C3A7"/>
<path d="M9.0662 19.8455C11.3403 19.3696 12.7926 17.1403 12.3229 14.8678C11.8439 12.5967 9.61926 11.1383 7.34359 11.6142C5.07257 12.0884 3.61416 14.3162 4.09001 16.5888C4.56435 18.8629 6.79211 20.3198 9.0662 19.8455Z" fill="#70C3A7"/>
</svg>
