<svg width="58" height="50" viewBox="0 0 58 50" fill="none" xmlns="http://www.w3.org/2000/svg">
<path fill-rule="evenodd" clip-rule="evenodd" d="M30.2221 1.66992C30.2221 0.747551 29.4732 0 28.5493 0C27.6253 0 26.8765 0.747551 26.8765 1.66992V8.82449C26.8765 9.74686 27.6253 10.4944 28.5493 10.4944C29.4732 10.4944 30.2221 9.74686 30.2221 8.82449V1.66992ZM20.1996 11.795C20.5259 12.1208 20.9541 12.2843 21.3823 12.2843C21.8101 12.2843 22.2383 12.1212 22.565 11.795C23.218 11.1427 23.218 10.0855 22.565 9.43322L18.9811 5.85593C18.3281 5.20362 17.2691 5.20362 16.6157 5.85593C15.9622 6.50825 15.9622 7.56543 16.6157 8.21774L20.1996 11.795ZM36.8989 11.7946C36.5726 12.1208 36.1444 12.2838 35.7161 12.2838C35.2884 12.2838 34.8601 12.1208 34.5334 11.7946C33.88 11.1427 33.88 10.0855 34.5334 9.43322L38.1169 5.85593C38.7703 5.20362 39.8293 5.20362 40.4828 5.85593C41.1358 6.50781 41.1358 7.56543 40.4828 8.21731L36.8989 11.7946ZM23.7098 16.1334C23.6924 16.1478 23.6759 16.1617 23.6602 16.1748L16.4279 22.3639C15.7579 22.9371 14.9015 23.2532 14.018 23.2532H8.83798C3.95679 23.2532 0 27.1962 0 32.076V48.1764C0 49.0983 0.74884 49.8463 1.67281 49.8463H16.0067C16.9311 49.8463 17.6795 49.0979 17.6795 48.1764V32.8461L26.1916 25.5624C26.6264 25.1906 26.8764 24.6474 26.8764 24.076V17.6646C26.8764 16.0339 24.9788 15.1063 23.7098 16.1334ZM43.0804 23.2532H48.2605C53.1417 23.2532 57.0984 27.1962 57.0984 32.076V48.1759C57.0984 49.0983 56.3496 49.8458 55.4256 49.8458H41.0918C40.1674 49.8458 39.419 49.0979 39.419 48.1759V32.8461L30.9068 25.5624C30.4721 25.1906 30.222 24.6474 30.222 24.076V17.6646C30.222 16.0339 32.1196 15.1063 33.3886 16.1334C33.406 16.1478 33.4226 16.1617 33.4383 16.1748L40.6705 22.3635C41.3405 22.9371 42.197 23.2532 43.0804 23.2532ZM15.8879 16.2163C15.8879 12.3368 12.7261 9.18045 8.83987 9.18045C4.95364 9.18045 1.79187 12.3368 1.79187 16.2163C1.79187 20.0963 4.95364 23.2526 8.83987 23.2526C12.7261 23.2526 15.8879 20.0963 15.8879 16.2163ZM48.2588 9.18045C52.145 9.18045 55.3068 12.3368 55.3068 16.2163C55.3068 20.0963 52.145 23.2526 48.2588 23.2526C44.3726 23.2526 41.2108 20.0963 41.2108 16.2163C41.2108 12.3368 44.3726 9.18045 48.2588 9.18045Z" fill="#70C3A7"/>
</svg>
