<svg width="127" height="127" viewBox="0 0 127 127" fill="none" xmlns="http://www.w3.org/2000/svg">
<rect width="127" height="127" rx="63.5" fill="#405260"/>
<path d="M90.9269 35.975C68.0583 13.0402 58.0202 13.0402 35.1515 35.975C12.2828 58.9097 12.2828 68.9768 35.1515 91.921C58.0202 114.846 68.0583 114.846 90.9269 91.921C113.796 68.9768 113.796 58.9097 90.9269 35.975ZM42.6989 84.3423C31.4627 73.0736 31.4627 54.8129 42.6989 43.5442C53.9351 32.2755 72.1433 32.2755 83.3795 43.5442C94.6157 54.8129 94.6157 73.0736 83.3795 84.3423C72.1433 95.611 53.9351 95.611 42.6989 84.3423Z" fill="white"/>
<path d="M52.7181 55.4941C48.0765 55.4941 44.2933 59.2882 44.2933 63.9433C44.2933 68.5984 48.0765 72.3924 52.7181 72.3924C57.3598 72.3924 61.1429 68.5984 61.1429 63.9433C61.1429 59.2882 57.3692 55.4941 52.7181 55.4941ZM52.7181 69.2796C49.7841 69.2796 47.3972 66.8858 47.3972 63.9433C47.3972 61.0007 49.7841 58.607 52.7181 58.607C55.6522 58.607 58.0391 61.0007 58.0391 63.9433C58.0391 66.8858 55.6616 69.2796 52.7181 69.2796Z" fill="white"/>
<path d="M80.2286 63.9434H78.6814C78.6814 66.886 76.2945 69.2797 73.3604 69.2797C70.4264 69.2797 68.0395 66.886 68.0395 63.9434H66.4923H64.9451C64.9451 68.5985 68.7282 72.3926 73.3699 72.3926C78.0115 72.3926 81.7947 68.5985 81.7947 63.9434H80.2286Z" fill="white"/>
</svg>
