<svg width="33" height="32" viewBox="0 0 33 32" fill="none" xmlns="http://www.w3.org/2000/svg">
<path d="M26.6132 6.09284C18.4892 -2.03095 14.9232 -2.03095 6.79918 6.09284C-1.32482 14.2166 -1.32482 17.7825 6.79918 25.9097C14.9232 34.0301 18.4892 34.0301 26.6132 25.9097C34.7372 17.7825 34.7372 14.2166 26.6132 6.09284ZM9.48037 23.2252C5.48875 19.2337 5.48875 12.7655 9.48037 8.77396C13.472 4.78245 19.9404 4.78245 23.932 8.77396C27.9236 12.7655 27.9236 19.2337 23.932 23.2252C19.9404 27.2167 13.472 27.2167 9.48037 23.2252Z" fill="black"/>
<path d="M13.0398 13.0068C11.3908 13.0068 10.0469 14.3507 10.0469 15.9996C10.0469 17.6485 11.3908 18.9924 13.0398 18.9924C14.6887 18.9924 16.0326 17.6485 16.0326 15.9996C16.0326 14.3507 14.692 13.0068 13.0398 13.0068ZM13.0398 17.8898C11.9974 17.8898 11.1495 17.0419 11.1495 15.9996C11.1495 14.9573 11.9974 14.1094 13.0398 14.1094C14.0821 14.1094 14.93 14.9573 14.93 15.9996C14.93 17.0419 14.0854 17.8898 13.0398 17.8898Z" fill="black"/>
<path d="M22.8126 15.9995H22.2629C22.2629 17.0418 21.415 17.8897 20.3727 17.8897C19.3304 17.8897 18.4825 17.0418 18.4825 15.9995H17.9328H17.3832C17.3832 17.6484 18.7271 18.9923 20.3761 18.9923C22.025 18.9923 23.3689 17.6484 23.3689 15.9995H22.8126Z" fill="black"/>
</svg>
