<svg width="117" height="35" viewBox="0 0 117 35" fill="none" xmlns="http://www.w3.org/2000/svg">
<rect width="117" height="35" fill="#1E1E1E"/>
<rect width="1400" height="3455" transform="translate(-120 -64)" fill="black"/>
<path d="M6.79889 28.3426C6.79509 28.3389 6.79509 28.3389 6.79129 28.3351C6.78749 28.3314 6.78749 28.3314 6.78369 28.3277L6.79889 28.3426Z" fill="white"/>
<path d="M28.868 28.3426L28.8832 28.3277C28.8794 28.3314 28.8794 28.3314 28.8756 28.3351C28.8718 28.3389 28.8718 28.3426 28.868 28.3426Z" fill="white"/>
<path d="M6.78369 6.67161C6.78749 6.66789 6.78749 6.66789 6.79129 6.66417C6.79509 6.66046 6.79509 6.66046 6.79889 6.65674L6.78369 6.67161Z" fill="white"/>
<path d="M28.868 6.65674C28.8718 6.66046 28.8718 6.66046 28.8756 6.66417C28.8794 6.66789 28.8794 6.66789 28.8832 6.67161L28.868 6.65674Z" fill="white"/>
<path d="M28.8755 6.66405C19.8206 -2.22135 15.846 -2.22135 6.79116 6.66405C-2.26372 15.5494 -2.26372 19.4496 6.79116 28.3387C15.846 37.2204 19.8206 37.2204 28.8755 28.3387C37.9304 19.4496 37.9304 15.5494 28.8755 6.66405ZM9.77957 25.4026C5.33058 21.0368 5.33058 13.9622 9.77957 9.59652C14.2286 5.2308 21.4381 5.2308 25.8871 9.59652C30.3361 13.9622 30.3361 21.0368 25.8871 25.4026C21.4381 29.7683 14.2286 29.7683 9.77957 25.4026Z" fill="white"/>
<path d="M13.7467 14.2262C11.9088 14.2262 10.4109 15.6961 10.4109 17.4996C10.4109 19.303 11.9088 20.7729 13.7467 20.7729C15.5846 20.7729 17.0825 19.303 17.0825 17.4996C17.0825 15.6961 15.5883 14.2262 13.7467 14.2262ZM13.7467 19.567C12.585 19.567 11.6399 18.6396 11.6399 17.4996C11.6399 16.3596 12.585 15.4322 13.7467 15.4322C14.9084 15.4322 15.8535 16.3596 15.8535 17.4996C15.8535 18.6396 14.9122 19.567 13.7467 19.567Z" fill="white"/>
<path d="M24.6394 17.4996H24.0268C24.0268 18.6396 23.0817 19.567 21.92 19.567C20.7582 19.567 19.8131 18.6396 19.8131 17.4996H19.2005H18.5879C18.5879 19.303 20.0858 20.7729 21.9237 20.7729C23.7616 20.7729 25.2595 19.303 25.2595 17.4996H24.6394Z" fill="white"/>
<path d="M45.2781 12.551C46.4249 12.551 47.4709 12.8406 48.416 13.4161C49.361 13.9916 50.1119 14.765 50.6722 15.7291C51.2325 16.6968 51.5127 17.7672 51.5127 18.9475C51.5127 20.1278 51.2325 21.1982 50.6722 22.1659C50.1119 23.1336 49.361 23.9034 48.416 24.4789C47.4709 25.0544 46.4249 25.3439 45.2781 25.3439C44.1313 25.3439 43.0816 25.0544 42.1366 24.4789C41.1877 23.9034 40.4332 23.1336 39.8728 22.1659C39.3125 21.1982 39.0323 20.1278 39.0323 18.9475C39.0323 17.7672 39.3125 16.6968 39.8728 15.7291C40.4332 14.7614 41.1877 13.9916 42.1366 13.4161C43.0854 12.8369 44.1313 12.551 45.2781 12.551ZM45.2781 22.5984C46.2269 22.5984 47.0376 22.2429 47.7174 21.5281C48.3935 20.8133 48.7335 19.9519 48.7335 18.9438C48.7335 17.9358 48.3935 17.0707 47.7174 16.3596C47.0413 15.6448 46.2269 15.2892 45.2781 15.2892C44.3218 15.2892 43.5038 15.6448 42.8276 16.3596C42.1515 17.0744 41.8116 17.9358 41.8116 18.9438C41.8116 19.9519 42.1515 20.8169 42.8276 21.5281C43.5038 22.2429 44.3218 22.5984 45.2781 22.5984Z" fill="white"/>
<path d="M64.6655 25.3256H61.8601V18.6909H61.8452V18.8118C61.8452 17.8734 61.5351 17.0707 60.9113 16.4072C60.2874 15.7437 59.5329 15.4101 58.6476 15.4101H56.3166V25.3292H53.5112V12.6573H56.5743V12.6719H58.3749L58.6476 12.6573C58.7484 12.6573 58.8418 12.661 58.9315 12.6719H58.9464L59.2714 12.6976C60.7992 12.8846 62.0581 13.5297 63.0592 14.6404C64.0566 15.7474 64.587 17.1 64.6505 18.6945C64.658 18.7312 64.6655 18.7715 64.6655 18.8155V25.3256Z" fill="white"/>
<path d="M70.6685 7.82971V25.2999H67.8108V7.82971H70.6685Z" fill="white"/>
<path d="M76.7087 10.0107C76.7087 10.3919 76.5705 10.7182 76.294 10.9894C76.0176 11.2607 75.6852 11.3963 75.2967 11.3963C74.9082 11.3963 74.5757 11.2607 74.2993 10.9894C74.0229 10.7182 73.8846 10.3919 73.8846 10.0107C73.8846 9.6295 74.0229 9.30326 74.2993 9.032C74.5757 8.76075 74.9082 8.62512 75.2967 8.62512C75.6852 8.62512 76.0176 8.76075 76.294 9.032C76.5705 9.30326 76.7087 9.6295 76.7087 10.0107ZM75.801 12.617L76.7087 12.6316V25.3146H73.8921V12.617H75.801Z" fill="white"/>
<path d="M91.5984 12.6573L86.2454 25.3549H83.6044L78.2402 12.6573H81.0307L84.9193 21.8689L88.8192 12.6573H91.5984Z" fill="white"/>
<path d="M93.5746 12.6573H98.0311C99.0882 12.6573 100.052 12.9249 100.922 13.4564C101.793 13.9879 102.488 14.699 103.011 15.5898C103.53 16.4805 103.791 17.4702 103.791 18.5626C103.791 19.6439 103.53 20.63 103.011 21.5207C102.491 22.4114 101.796 23.1226 100.922 23.6541C100.052 24.1856 99.0882 24.4532 98.0311 24.4532H95.5096V29.1341H92.8275V12.6756H93.5709V12.6573H93.5746ZM95.5133 21.8139H98.0348C98.8828 21.8139 99.6075 21.495 100.209 20.8572C100.81 20.2194 101.109 19.4533 101.109 18.5589C101.109 17.6535 100.81 16.8837 100.209 16.2459C99.6075 15.6081 98.8828 15.2892 98.0348 15.2892C97.9788 15.2892 97.9265 15.2928 97.8705 15.3038H95.5133V21.8139Z" fill="white"/>
<path d="M117 25.3256H114.195V18.6909H114.18V18.8118C114.18 17.8734 113.87 17.0707 113.246 16.4072C112.622 15.7437 111.867 15.4101 110.982 15.4101H108.651V25.3292H105.846V12.6573H108.909V12.6719H110.709L110.982 12.6573C111.083 12.6573 111.176 12.661 111.266 12.6719H111.281L111.606 12.6976C113.134 12.8846 114.393 13.5297 115.394 14.6404C116.391 15.7474 116.921 17.1 116.985 18.6945C116.992 18.7312 117 18.7715 117 18.8155V25.3256Z" fill="white"/>
</svg>
