<svg width="73" height="58" viewBox="0 0 73 58" fill="none" xmlns="http://www.w3.org/2000/svg">
<path d="M13.1503 57.6734V53.8665C13.1721 53.5464 13.127 53.2251 13.0178 52.9242C12.9086 52.6232 12.738 52.3496 12.5172 52.1214C12.2964 51.8933 12.0306 51.7159 11.7375 51.6011C11.4444 51.4863 11.1308 51.4367 10.8174 51.4556C10.4074 51.4283 9.99763 51.514 9.63096 51.7037C9.26428 51.8934 8.95408 52.1802 8.73269 52.5342C8.53092 52.1907 8.24232 51.9093 7.89727 51.7195C7.55221 51.5297 7.16349 51.4385 6.77204 51.4556C6.43081 51.4381 6.09101 51.512 5.7863 51.67C5.48159 51.828 5.22252 52.0647 5.03475 52.3566V51.6079H3.74414V57.6734H5.0471V54.3107C5.01892 54.1032 5.03605 53.8919 5.09722 53.6919C5.1584 53.492 5.26212 53.3084 5.40093 53.1543C5.53973 53.0003 5.71019 52.8795 5.90004 52.8008C6.0899 52.7221 6.29446 52.6874 6.499 52.6992C7.35522 52.6992 7.78961 53.2702 7.78961 54.298V57.6734H9.09256V54.3107C9.06651 54.1035 9.08511 53.8931 9.14707 53.6941C9.20902 53.4952 9.31283 53.3125 9.4512 53.1589C9.58957 53.0053 9.75914 52.8846 9.94801 52.8051C10.1369 52.7257 10.3404 52.6896 10.5444 52.6992C11.4254 52.6992 11.8473 53.2702 11.8473 54.298V57.6734H13.1503ZM32.4342 51.6079H30.3247V49.768H29.0217V51.6079H27.818V52.8134H29.0217V55.5796C29.0217 56.9881 29.5553 57.8257 31.0816 57.8257C31.6518 57.8274 32.2109 57.6647 32.6948 57.3561L32.3225 56.2268C31.9765 56.4379 31.5837 56.5558 31.1809 56.5694C30.5356 56.5694 30.3247 56.1632 30.3247 55.5543V52.8134H32.4342V51.6079ZM43.4412 51.4556C43.1265 51.4461 42.8152 51.5236 42.54 51.68C42.2648 51.8363 42.036 52.0657 41.8776 52.3439V51.6079H40.5994V57.6734H41.89V54.2726C41.89 53.2702 42.3119 52.7118 43.1558 52.7118C43.4318 52.708 43.7059 52.7597 43.9623 52.8641L44.3594 51.6206C44.0647 51.5127 43.7542 51.4569 43.4412 51.4556ZM26.8005 52.0901C26.07 51.6459 25.23 51.4257 24.3807 51.4556C22.8791 51.4556 21.9113 52.1916 21.9113 53.397C21.9113 54.3869 22.631 54.996 23.9587 55.1863L24.5668 55.275C25.274 55.3764 25.6091 55.5669 25.6091 55.9095C25.6091 56.379 25.1375 56.6455 24.2565 56.6455C23.5478 56.6664 22.8529 56.4429 22.2835 56.011L21.6755 57.0388C22.4272 57.5757 23.3276 57.8515 24.2441 57.8257C25.9566 57.8257 26.9493 57.0008 26.9493 55.8461C26.9493 54.7802 26.1676 54.2218 24.877 54.0314L24.269 53.9426C23.7105 53.8665 23.2639 53.7524 23.2639 53.3464C23.2639 52.9022 23.6856 52.6357 24.3931 52.6357C25.0426 52.6457 25.6789 52.8248 26.242 53.156L26.8005 52.0901ZM61.3724 51.4556C61.0577 51.4461 60.7464 51.5236 60.4712 51.68C60.196 51.8363 59.9672 52.0657 59.8089 52.3439V51.6079H58.5307V57.6734H59.8212V54.2726C59.8212 53.2702 60.2432 52.7118 61.0869 52.7118C61.363 52.708 61.6371 52.7597 61.8937 52.8641L62.2907 51.6206C61.996 51.5127 61.6854 51.4569 61.3724 51.4556ZM44.744 54.6405C44.7269 55.0678 44.7974 55.494 44.9511 55.8918C45.1047 56.2896 45.338 56.6501 45.6361 56.9501C45.9341 57.2501 46.2903 57.483 46.6817 57.6338C47.073 57.7846 47.4909 57.8499 47.9085 57.8257C48.6833 57.8655 49.4446 57.6074 50.0428 57.1023L49.4224 56.0364C48.9762 56.3842 48.4322 56.5755 47.8712 56.582C47.3876 56.552 46.9334 56.3344 46.6013 55.9736C46.2693 55.6128 46.0844 55.136 46.0844 54.6406C46.0844 54.1451 46.2693 53.6684 46.6013 53.3076C46.9334 52.9468 47.3876 52.7292 47.8712 52.6992C48.4322 52.7057 48.9762 52.897 49.4224 53.2449L50.0428 52.1789C49.4446 51.6738 48.6833 51.4158 47.9085 51.4556C47.491 51.4313 47.0731 51.4967 46.6818 51.6475C46.2904 51.7982 45.9342 52.0311 45.6362 52.3311C45.3381 52.6311 45.1048 52.9915 44.9511 53.3893C44.7975 53.787 44.7269 54.2132 44.744 54.6405ZM56.8306 54.6405V51.6079H55.5401V52.3439C55.3198 52.0536 55.0347 51.8215 54.7087 51.6669C54.3827 51.5124 54.0253 51.4399 53.6663 51.4556C52.8666 51.4957 52.1127 51.8488 51.5606 52.4417C51.0085 53.0346 50.7005 53.8219 50.7005 54.6406C50.7005 55.4594 51.0085 56.2467 51.5606 56.8396C52.1127 57.4325 52.8666 57.7856 53.6663 57.8257C54.0253 57.8413 54.3828 57.7689 54.7088 57.6143C55.0347 57.4598 55.3198 57.2276 55.5401 56.9373V57.6734H56.8306V54.6405ZM52.0282 54.6405C52.0483 54.2826 52.1703 53.9385 52.3793 53.6506C52.5883 53.3628 52.8751 53.1438 53.2043 53.0206C53.5336 52.8974 53.8909 52.8755 54.2322 52.9575C54.5735 53.0395 54.8839 53.2218 55.125 53.482C55.3662 53.7422 55.5276 54.0689 55.5894 54.4218C55.6511 54.7747 55.6106 55.1384 55.4726 55.468C55.3347 55.7976 55.1055 56.0787 54.8132 56.2767C54.5209 56.4746 54.1783 56.5808 53.8277 56.582C53.5819 56.5854 53.3382 56.5367 53.1118 56.439C52.8853 56.3413 52.6812 56.1967 52.5121 56.0143C52.343 55.8319 52.2128 55.6157 52.1295 55.3792C52.0462 55.1428 52.0117 54.8912 52.0282 54.6405ZM36.4548 51.4556C35.65 51.499 34.8929 51.8593 34.3423 52.4611C33.7917 53.0629 33.4904 53.8594 33.5017 54.6834C33.5129 55.5074 33.8358 56.295 34.4026 56.8808C34.9694 57.4667 35.736 57.8053 36.5417 57.8257C37.427 57.8574 38.2929 57.5548 38.9739 56.9754L38.341 55.9984C37.8509 56.4 37.244 56.6232 36.6161 56.6328C36.1897 56.6695 35.766 56.535 35.4348 56.2579C35.1036 55.9808 34.8909 55.5828 34.8416 55.1481H39.2469C39.2593 54.9832 39.2717 54.8182 39.2717 54.6405C39.2593 52.7499 38.1176 51.4556 36.4548 51.4556ZM36.4299 52.6357C36.8198 52.6279 37.1967 52.7785 37.4781 53.0544C37.7596 53.3303 37.9226 53.7091 37.9315 54.1077H34.854C34.8767 53.7005 35.0542 53.3185 35.3487 53.0434C35.6432 52.7683 36.0313 52.622 36.4299 52.6357ZM68.8055 54.6405V49.1716H67.5149V52.3439C67.2946 52.0536 67.0096 51.8215 66.6836 51.6669C66.3576 51.5124 66.0002 51.4399 65.6412 51.4556C64.8415 51.4957 64.0875 51.8487 63.5354 52.4417C62.9832 53.0346 62.6753 53.8219 62.6753 54.6406C62.6753 55.4594 62.9832 56.2467 63.5354 56.8397C64.0875 57.4326 64.8415 57.7856 65.6412 57.8257C66.0002 57.8413 66.3576 57.7689 66.6836 57.6143C67.0096 57.4598 67.2946 57.2276 67.5149 56.9373V57.6734H68.8055V54.6405ZM70.9568 56.7943C71.0369 56.7938 71.1164 56.8099 71.1903 56.8417C71.2613 56.872 71.326 56.9159 71.381 56.9709C71.4356 57.0259 71.4792 57.0911 71.5095 57.163C71.5406 57.2369 71.5566 57.3165 71.5566 57.3969C71.5566 57.4773 71.5406 57.5569 71.5095 57.6307C71.479 57.7023 71.4354 57.7673 71.381 57.8221C71.3259 57.8772 71.2612 57.9212 71.1903 57.952C71.1165 57.9843 71.037 58.0007 70.9568 58.0001C70.8387 58.0013 70.7229 57.9669 70.6239 57.9013C70.5248 57.8356 70.4469 57.7415 70.3998 57.6307C70.3689 57.5568 70.3529 57.4773 70.3529 57.3969C70.3529 57.3165 70.3689 57.2369 70.3998 57.163C70.4301 57.0912 70.4735 57.026 70.5278 56.9709C70.5827 56.9154 70.6477 56.8715 70.7192 56.8417C70.7945 56.8098 70.8753 56.7937 70.9568 56.7943ZM70.9568 57.8671C71.018 57.8676 71.0785 57.855 71.1347 57.8302C71.1885 57.8062 71.2375 57.7722 71.2791 57.7297C71.3647 57.6412 71.4128 57.5217 71.4128 57.3972C71.4128 57.2726 71.3647 57.1532 71.2791 57.0647C71.2376 57.0223 71.1886 56.9885 71.1347 56.965C71.0784 56.9406 71.0179 56.9283 70.9568 56.9288C70.8946 56.9283 70.8329 56.9406 70.7755 56.965C70.7207 56.9881 70.6709 57.022 70.6289 57.0647C70.5431 57.1531 70.495 57.2726 70.495 57.3972C70.495 57.5217 70.5431 57.6412 70.6289 57.7297C70.671 57.7725 70.7208 57.8066 70.7755 57.8302C70.8328 57.855 70.8945 57.8675 70.9568 57.8671ZM70.9915 57.1149C71.0495 57.1111 71.1071 57.1281 71.1542 57.163C71.1729 57.1788 71.1878 57.1989 71.1977 57.2215C71.2076 57.2442 71.2122 57.269 71.2112 57.2938C71.2118 57.3151 71.2081 57.3362 71.2003 57.3559C71.1924 57.3756 71.1807 57.3934 71.1657 57.4082C71.1298 57.4408 71.0842 57.4603 71.0363 57.4637L71.2155 57.675H71.0754L70.9092 57.4651H70.8557V57.675H70.7387V57.1149H70.9915ZM70.8557 57.2199V57.3692H70.9901C71.016 57.3705 71.0416 57.364 71.0639 57.3506C71.0729 57.3444 71.0802 57.3359 71.085 57.326C71.0898 57.316 71.0919 57.3049 71.0912 57.2938C71.0918 57.2829 71.0896 57.272 71.0848 57.2623C71.08 57.2525 71.0728 57.2443 71.0639 57.2383C71.0415 57.225 71.0159 57.2186 70.9901 57.2199H70.8557ZM64.0032 54.6405C64.0232 54.2826 64.1453 53.9385 64.3543 53.6507C64.5633 53.3629 64.8501 53.1439 65.1793 53.0207C65.5085 52.8976 65.8658 52.8757 66.2071 52.9577C66.5484 53.0397 66.8587 53.222 67.0999 53.4822C67.341 53.7425 67.5024 54.0691 67.5642 54.422C67.6259 54.7749 67.5853 55.1386 67.4474 55.4681C67.3094 55.7977 67.0802 56.0788 66.7879 56.2767C66.4956 56.4746 66.153 56.5808 65.8025 56.582C65.5567 56.5854 65.313 56.5367 65.0866 56.439C64.8602 56.3413 64.656 56.1966 64.487 56.0142C64.3179 55.8318 64.1877 55.6156 64.1044 55.3792C64.0211 55.1427 63.9867 54.8912 64.0032 54.6405ZM20.4221 54.6405V51.6079H19.1315V52.3439C18.9112 52.0536 18.6262 51.8215 18.3002 51.6669C17.9742 51.5124 17.6167 51.4399 17.2577 51.4556C16.4581 51.4957 15.7041 51.8488 15.152 52.4417C14.5999 53.0346 14.292 53.8219 14.292 54.6406C14.292 55.4594 14.5999 56.2467 15.152 56.8396C15.7041 57.4325 16.4581 57.7856 17.2577 57.8257C17.6167 57.8413 17.9742 57.7689 18.3002 57.6143C18.6262 57.4598 18.9112 57.2276 19.1315 56.9373V57.6734H20.4221V54.6405ZM15.6198 54.6405C15.6399 54.2826 15.7619 53.9385 15.9709 53.6507C16.1799 53.3629 16.4667 53.1439 16.7959 53.0207C17.1252 52.8976 17.4825 52.8757 17.8237 52.9577C18.165 53.0397 18.4754 53.222 18.7165 53.4822C18.9576 53.7425 19.119 54.0692 19.1808 54.422C19.2425 54.7749 19.2019 55.1386 19.064 55.4681C18.926 55.7977 18.6968 56.0788 18.4045 56.2767C18.1122 56.4747 17.7697 56.5808 17.4191 56.582C17.1733 56.5854 16.9296 56.5367 16.7032 56.439C16.4768 56.3413 16.2726 56.1966 16.1036 56.0142C15.9345 55.8318 15.8043 55.6156 15.721 55.3792C15.6378 55.1427 15.6033 54.8912 15.6198 54.6405Z" fill="#3A3A3A"/>
<path d="M45.9186 5.38281H26.3715V41.3024H45.9186V5.38281Z" fill="#3A3A3A"/>
<path d="M27.6124 23.3438C27.6093 19.8845 28.3759 16.4698 29.8542 13.3582C31.3324 10.2467 33.4836 7.51977 36.1448 5.38401C32.8493 2.73517 28.8914 1.08789 24.7236 0.630465C20.5558 0.173036 16.3463 0.923911 12.576 2.79726C8.80585 4.67062 5.62713 7.59086 3.40324 11.2242C1.17935 14.8576 0 19.0574 0 23.3438C0 27.6301 1.17935 31.83 3.40324 35.4634C5.62713 39.0967 8.80585 42.017 12.576 43.8903C16.3463 45.7637 20.5558 46.5146 24.7236 46.0571C28.8914 45.5997 32.8493 43.9524 36.1448 41.3036C33.4836 39.1678 31.3325 36.4409 29.8542 33.3294C28.3759 30.2178 27.6093 26.8031 27.6124 23.3438Z" fill="#161616"/>
<path d="M72.2887 23.3438C72.2889 27.6301 71.1097 31.8299 68.8859 35.4633C66.6621 39.0967 63.4835 42.0169 59.7134 43.8903C55.9433 45.7637 51.7338 46.5145 47.566 46.0571C43.3983 45.5997 39.4405 43.9524 36.145 41.3036C38.8039 39.1657 40.9534 36.4383 42.4314 33.3272C43.9094 30.2162 44.6774 26.8025 44.6774 23.3438C44.6774 19.885 43.9094 16.4714 42.4314 13.3603C40.9534 10.2493 38.8039 7.52192 36.145 5.38401C39.4405 2.73516 43.3983 1.08789 47.566 0.630461C51.7338 0.173037 55.9433 0.923926 59.7134 2.7973C63.4835 4.67067 66.6621 7.59093 68.8859 11.2243C71.1097 14.8577 72.2889 19.0575 72.2887 23.3438Z" fill="#161616"/>
<path d="M70.1575 37.4982V36.7631H70.4475V36.6133H69.709V36.7631H69.9991V37.4982H70.1575ZM71.5913 37.4982V36.6118H71.3649L71.1045 37.2215L70.8441 36.6118H70.6176V37.4982H70.7774V36.8296L71.0216 37.4061H71.1874L71.4315 36.8281V37.4982H71.5913Z" fill="#161616"/>
</svg>
