<svg width="73" height="22" viewBox="0 0 73 22" fill="none" xmlns="http://www.w3.org/2000/svg">
<path d="M6.83198 0.6866C6.79504 0.687249 6.76082 0.68785 6.72957 0.688043L0.0447998 0.688108V21.0365H6.50444V9.03599H6.9376L10.5385 21.0365H15.3986L18.9995 9.04487H19.4327V21.0365H25.8923V0.688108L19.5545 0.688099C19.5054 0.688099 19.4518 0.68734 19.3944 0.686526C18.4917 0.673737 16.6303 0.647363 15.858 3.33764C15.378 5.00967 14.4961 8.13452 13.2123 12.7122H12.7248C11.5277 8.37017 10.6554 5.24531 10.1077 3.33764C9.33406 0.642649 7.55851 0.673838 6.83198 0.6866Z" fill="#161616"/>
<path d="M35.1682 12.6887V0.688108H28.5737V21.0366H34.8247C34.8247 21.0366 36.7228 20.8589 37.5731 18.904L41.8674 9.03599H42.3827V21.0366H48.9772V0.688108H42.7262C42.7262 0.688108 40.914 0.856938 40.0638 2.8207L35.6836 12.6887H35.1682Z" fill="#161616"/>
<path d="M64.7641 14.9751C67.9623 14.9751 70.8511 13.0483 71.7709 10.3578H51.5773V21.0366H57.8484V14.9751H64.7641Z" fill="#161616"/>
<path d="M51.2485 0.688102H65.0665C70.3832 0.688102 72.9532 5.33138 72.2067 9.09657H59.2702C55.3572 9.09657 51.5773 5.21837 51.2485 0.688102Z" fill="#161616"/>
</svg>
