<svg width="38" height="38" viewBox="0 0 38 38" fill="none" xmlns="http://www.w3.org/2000/svg">
<path d="M1.2667 36.7333L0.371036 35.8375C0.00877078 36.1998 -0.0995995 36.7447 0.0964561 37.218C0.292513 37.6914 0.754385 38 1.2667 38V36.7333ZM36.7334 36.7333V38C37.2456 38 37.7074 37.6914 37.9035 37.218C38.0996 36.7447 37.9914 36.1998 37.6292 35.8375L36.7334 36.7333ZM8.8667 26.6L8.30023 25.4671C7.93606 25.6492 7.68161 25.9953 7.6164 26.3971C7.55117 26.7991 7.68313 27.2077 7.97104 27.4958L8.8667 26.6ZM29.1334 26.6L30.0292 27.4958C30.3169 27.2077 30.4489 26.7991 30.3836 26.3971C30.3185 25.9953 30.0641 25.6492 29.6998 25.4671L29.1334 26.6ZM2.16237 37.6291L3.82519 35.9662L2.03387 34.1749L0.371036 35.8375L2.16237 37.6291ZM5.0667 32.9688V16.4667H2.53337V32.9688H5.0667ZM32.9334 16.4667V32.9688H35.4667V16.4667H32.9334ZM34.175 35.9662L35.8376 37.6291L37.6292 35.8375L35.9663 34.1749L34.175 35.9662ZM36.7334 35.4667H1.2667V38H36.7334V35.4667ZM32.9334 32.9688C32.9334 34.0931 33.38 35.1713 34.175 35.9662L35.9663 34.1749C35.6463 33.855 35.4667 33.4213 35.4667 32.9688H32.9334ZM19 2.53333C26.6953 2.53333 32.9334 8.77149 32.9334 16.4667H35.4667C35.4667 7.37238 28.0944 0 19 0V2.53333ZM5.0667 16.4667C5.0667 8.77149 11.3049 2.53333 19 2.53333V0C9.90575 0 2.53337 7.37238 2.53337 16.4667H5.0667ZM3.82519 35.9662C4.62013 35.1713 5.0667 34.0931 5.0667 32.9688H2.53337C2.53337 33.4213 2.35369 33.855 2.03387 34.1749L3.82519 35.9662ZM9.43318 27.7329L11.6359 26.6317L10.503 24.3657L8.30023 25.4671L9.43318 27.7329ZM26.3642 26.6317L28.5669 27.7329L29.6998 25.4671L27.4971 24.3657L26.3642 26.6317ZM28.2376 25.7042L26.7538 27.1882L28.5451 28.9796L30.0292 27.4958L28.2376 25.7042ZM11.2464 27.1882L9.76236 25.7042L7.97104 27.4958L9.45502 28.9796L11.2464 27.1882ZM19 30.4C16.0918 30.4 13.3028 29.2448 11.2464 27.1882L9.45502 28.9796C11.9865 31.5111 15.42 32.9333 19 32.9333V30.4ZM26.7538 27.1882C24.6973 29.2448 21.9082 30.4 19 30.4V32.9333C22.5801 32.9333 26.0136 31.5111 28.5451 28.9796L26.7538 27.1882ZM11.6359 26.6317C16.2717 24.3137 21.7283 24.3137 26.3642 26.6317L27.4971 24.3657C22.1481 21.6912 15.852 21.6912 10.503 24.3657L11.6359 26.6317ZM17.7334 16.4667V19H20.2667V16.4667H17.7334ZM10.1334 19V16.4667H7.60004V19H10.1334ZM13.9334 22.8C11.8347 22.8 10.1334 21.0987 10.1334 19H7.60004C7.60004 22.4978 10.4356 25.3333 13.9334 25.3333V22.8ZM17.7334 19C17.7334 21.0987 16.0321 22.8 13.9334 22.8V25.3333C17.4312 25.3333 20.2667 22.4978 20.2667 19H17.7334ZM13.9334 12.6667C16.0321 12.6667 17.7334 14.368 17.7334 16.4667H20.2667C20.2667 12.9689 17.4312 10.1333 13.9334 10.1333V12.6667ZM13.9334 10.1333C10.4356 10.1333 7.60004 12.9689 7.60004 16.4667H10.1334C10.1334 14.368 11.8347 12.6667 13.9334 12.6667V10.1333ZM27.8667 16.4667V19H30.4V16.4667H27.8667ZM24.0667 22.8C21.968 22.8 20.2667 21.0987 20.2667 19H17.7334C17.7334 22.4978 20.5689 25.3333 24.0667 25.3333V22.8ZM27.8667 19C27.8667 21.0987 26.1653 22.8 24.0667 22.8V25.3333C27.5645 25.3333 30.4 22.4978 30.4 19H27.8667ZM24.0667 12.6667C26.1653 12.6667 27.8667 14.368 27.8667 16.4667H30.4C30.4 12.9689 27.5645 10.1333 24.0667 10.1333V12.6667ZM24.0667 10.1333C20.5689 10.1333 17.7334 12.9689 17.7334 16.4667H20.2667C20.2667 14.368 21.968 12.6667 24.0667 12.6667V10.1333ZM12.6667 17.7333V20.2667H15.2V17.7333H12.6667ZM22.8 17.7333V20.2667H25.3334V17.7333H22.8Z" fill="#70C3A7"/>
</svg>
