<svg width="52" height="53" viewBox="0 0 52 53" fill="none" xmlns="http://www.w3.org/2000/svg">
<path d="M34.2263 22.0855C34.3686 23.4845 34.45 24.8386 34.45 26.1058C34.45 28.478 34.1644 31.1566 33.7278 33.865C31.0304 34.3034 28.3626 34.5902 26 34.5902C23.6481 34.5902 20.9811 34.3043 18.2721 33.8641C17.8355 31.156 17.55 28.4778 17.55 26.1058C17.55 24.839 17.6314 23.4849 17.7738 22.0855C20.617 22.5425 23.4532 22.8426 26.0001 22.8426C28.5469 22.8426 31.3832 22.5425 34.2263 22.0855Z" fill="#70C3A7"/>
<path d="M38.072 21.3804C38.2478 23.0176 38.35 24.6116 38.35 26.1058C38.35 28.2861 38.1327 30.6779 37.7865 33.1053C42.6956 32.0768 47.2334 30.7627 49.6641 30.0147C50.4498 29.773 50.7583 29.6768 51.1725 29.5105C51.3794 29.4274 51.5692 29.3428 51.8164 29.2242C51.9376 28.2017 52 27.1611 52 26.1058C52 23.3162 51.5642 20.6289 50.7574 18.1086L50.5471 18.175C48.0055 18.9514 43.247 20.324 38.072 21.3804Z" fill="#70C3A7"/>
<path d="M49.2803 14.4688C46.7252 15.2463 42.2908 16.5098 37.5387 17.4934C36.4441 10.8134 34.5254 4.15083 33.6024 1.13369C40.4665 3.23778 46.1248 8.11683 49.2803 14.4688Z" fill="#70C3A7"/>
<path d="M33.7051 18.2052C31.0151 18.6415 28.3557 18.9267 26.0001 18.9267C23.6445 18.9267 20.9851 18.6416 18.2952 18.2052C19.326 11.8845 21.166 5.42766 22.1069 2.34537C22.3477 1.55655 22.4434 1.24672 22.6091 0.830854C22.6918 0.623115 22.7761 0.432561 22.8942 0.184332C23.9126 0.0626163 24.949 0 26 0C27.0979 0 28.1799 0.0683265 29.242 0.200976C29.2646 0.287507 29.2854 0.364953 29.306 0.43822C29.3668 0.654711 29.4621 0.95896 29.6221 1.46948L29.6389 1.52311C30.441 4.08301 32.5665 11.223 33.7051 18.2052Z" fill="#70C3A7"/>
<path d="M14.461 17.4934C15.5507 10.8428 17.4568 4.21611 18.3781 1.1979L18.3977 1.13366C11.5335 3.23774 5.87526 8.11679 2.71971 14.4687C5.27474 15.2462 9.70903 16.5097 14.461 17.4934Z" fill="#70C3A7"/>
<path d="M1.24265 18.1086C0.435755 20.6289 0 23.3162 0 26.1058C0 27.197 0.0666853 28.2727 0.196187 29.3288L0.605943 29.4659L0.609206 29.467L0.613223 29.4683L0.616055 29.4693C0.747937 29.5131 4.61328 30.7948 9.70364 32.0665C11.14 32.4253 12.6609 32.78 14.2135 33.105C13.8673 30.6776 13.65 28.286 13.65 26.1058C13.65 24.6112 13.7521 23.0171 13.9279 21.3804C8.75155 20.3236 3.99207 18.9506 1.45096 18.1743L1.4333 18.1689L1.24265 18.1086Z" fill="#70C3A7"/>
<path d="M26 38.506C28.1714 38.506 30.5536 38.2878 32.9712 37.9402C31.9468 42.8693 30.6381 47.4255 29.8931 49.8661C29.6524 50.655 29.5566 50.9648 29.3909 51.3807C29.3082 51.5884 29.2239 51.779 29.1058 52.0272C28.0874 52.149 27.051 52.2116 26 52.2116C24.949 52.2116 23.9126 52.1489 22.8942 52.0272C22.7761 51.779 22.6918 51.5885 22.6091 51.3807C22.4434 50.9649 22.3477 50.655 22.1069 49.8662C21.362 47.4258 20.0533 42.8699 19.029 37.9411C21.4387 38.2875 23.8211 38.506 26 38.506Z" fill="#70C3A7"/>
<path d="M8.76201 35.8665C5.54303 35.0624 2.80144 34.2546 1.12906 33.739C3.64639 42.0183 10.1519 48.5503 18.3977 51.0779L18.3781 51.0137C17.5736 48.3783 16.0184 42.9917 14.9114 37.2402C12.7586 36.8222 10.6655 36.342 8.76201 35.8665Z" fill="#70C3A7"/>
<path d="M50.8069 33.7587C48.1821 34.5665 42.8171 36.1281 37.0887 37.2396C35.9817 42.9912 34.4264 48.3781 33.6219 51.0136L33.6023 51.0779C41.8481 48.5503 48.3536 42.0183 50.8709 33.739L50.8069 33.7587Z" fill="#70C3A7"/>
<path d="M0.273133 29.395C0.363136 29.4068 0.436491 29.4191 0.460835 29.4247C0.482164 29.43 0.515564 29.4388 0.527684 29.4422L0.554443 29.4499L0.568849 29.4542L0.584009 29.4589L0.596709 29.463C0.589576 29.4607 0.445114 29.4244 0.273133 29.395Z" fill="#70C3A7"/>
</svg>
