<svg width="112" height="52" viewBox="0 0 112 52" fill="none" xmlns="http://www.w3.org/2000/svg">
<path d="M54.8362 29.7814H56.5867V33.7929H57.8511L60.1208 29.7814H62.0342L59.3103 34.4897V34.5224L62.1965 39.6602H60.2183L57.8835 35.35H56.6198V39.6602H54.8686V29.7803L54.8362 29.7814ZM66.1195 32.401C68.2257 32.401 69.9449 33.9589 69.9449 36.1138C69.9449 38.3026 68.2588 39.8273 66.1518 39.8273C64.0437 39.8273 62.3576 38.3022 62.3576 36.1138C62.3256 33.9258 64.0113 32.401 66.1195 32.401ZM71.3061 32.5657H72.9599V38.1363H75.1327V32.5669H76.7853V38.1363H78.9578V32.5669H80.6116V39.6602H71.3709V32.5657H71.3061ZM85.508 32.401C87.4851 32.401 88.5877 33.8926 88.5877 35.75C88.5822 35.983 88.5606 36.2153 88.523 36.4452H83.7568C83.8543 37.6716 84.7946 38.3353 85.8325 38.3353C86.5447 38.3353 87.2585 38.0035 87.8096 37.5727L88.491 38.833C87.7776 39.4616 86.7074 39.8604 85.7026 39.8604C83.3999 39.8604 81.9739 38.1694 81.9739 36.1465C81.9739 33.9258 83.4319 32.401 85.508 32.401ZM89.3978 38.1694C90.2415 38.0366 90.857 37.3079 90.857 34.7873V32.5669H95.9157V39.6602H94.1964V33.9908H92.5107V34.7865C92.5107 37.8695 91.7006 39.6603 89.3978 39.7265V38.1694ZM100.843 32.401C102.821 32.401 103.923 33.8926 103.923 35.75C103.918 35.983 103.896 36.2153 103.858 36.4452H99.0921C99.19 37.6716 100.13 38.3353 101.168 38.3353C101.88 38.3353 102.594 38.0035 103.145 37.5727L103.827 38.833C103.113 39.4616 102.043 39.8604 101.038 39.8604C98.7364 39.8604 97.3093 38.1694 97.3093 36.1465C97.3093 33.9258 98.7684 32.401 100.843 32.401ZM105.35 32.5657H107.068V35.285H107.912L109.598 32.5665H111.51L109.305 35.9479V35.9817L111.769 39.6602H109.76L107.944 36.777H107.037V39.6602H105.317V32.5657H105.35ZM66.1195 38.3026C67.2544 38.3026 68.1944 37.4068 68.1944 36.0807C68.1944 34.7876 67.2544 33.8588 66.1187 33.8588C64.9848 33.8588 64.0772 34.7553 64.0772 36.0807C64.0772 37.4068 64.9837 38.3026 66.1195 38.3026ZM86.8372 35.2192C86.8372 34.2907 86.2202 33.7271 85.4425 33.7271C84.568 33.7271 83.919 34.3238 83.7568 35.2188L86.8372 35.2192ZM102.173 35.2192C102.173 34.2907 101.557 33.7271 100.779 33.7271C99.9022 33.7271 99.2544 34.3238 99.0921 35.2188L102.173 35.2192Z" fill="#3A3A3A"/>
<path d="M79.0556 8.26418V25.0073C79.057 25.0686 79.0462 25.1295 79.0239 25.1863C79.0016 25.2432 78.9682 25.2948 78.9259 25.3381C78.8835 25.3814 78.833 25.4155 78.7774 25.4383C78.7218 25.4611 78.6623 25.4722 78.6024 25.4708H75.2622C75.2023 25.4722 75.1427 25.4611 75.0871 25.4383C75.0315 25.4155 74.981 25.3814 74.9387 25.3381C74.8963 25.2948 74.863 25.2432 74.8407 25.1863C74.8184 25.1295 74.8076 25.0686 74.8089 25.0073V8.26418C74.8076 8.20294 74.8184 8.14205 74.8407 8.0852C74.863 8.02834 74.8963 7.97669 74.9387 7.93338C74.981 7.89006 75.0315 7.85598 75.0871 7.83317C75.1427 7.81037 75.2023 7.79933 75.2622 7.80071H78.6024C78.6623 7.79933 78.7218 7.81037 78.7774 7.83317C78.833 7.85598 78.8835 7.89006 78.9259 7.93338C78.9682 7.97669 79.0016 8.02834 79.0239 8.0852C79.0462 8.14205 79.057 8.20294 79.0556 8.26418ZM105.123 7.80071C105.253 7.80071 105.416 7.86653 105.576 7.99934C105.675 8.09827 105.675 8.26418 105.642 8.39738L100.13 25.1732C100.096 25.26 100.039 25.3347 99.9636 25.3879C99.8886 25.4411 99.7999 25.4703 99.7087 25.472H96.7261C96.5315 25.472 96.3692 25.3719 96.3048 25.1732L93.093 15.393L89.8834 25.1725C89.8498 25.2592 89.7919 25.3338 89.7169 25.3869C89.642 25.44 89.5533 25.4692 89.4621 25.4708H86.4795C86.2853 25.4708 86.1227 25.3719 86.0583 25.1721L80.5456 8.39621C80.5132 8.26418 80.5132 8.13137 80.6103 7.99934C80.6755 7.86653 80.8377 7.80071 80.9668 7.80071H84.6955C84.8898 7.80071 85.052 7.93235 85.1175 8.13137L88.0674 18.0445L91.3101 8.13137C91.3436 8.04458 91.4015 7.96989 91.4764 7.91672C91.5514 7.86356 91.6401 7.8343 91.7313 7.83265H94.3574C94.5517 7.83265 94.7139 7.93235 94.7787 8.13137L98.0214 18.0445L100.972 8.13137C100.998 8.03742 101.054 7.95459 101.129 7.89501C101.205 7.83544 101.298 7.80226 101.393 7.80033L105.123 7.80071ZM110.765 7.80071C110.991 7.80071 111.186 7.99934 111.218 8.26418V25.0073C111.219 25.0686 111.208 25.1295 111.186 25.1863C111.164 25.2432 111.13 25.2948 111.088 25.3381C111.046 25.3814 110.995 25.4155 110.94 25.4383C110.884 25.4611 110.824 25.4722 110.765 25.4708H107.425C107.365 25.4722 107.305 25.4611 107.25 25.4383C107.194 25.4155 107.144 25.3814 107.101 25.3381C107.059 25.2948 107.026 25.2432 107.003 25.1863C106.981 25.1295 106.97 25.0686 106.971 25.0073V8.26418C106.97 8.20294 106.981 8.14205 107.003 8.0852C107.026 8.02834 107.059 7.97669 107.101 7.93338C107.144 7.89006 107.194 7.85598 107.25 7.83317C107.305 7.81037 107.365 7.79933 107.425 7.80071H110.765ZM72.8631 24.8753C73.0573 25.107 72.8954 25.4381 72.6033 25.4381H68.5177C68.4372 25.4403 68.3574 25.4235 68.2843 25.389C68.2113 25.3544 68.147 25.3031 68.0965 25.2391L67.4162 24.3776C65.9895 25.3049 64.3026 25.8696 62.5198 25.8696C57.5277 25.8696 53.4745 21.7253 53.4745 16.6194C53.4745 11.5135 57.5277 7.3688 62.5201 7.3688C67.5134 7.3688 71.5662 11.5135 71.5662 16.6194C71.5662 18.4433 71.0471 20.1674 70.1395 21.6252L72.8631 24.8753ZM38.7223 32.9976C39.5655 33.329 39.89 34.6217 39.9544 35.1852C40.0846 36.2134 39.7933 36.6111 39.4688 36.6111C39.1443 36.6111 38.6899 36.2138 38.2043 35.4181C37.7171 34.6213 37.5225 33.7271 37.7826 33.2625C37.9441 32.9633 38.2999 32.8317 38.7223 32.9976ZM33.7942 36.7443C34.3133 36.7443 34.8968 36.976 35.4155 37.4399C36.4203 38.3021 36.7128 39.2968 36.1937 40.0259C35.9015 40.3909 35.4155 40.623 34.8644 40.623C34.3133 40.623 33.7294 40.424 33.3409 40.059C32.433 39.2637 32.174 37.9364 32.7563 37.2081C32.9841 36.909 33.3409 36.7443 33.7942 36.7443ZM22.4473 46.3251C10.1258 46.3255 0.140137 36.1137 0.140137 23.5157C0.140137 10.9168 10.1265 0.705811 22.4462 0.705811C34.7662 0.705811 44.7529 10.9176 44.7529 23.5153C44.7529 27.7916 43.586 31.8043 41.6089 35.2187C41.5434 35.3181 41.3811 35.2849 41.3487 35.1521C40.5706 29.5497 37.2315 26.4655 32.3678 25.5378C31.9458 25.4708 31.8811 25.206 32.4326 25.1401C33.9241 25.0073 36.031 25.04 37.1336 25.2391C37.1991 24.6558 37.2317 24.0692 37.2311 23.4822C37.2311 15.1601 30.6166 8.39621 22.4782 8.39621C14.3409 8.39621 7.7263 15.1601 7.7263 23.4822C7.7263 31.8043 14.3409 38.5681 22.4793 38.5681H23.1595C22.9284 37.2221 22.8304 35.8558 22.867 34.4897C22.9005 33.5612 23.0948 33.428 23.484 34.1578C25.5266 37.7717 28.4449 41.0206 34.1507 42.314C38.8194 43.3753 43.4881 44.6014 48.5133 51.1327C48.9673 51.6963 48.287 52.2929 47.7679 51.8291C42.6456 47.1866 37.9769 45.6619 33.7291 45.6619C28.9628 45.6958 25.722 46.3251 22.4473 46.3251ZM64.7574 21.1617L62.9738 18.9398C62.7803 18.7081 62.9425 18.3432 63.2339 18.3432H66.9946C67.1889 17.8127 67.2867 17.2161 67.2867 16.6194C67.2867 13.8678 65.2765 11.4804 62.5201 11.4804C59.7653 11.4804 57.7539 13.8678 57.7539 16.6194C57.7539 19.3706 59.7649 21.7253 62.5201 21.7253C63.2983 21.758 64.0771 21.5271 64.7574 21.1617Z" fill="#161616"/>
</svg>
