<?xml version="1.0" encoding="utf-8"?>
<!-- Generator: Adobe Illustrator 27.5.0, SVG Export Plug-In . SVG Version: 6.00 Build 0)  -->
<svg version="1.1" width="43" height="51" id="Слой_1" xmlns="http://www.w3.org/2000/svg" xmlns:xlink="http://www.w3.org/1999/xlink" x="0px" y="0px"
	viewBox="0 0 43 51" style="enable-background:new 0 0 43 51;" xml:space="preserve">
<style type="text/css">
	.st0{fill:#70C3A7;}
</style>
<path class="st0" d="M24,40H0v4h24V40z"/>
<path class="st0" d="M14.2,26.1H0.1v4.6h14.1V26.1z"/>
<path class="st0" d="M9.2,51c0,0,0-16.7,0-50.2c0,0,4.6,0,13.8,0c3.3,0,5.9,0.2,8,0.6c2.1,0.4,3.9,1.1,5.4,2c1.9,1.1,3.4,2.8,4.4,5
	c1,2.2,1.6,4.7,1.6,7.6c0,2.5-0.4,4.8-1.3,6.8c-0.9,2-2.1,3.6-3.7,4.8c-1.5,1.1-3.3,1.9-5.4,2.4c-2.1,0.5-4.8,0.7-8.2,0.7h-9.7V51
	H9.2z M14.2,26.1h9.3c4.5,0,7.7-0.6,9.7-1.7c1.3-0.7,2.3-1.8,3.1-3.3c0.7-1.5,1.1-3.2,1.1-5.2c0-2.5-0.5-4.5-1.5-6.1
	c-1-1.7-2.4-2.8-4.2-3.4c-2.2-0.7-5.6-1.1-10.4-1.1h-7.1V26.1z"/>
</svg>
