<svg width="47" height="57" viewBox="0 0 47 57" fill="none" xmlns="http://www.w3.org/2000/svg">
<path d="M17.0886 10.4751C18.0115 10.4751 18.7597 9.72821 18.7597 8.80689V1.65945C18.6714 -0.553984 15.5049 -0.552315 15.4175 1.65945V8.80701C15.4175 9.72832 16.1657 10.4751 17.0886 10.4751Z" fill="#70C3A7"/>
<path d="M8.74726 9.98743C9.39967 10.6388 10.4579 10.639 11.1106 9.98743C11.7632 9.33592 11.7632 8.2797 11.1106 7.62819L9.32068 5.84138C8.66816 5.18988 7.61 5.18988 6.95737 5.84138C6.30474 6.49289 6.30474 7.54911 6.95737 8.20062L8.74726 9.98743Z" fill="#70C3A7"/>
<path d="M25.4302 9.98743L27.2201 8.20062C27.8727 7.54911 27.8727 6.49289 27.2201 5.84138C26.5676 5.18988 25.5094 5.18988 24.8568 5.84138L23.0669 7.62819C22.4142 8.2797 22.4142 9.33592 23.0669 9.98743C23.7193 10.6388 24.7775 10.639 25.4302 9.98743Z" fill="#70C3A7"/>
<path d="M37.2628 25.4728C38.2171 24.5202 38.2184 22.9767 37.2628 22.0229C36.3083 21.0701 34.7625 21.069 33.8069 22.0229L27.9876 27.8321C27.0349 28.7832 27.0349 30.3309 27.9876 31.282C28.9407 32.2327 30.4912 32.2328 31.4437 31.282L37.2624 25.4733C37.2625 25.473 37.2626 25.4729 37.2628 25.4728Z" fill="#70C3A7"/>
<path d="M37.2626 37.0909L41.6271 32.7338H41.6272C42.5816 31.7812 42.5829 30.2378 41.6272 29.2839C40.673 28.3312 39.127 28.3298 38.1715 29.2839L33.8067 33.641C32.8541 34.5919 32.8544 36.1396 33.807 37.0913C34.7611 38.0435 36.307 38.0447 37.2626 37.0909Z" fill="#70C3A7"/>
<path d="M45.9917 36.5458C45.046 35.6016 43.4993 35.5835 42.5361 36.545L39.6266 39.4495C38.6709 40.4037 38.6723 41.947 39.6261 42.8991C40.592 43.8647 42.1412 43.8393 43.0812 42.8999L45.991 39.995L45.9919 39.9941C46.9333 39.0556 46.9576 37.5087 45.9917 36.5458Z" fill="#70C3A7"/>
<path d="M35.5685 41.1747C35.5685 41.1635 35.5693 41.1524 35.5693 41.1411C34.0127 41.1527 32.5436 40.5486 31.4434 39.4503C30.3063 38.3146 29.7433 36.8202 29.7527 35.3288C28.2571 35.3402 26.7624 34.7755 25.6245 33.6415C23.3683 31.3891 23.3683 27.7247 25.6242 25.4727L41.6272 9.49824C42.5396 8.58626 42.6159 7.0339 41.6337 6.05341C40.8161 5.2373 39.2647 4.95682 38.1715 6.0483L17.5318 26.6523L17.8047 26.9248C22.4671 31.5791 22.4671 39.1521 17.8047 43.8064C17.1521 44.4581 16.0938 44.4578 15.4414 43.8064C14.7888 43.1551 14.7888 42.0987 15.4414 41.4472C18.8005 38.0938 18.8005 32.6374 15.4414 29.284C15.4414 29.284 13.9862 27.8305 13.9861 27.8301C13.7691 27.613 13.6117 27.3372 13.5402 27.0278L11.6279 18.7557C11.0391 16.2083 8.33777 14.7316 5.86026 15.6393C5.20151 15.8806 4.76411 16.5074 4.76478 17.2079L4.78762 40.8111L0.489474 45.0999C-0.163158 45.7514 -0.163158 46.8076 0.489474 47.4591L9.4913 56.4454C9.80469 56.7583 10.2297 56.934 10.673 56.934H27.1597C28.361 56.934 29.4912 56.4663 30.3418 55.6173L39.3714 46.6035C38.5875 46.3188 37.8688 45.8643 37.2619 45.2576C36.1701 44.1678 35.5685 42.7175 35.5685 41.1747Z" fill="#70C3A7"/>
</svg>
