<svg width="58" height="57" viewBox="0 0 58 57" fill="none" xmlns="http://www.w3.org/2000/svg">
<path fill-rule="evenodd" clip-rule="evenodd" d="M54.4055 22.3089C55.9468 22.4889 57.109 23.7898 57.109 25.3349L57.11 31.3905C57.11 32.9348 55.9474 34.2362 54.4056 34.4178L51.111 34.7958C50.6309 36.4678 49.945 38.1024 49.0684 39.6646L51.2137 42.3816C52.1775 43.5955 52.0788 45.3368 50.9835 46.4307L46.6954 50.7117C46.1137 51.2857 45.3464 51.6006 44.5331 51.6006C43.8484 51.6006 43.175 51.3664 42.637 50.9414L39.8726 48.7578C38.2934 49.6157 36.6263 50.2885 34.9078 50.7616L34.4981 54.2999C34.3168 55.8399 33.0137 57.0005 31.4668 57.0005H25.3998C23.8525 57.0005 22.5491 55.8399 22.368 54.3009L21.938 50.6113C20.3414 50.1319 18.7968 49.4795 17.337 48.6682L14.473 50.9308C13.9327 51.3582 13.2574 51.5937 12.5714 51.5937C11.7575 51.5937 10.9919 51.2766 10.4154 50.7011L6.12768 46.4212C5.037 45.3187 4.93887 43.5781 5.89759 42.3702L8.18529 39.4885C7.42367 38.0995 6.80095 36.6234 6.33086 35.0912L2.70554 34.6709C1.16403 34.4902 0.00113274 33.1893 0 31.6448L0.000849552 25.5881C0.000849552 24.0443 1.1629 22.7434 2.70398 22.5625L6.11423 22.1741C6.5618 20.4939 7.20675 18.864 8.03521 17.3198L5.8966 14.6193C4.93293 13.4042 5.03204 11.6626 6.1274 10.5689L10.4145 6.288C10.9973 5.71427 11.7647 5.39963 12.578 5.39963C13.2628 5.39963 13.9358 5.6337 14.4728 6.05888L17.007 8.06475C18.6556 7.11418 20.4145 6.37196 22.2437 5.85505L22.6122 2.69946C22.7922 1.16032 24.0951 0 25.6432 0H31.7101C33.2571 0 34.5606 1.16032 34.7423 2.69946L35.1103 5.85562C36.8944 6.36221 38.6045 7.07729 40.2029 7.98531L42.6376 6.05888C43.1778 5.63144 43.8529 5.39596 44.5388 5.39596C45.3526 5.39596 46.1184 5.713 46.6952 6.28857L50.9733 10.559C52.0634 11.6606 52.1612 13.4008 51.2029 14.6089L49.2078 17.126C50.0468 18.6674 50.704 20.2809 51.1643 21.9307L54.4055 22.3089ZM22.0879 43.3197V38.878L19.6061 41.9669C20.3884 42.4865 21.2183 42.9401 22.0879 43.3197ZM37.5033 41.9669L35.0214 38.8777V43.3197C35.8909 42.9402 36.721 42.4868 37.5033 41.9669ZM33.2107 29.7518C34.0828 29.7518 34.8992 30.1783 35.3946 30.893L41.2925 38.4722C43.4567 35.7234 44.7489 32.2595 44.7489 28.5C44.7489 19.5862 37.4842 12.334 28.5549 12.334C19.6255 12.334 12.3608 19.586 12.3608 28.5C12.3608 32.2594 13.653 35.7233 15.8171 38.4721L21.7222 30.8827C22.2103 30.1783 23.0268 29.7518 23.8986 29.7518H33.2107ZM22.2446 22.6775C22.2446 19.2036 25.0756 16.3775 28.5555 16.3775C32.0346 16.3775 34.8649 19.2036 34.865 22.6775C34.865 26.1516 32.0346 28.9778 28.5555 28.9778C25.0756 28.9778 22.2446 26.1516 22.2446 22.6775Z" fill="#70C3A7"/>
</svg>
