<svg width="76" height="50" viewBox="0 0 76 50" fill="none" xmlns="http://www.w3.org/2000/svg">
<path d="M38 0C33.0098 0 28.0684 0.972102 23.458 2.8608C18.8477 4.7495 14.6586 7.51782 11.1299 11.0077C7.60132 14.4975 4.80226 18.6406 2.89258 23.2003C0.982899 27.7601 -1.66341e-07 32.6472 0 37.5826C0.0158005 41.8138 0.753934 46.0119 2.18327 50C1.57669 47.493 1.26333 44.9254 1.24935 42.3477C1.24972 33.4218 4.83506 24.8616 11.2167 18.5501C17.5984 12.2385 26.2536 8.69256 35.2786 8.69219C42.0271 8.69872 48.6213 10.6895 54.223 14.4115L61.0016 7.70736C54.3933 2.71902 46.3132 0.0115691 38 0ZM66.9701 11.2858C66.1729 11.299 65.3635 11.6061 64.694 12.1666L35.5817 36.5366C34.2429 37.6576 31.0972 40.9586 35.5754 45.3878C40.0545 49.8177 43.391 46.6995 44.5249 45.3756L69.1717 16.5953C70.3056 15.2713 70.4122 13.3935 69.1717 12.1666C68.5515 11.5532 67.7672 11.2726 66.9701 11.2858ZM72.8271 22.5838L66.4258 28.9149C68.266 33.0592 69.242 37.528 69.2956 42.0541H75.6784C75.8755 40.5712 75.9828 39.0781 76 37.5826C75.9951 32.4205 74.915 27.3148 72.8271 22.5838Z" fill="#70C3A7"/>
</svg>
