<svg width="34" height="51" viewBox="0 0 34 51" fill="none" xmlns="http://www.w3.org/2000/svg">
<path d="M0.186768 51C0.186768 51 0.186768 34.2546 0.186768 0.763672C0.186768 0.763672 4.802 0.763672 14.0325 0.763672C17.2864 0.763672 19.9426 0.962891 22.0012 1.36133C24.0819 1.75977 25.8971 2.4349 27.4465 3.38672C29.3502 4.51562 30.8222 6.17578 31.8625 8.36719C32.9029 10.5365 33.4231 13.071 33.4231 15.9707C33.4231 18.4941 32.9915 20.752 32.1282 22.7441C31.2649 24.7363 30.0253 26.3301 28.4094 27.5254C26.8821 28.6543 25.0891 29.4622 23.0305 29.9492C20.9719 30.4362 18.2493 30.6797 14.8625 30.6797H5.20044V51H0.186768ZM5.20044 26.0977H14.5305C19.0461 26.0977 22.2668 25.5332 24.1926 24.4043C25.5208 23.696 26.539 22.6003 27.2473 21.1172C27.9778 19.6341 28.343 17.8965 28.343 15.9043C28.343 13.4473 27.856 11.3997 26.8821 9.76172C25.9081 8.10156 24.5136 6.98372 22.6985 6.4082C20.5292 5.67773 17.0761 5.3125 12.3391 5.3125H5.20044V26.0977Z" fill="#70C3A7"/>
</svg>
