<svg width="73" height="50" viewBox="0 0 73 50" fill="none" xmlns="http://www.w3.org/2000/svg">
<path fill-rule="evenodd" clip-rule="evenodd" d="M68.7525 0.854871L50.9508 0.850098C50.9487 0.850098 50.9462 0.850098 50.9462 0.850098C50.9325 0.850098 50.919 0.852646 50.9056 0.852646C48.46 0.930597 45.4142 2.97136 44.8594 5.4878L36.4408 44.2444C35.8861 46.7844 37.3953 48.8511 39.8231 48.8891H58.5245C60.9153 48.7661 63.2385 46.7488 63.7837 44.261L72.2026 5.50402C72.7663 2.93827 71.2207 0.854871 68.7525 0.854871Z" fill="#161616"/>
<path d="M68.7525 0.854871L50.9508 0.850098C50.9487 0.850098 50.9462 0.850098 50.9462 0.850098C50.9325 0.850098 50.919 0.852646 50.9056 0.852646C48.46 0.930597 45.4142 2.97136 44.8594 5.4878L36.4408 44.2444C35.8861 46.7844 37.3953 48.8511 39.8231 48.8891H58.5245C60.9153 48.7661 63.2385 46.7488 63.7837 44.261L72.2026 5.50402C72.7663 2.93827 71.2207 0.854871 68.7525 0.854871" stroke="black"/>
<path fill-rule="evenodd" clip-rule="evenodd" d="M36.4409 44.2443L44.8594 5.48769C45.4142 2.97125 48.46 0.930487 50.9056 0.852536L43.8277 0.847763L31.0754 0.845215C28.6231 0.897396 25.5375 2.95248 24.983 5.48769L16.5619 44.2443C16.0052 46.7842 17.5165 48.851 19.9428 48.889H39.8231C37.3953 48.851 35.8861 46.7842 36.4409 44.2443Z" fill="#161616"/>
<path d="M36.4409 44.2443L44.8594 5.48769C45.4142 2.97125 48.46 0.930487 50.9056 0.852536L43.8277 0.847763L31.0754 0.845215C28.6231 0.897396 25.5375 2.95248 24.983 5.48769L16.5619 44.2443C16.0052 46.7842 17.5165 48.851 19.9428 48.889H39.8231C37.3953 48.851 35.8861 46.7842 36.4409 44.2443" stroke="black"/>
<path fill-rule="evenodd" clip-rule="evenodd" d="M16.5619 44.2441L24.983 5.4875C25.5375 2.95229 28.6231 0.897212 31.0755 0.845031L14.7391 0.840576C12.273 0.840576 9.1112 2.91921 8.54763 5.4875L0.126547 44.2441C0.0753007 44.4806 0.0468698 44.7124 0.0299072 44.9393V45.6583C0.194757 47.5098 1.55381 48.858 3.50739 48.8888H19.9428C17.5165 48.8508 16.0052 46.784 16.5619 44.2441Z" fill="#161616"/>
<path fill-rule="evenodd" clip-rule="evenodd" d="M31.4198 29.086H31.7289C32.013 29.086 32.2042 28.9869 32.2938 28.7905L33.0971 27.5395H35.2485L34.7999 28.3623H37.3794L37.0522 29.6229H33.9828C33.6292 30.1763 33.1941 30.4364 32.6708 30.4056H31.0721L31.4198 29.086ZM31.0665 30.8928H36.7179L36.3576 32.2622H34.0849L33.7381 33.584H35.9497L35.5894 34.9532H33.3778L32.8641 36.9064C32.7369 37.2329 32.9041 37.3797 33.3632 37.3464H35.1656L34.8317 38.6188H31.3711C30.7152 38.6188 30.4902 38.2284 30.6959 37.4458L31.3528 34.9532H29.9391L30.2982 33.584H31.7121L32.0586 32.2622H30.7072L31.0665 30.8928ZM40.0867 27.5301L39.9977 28.3317C39.9977 28.3317 41.0637 27.499 42.0319 27.499H45.6096L44.2414 32.652C44.1279 33.2411 43.6414 33.534 42.782 33.534H38.727L37.7772 37.1524C37.7225 37.3463 37.7998 37.4457 38.0044 37.4457H38.8023L38.509 38.5689H36.4806C35.702 38.5689 35.3781 38.3253 35.5066 37.8359L38.1906 27.5301H40.0867ZM43.1163 28.9867H39.923L39.5411 30.3772C39.5411 30.3772 40.0729 29.9777 40.9616 29.9634C41.8478 29.949 42.8594 29.9634 42.8594 29.9634L43.1163 28.9867ZM41.9594 32.2123C42.1955 32.2456 42.3276 32.1484 42.3435 31.919L42.5389 31.1861H39.3408L39.0726 32.2123H41.9594ZM39.8023 33.8771H41.6457L41.6114 34.707H42.1023C42.3503 34.707 42.4732 34.6244 42.4732 34.4613L42.6185 33.9244H44.1506L43.946 34.707C43.7729 35.3598 43.3142 35.7003 42.5686 35.7336H41.5867L41.5821 37.1524C41.564 37.3796 41.7616 37.4954 42.1683 37.4954H43.0913L42.7934 38.6187H40.5796C39.9592 38.6494 39.6549 38.3418 39.6613 37.6893L39.8023 33.8771Z" fill="#3A3A3A"/>
<path fill-rule="evenodd" clip-rule="evenodd" d="M17.4643 20.6647C17.2143 21.9394 16.6347 22.9184 15.7356 23.6137C14.8448 24.2971 13.6957 24.6399 12.2889 24.6399C10.9649 24.6399 9.99434 24.2899 9.37496 23.5876C8.94539 23.0886 8.73169 22.4548 8.73169 21.6886C8.73169 21.3718 8.76814 21.0312 8.84089 20.6647L10.3398 13.1448H12.6036L11.1251 20.5796C11.0796 20.7854 11.0615 20.9769 11.0638 21.1496C11.0615 21.5304 11.1523 21.8425 11.3364 22.0859C11.6046 22.4479 12.0399 22.6275 12.6457 22.6275C13.3422 22.6275 13.9162 22.4502 14.3617 22.093C14.8072 21.7383 15.0981 21.2347 15.2288 20.5796L16.712 13.1448H18.9643L17.4643 20.6647Z" fill="#3A3A3A"/>
<path fill-rule="evenodd" clip-rule="evenodd" d="M26.9716 17.7069H28.7446L27.3558 24.4182H25.5863L26.9716 17.7069ZM27.5297 15.2617H29.3185L28.9844 16.8908H27.1957L27.5297 15.2617Z" fill="#3A3A3A"/>
<path fill-rule="evenodd" clip-rule="evenodd" d="M30.3141 23.907C29.8504 23.4459 29.6163 22.824 29.614 22.0342C29.614 21.8993 29.6219 21.7457 29.6391 21.5776C29.6562 21.4074 29.6778 21.2418 29.7084 21.0882C29.9186 19.9981 30.3665 19.1325 31.0562 18.494C31.7449 17.8531 32.5758 17.5315 33.5485 17.5315C34.3452 17.5315 34.977 17.7633 35.4397 18.2268C35.902 18.6927 36.1338 19.3216 36.1338 20.1211C36.1338 20.2581 36.1238 20.4166 36.1066 20.5868C36.0861 20.7595 36.0614 20.925 36.0326 21.0882C35.8271 22.1618 35.3806 23.0179 34.6907 23.6447C34.0008 24.276 33.1724 24.5903 32.2063 24.5903C31.4064 24.5903 30.7767 24.3634 30.3141 23.907ZM33.6929 22.578C34.0054 22.2257 34.2292 21.6911 34.3656 20.9795C34.3861 20.8684 34.4042 20.7524 34.4155 20.6366C34.4268 20.523 34.4314 20.4166 34.4314 20.3196C34.4314 19.9058 34.3302 19.5842 34.1268 19.3572C33.9247 19.1277 33.6372 19.0144 33.2656 19.0144C32.7745 19.0144 32.3745 19.1938 32.0611 19.5534C31.7449 19.913 31.521 20.4568 31.38 21.1805C31.3608 21.2916 31.3449 21.4028 31.3302 21.5116C31.3189 21.6227 31.3155 21.7267 31.3176 21.8213C31.3176 22.2328 31.4189 22.5497 31.6222 22.7743C31.8244 22.999 32.1106 23.1101 32.4871 23.1101C32.9803 23.1101 33.3803 22.9328 33.6929 22.578Z" fill="#3A3A3A"/>
<path fill-rule="evenodd" clip-rule="evenodd" d="M47.6371 29.1428L48.0647 27.5773H50.2261L50.1328 28.1518C50.1328 28.1518 51.2374 27.5773 52.0328 27.5773C52.8285 27.5773 54.7056 27.5773 54.7056 27.5773L54.2808 29.1428H53.8603L51.8441 36.5257H52.2646L51.8646 37.992H51.4441L51.2692 38.628H49.176L49.3506 37.992H45.2209L45.6234 36.5257H46.0372L48.0552 29.1428H47.6371ZM49.9692 29.1429L49.4191 31.141C49.4191 31.141 50.3603 30.7652 51.1716 30.6588C51.3508 29.961 51.5851 29.1429 51.5851 29.1429L49.9692 29.1429ZM49.1643 32.0775L48.6124 34.1704C48.6124 34.1704 49.6555 33.6359 50.3714 33.5909C50.5781 32.7821 50.7851 32.0775 50.7851 32.0775L49.1643 32.0775ZM49.5689 36.5257L49.9827 35.0076H48.3692L47.9533 36.5257H49.5689ZM54.7967 27.4805H56.8288L56.915 28.2606C56.9016 28.4592 57.015 28.554 57.256 28.554H57.615L57.2517 29.8758H55.7582C55.1878 29.9065 54.8945 29.6797 54.8673 29.19L54.7967 27.4805ZM54.2013 30.3158H60.7835L60.3973 31.7348H58.3016L57.9422 33.0541H60.0358L59.6471 34.4707H57.3153L56.7878 35.301H57.9291L58.1927 36.9633C58.2242 37.1288 58.3652 37.2092 58.6061 37.2092H58.9606L58.5881 38.5782H57.3334C56.6832 38.6115 56.3471 38.3845 56.3196 37.8951L56.0172 36.3769L54.9786 37.992C54.7331 38.4484 54.3557 38.6613 53.8469 38.6281H51.9307L52.3034 37.2587H52.9013C53.1469 37.2587 53.3511 37.1452 53.5352 36.9159L55.1606 34.4707H53.0649L53.4533 33.0541H55.7263L56.0878 31.7348H53.8126L54.2013 30.3158Z" fill="#3A3A3A"/>
<path fill-rule="evenodd" clip-rule="evenodd" d="M19.5496 17.704H21.1486L20.9657 18.6735L21.1952 18.3969C21.7135 17.8199 22.343 17.5337 23.0863 17.5337C23.7591 17.5337 24.2443 17.7372 24.5489 18.1462C24.8488 18.5553 24.9307 19.1206 24.7888 19.8466L23.9079 24.42H22.2646L23.0601 20.2746C23.1421 19.8466 23.1194 19.5273 22.993 19.3214C22.8681 19.1157 22.6293 19.0142 22.2851 19.0142C21.8623 19.0142 21.5066 19.1512 21.2168 19.4232C20.9258 19.6975 20.7338 20.0783 20.6394 20.5631L19.9065 24.42H18.2598L19.5496 17.704Z" fill="#3A3A3A"/>
<path fill-rule="evenodd" clip-rule="evenodd" d="M37.8862 17.704H39.4864L39.3048 18.6735L39.5317 18.3969C40.0504 17.8199 40.6822 17.5337 41.4231 17.5337C42.0959 17.5337 42.5821 17.7372 42.8843 18.1462C43.1824 18.5553 43.2687 19.1206 43.1231 19.8466L42.2458 24.42H40.6002L41.3959 20.2746C41.4776 19.8466 41.4549 19.5273 41.3299 19.3214C41.2002 19.1157 40.9659 19.0142 40.6231 19.0142C40.2002 19.0142 39.8458 19.1512 39.5525 19.4232C39.2614 19.6975 39.0684 20.0783 38.9776 20.5631L38.2412 24.42H36.5966L37.8862 17.704" fill="#3A3A3A"/>
<path fill-rule="evenodd" clip-rule="evenodd" d="M45.7961 13.542H50.442C51.3352 13.542 52.0261 13.7526 52.501 14.1662C52.9737 14.585 53.2104 15.1857 53.2104 15.9684V15.9919C53.2104 16.1408 53.201 16.3088 53.1875 16.4908C53.1646 16.6706 53.1349 16.8526 53.0967 17.0419C52.8921 18.0777 52.4169 18.9102 51.6829 19.5416C50.9462 20.1706 50.0738 20.4875 49.0692 20.4875H46.5778L45.8074 24.4202H43.6503L45.7961 13.542ZM46.9573 18.5957H49.0236C49.5621 18.5957 49.9893 18.4654 50.301 18.2078C50.6101 17.9477 50.8147 17.5505 50.9282 17.0113C50.9462 16.9117 50.9575 16.822 50.9713 16.7393C50.9783 16.6613 50.9872 16.5831 50.9872 16.5077C50.9872 16.122 50.8557 15.843 50.5918 15.668C50.3282 15.4905 49.9147 15.4055 49.3416 15.4055H47.5869L46.9573 18.5957Z" fill="#3A3A3A"/>
<path fill-rule="evenodd" clip-rule="evenodd" d="M62.8654 25.7184C62.1834 27.227 61.5336 28.1066 61.1519 28.5157C60.7697 28.9203 60.0131 29.8615 58.1902 29.7904L58.3471 28.6389C59.881 28.147 60.7107 25.931 61.1834 24.9497L60.6198 17.7228L61.8064 17.7063H62.8018L62.9088 22.2397L64.7745 17.7063H66.6635L62.8654 25.7184Z" fill="#3A3A3A"/>
<path fill-rule="evenodd" clip-rule="evenodd" d="M57.5835 18.2529L56.8331 18.7898C56.049 18.1514 55.3331 17.7564 53.9514 18.4232C52.0692 19.3312 50.4964 26.2957 55.6786 24.0018L55.974 24.366L58.0129 24.4204L59.3517 18.0921L57.5835 18.2529ZM56.4242 21.7126C56.0966 22.7177 55.3651 23.3822 54.7924 23.193C54.2196 23.0086 54.015 22.0389 54.3468 21.0316C54.674 20.0241 55.4104 19.362 55.9786 19.5512C56.5514 19.7356 56.7581 20.7052 56.4242 21.7126Z" fill="#3A3A3A"/>
</svg>
