<svg width="73" height="25" viewBox="0 0 73 25" fill="none" xmlns="http://www.w3.org/2000/svg">
<path d="M35.8076 1.21565L30.9781 24.5199H25.1365L29.9665 1.21565H35.8076ZM60.3827 16.2635L63.4571 7.51226L65.2264 16.2635H60.3827ZM66.9023 24.5199H72.3036L67.5848 1.21565H62.6025C61.4796 1.21565 60.533 1.88761 60.1141 2.92385L51.3494 24.5199H57.484L58.7018 21.0395H66.1949L66.9023 24.5199ZM51.6535 16.9118C51.6789 10.7615 43.416 10.4208 43.4713 7.67265C43.4891 6.83768 44.261 5.9482 45.948 5.72072C46.7844 5.6096 49.0925 5.51944 51.7089 6.76377L52.7322 1.81999C51.327 1.29532 49.5186 0.790039 47.2684 0.790039C41.4938 0.790039 37.4316 3.9559 37.3991 8.49294C37.3621 11.848 40.3009 13.7187 42.5105 14.8362C44.7886 15.9783 45.5519 16.7106 45.5407 17.7311C45.525 19.2946 43.7242 19.987 42.0474 20.0132C39.109 20.0604 37.4057 19.1935 36.0483 18.5404L34.9879 23.6493C36.355 24.295 38.8739 24.8569 41.4821 24.8857C47.6213 24.8857 51.6353 21.7571 51.6535 16.9118ZM27.4608 1.21565L17.9963 24.5199H11.8226L7.1647 5.92147C6.88234 4.77777 6.63604 4.3574 5.77729 3.87414C4.37262 3.08686 2.05385 2.35043 0.0148926 1.89233L0.153025 1.21565H10.0924C11.3584 1.21565 12.4975 2.08521 12.7874 3.59057L15.2479 17.0769L21.3241 1.21565H27.4608Z" fill="#161616"/>
</svg>
