<svg version="1.0" xmlns="http://www.w3.org/2000/svg" width="50" height="50" viewBox="0 0 1080 1080"><path d="M0 540V0h1080v1080H0V540zm190.05 152c9.5-2.05 17.55-6.3 24.75-13.15 7.55-7.1 9.9-10.45 19.95-28.35 18.55-32.9 22.6-40.05 32.15-57 32.4-57.6 50.1-90.5 56.3-104.65 1.25-2.85 1.3-2.9 3.05-2.75 1.8.15 1.85.2 6.1 8.4 4.45 8.7 15.3 29.1 20.15 38 1.55 2.9 3.8 7.05 5 9.25 2.3 4.25 10.75 19.75 17.35 31.75 2.2 4 6.35 11.4 9.25 16.5 8.4 14.75 21.5 37.95 31.4 55.5 9.75 17.35 12.55 21.85 16.8 27 15.55 19.15 39.55 25.7 62.15 17 10.65-4.1 20-13.35 26.05-25.75 3-6.15 4.1-9.55 13-40 1.05-3.55 3.3-11.2 5-17 3.15-10.6 6.5-22.15 10-34 1.05-3.55 3.1-10.45 4.5-15.25 1.4-4.8 3.65-12.45 5-17 2.55-8.75 7.3-24.85 10.6-36 2.75-9.4 7.6-25.9 14.35-48.85 2.35-7.9 5.85-19.9 9.05-30.65.75-2.6 3-10.15 4.95-16.75 1.9-6.6 3.85-13.1 4.25-14.5.45-1.35.8-2.8.8-3.1 0-.5-9-.65-43.4-.65h-43.4l-4.15 15.4c-9.75 36.05-12.55 46.25-18.35 67.6-8.5 31.3-25.2 96.9-25.95 102.15-.35 2.3-.4 2.35-2.2 2.35l-1.8-.05-11.6-23.35c-6.4-12.85-13.2-26.4-15.15-30.1-5.65-10.7-8.95-16.95-15.6-29.5-3.45-6.45-7.8-14.65-9.65-18.25-1.85-3.55-4-7.6-4.75-9-.75-1.35-3-5.65-5-9.5-2-3.85-4.25-8.1-5-9.5-.75-1.35-2.9-5.4-4.75-9-1.85-3.55-4.2-8.05-5.25-10-1-1.9-3.15-5.95-4.75-9-11.55-21.9-22.1-30.95-39.5-34-10.05-1.8-25.85-1.05-34 1.6-12.1 3.9-22 13.55-31.1 30.4-3.6 6.65-5.3 9.8-12.9 24-3.2 6.05-6.8 12.7-7.9 14.75-1.1 2.05-2.7 5.1-3.6 6.75-.9 1.65-3.35 6.25-5.5 10.25s-4.6 8.6-5.5 10.25c-.9 1.65-2.7 5.05-4 7.5-1.3 2.5-3.55 6.65-5 9.25-1.45 2.6-3.6 6.65-4.85 9-1.25 2.35-3.4 6.4-4.8 9-9.3 17.45-20.4 39.55-25.8 51.4-3.05 6.75-3.15 6.85-4.85 7l-1.7.15-2.15-10.15c-1.2-5.6-3.75-16.8-5.7-24.9-3.25-13.6-5.6-22.55-20.1-76.25-2.85-10.45-8.6-31.9-12.85-47.6l-7.7-28.65h-44.6c-24.55 0-44.65.2-44.65.45 0 .2 1.35 5 2.95 10.6C58.2 410.4 61.2 420.8 77 475.5c3 10.3 8.4 29 12 41.5 3.6 12.5 9 31.2 12 41.5s8.4 29 12 41.5c3.6 12.5 8.55 29.65 11 38.05 5.9 20.3 8 25.7 12.95 33.2 4.7 7.15 11.5 13.2 18.85 16.9 5.7 2.85 10.25 4.05 19.2 5.05 3.15.35 10.65-.25 15.05-1.2zm838.45-43.25v-44.7l-11.85-9.25-11.9-9.25-.15 39.2-.1 39.25-38.9.1-38.85.15-.15 14.65-.1 14.6h102v-44.75zM819 689.35c16.5-2 30.6-4.8 43-8.65 46.05-14.3 84.55-46.9 101.75-86.2 16.05-36.6 15.3-80.7-1.85-115.05-9.95-19.9-23.7-35.9-43.6-50.7-8.45-6.3-16.1-10.9-26.55-16-24.5-12.05-49.6-18.25-81.75-20.25-5.05-.3-37.1-.5-82-.45h-73.75l-10 13.3c-5.5 7.3-12 15.9-14.5 19.15-13.3 17.45-32 42.2-32.15 42.55-.1.25 47.8.5 106.5.6 115.65.2 107.3 0 119.15 2.8 27.25 6.5 50.1 24.7 58.55 46.6 2.8 7.3 3.75 12.5 4.05 22.5.3 9.3-.2 14.8-1.85 21.55-6.1 24.75-28.05 44.2-58 51.6-12.75 3.1-9.9 3-78.1 3.15l-62.4.2V505.5H595v185.05l108.4-.2c98.75-.15 109-.25 115.6-1z" fill="#fff"/><path d="M173.5 694.7c-9.15-1.05-13.5-2.2-19.2-5.05-9.45-4.7-17.5-13.05-22.7-23.4-2.4-4.85-4.8-11.75-8.1-23.25-1.7-5.9-4.4-15.25-6-20.75-1.6-5.5-6.8-23.4-11.5-39.75s-10.35-35.8-12.5-43.25c-2.15-7.4-7.55-26.1-12-41.5-4.45-15.4-9.85-34.05-12-41.5-2.15-7.4-7.35-25.3-11.5-39.75s-7.65-26.65-7.8-27.1c-.25-.85 2.2-.9 46.4-.9h46.65l7.7 28.65c4.25 15.7 10 37.15 12.85 47.6 14.5 53.7 16.85 62.65 20.1 76.25 1.95 8.1 4.5 19.3 5.7 24.85 1.15 5.55 2.3 9.95 2.5 9.75.2-.2 1.5-2.95 2.9-6.1 4.8-10.7 16.9-34.75 26.1-52 1.4-2.6 3.55-6.65 4.8-9 1.25-2.35 3.4-6.4 4.85-9 1.45-2.6 3.7-6.75 5-9.25 1.3-2.45 3.1-5.85 4-7.5.9-1.65 3.35-6.25 5.5-10.25s4.6-8.6 5.5-10.25c.9-1.65 2.5-4.7 3.6-6.75s4.7-8.7 7.9-14.75c14.5-27.1 15.6-29.1 18.65-33.7 3.4-5.1 9.75-11.9 13.8-14.8 9.1-6.45 17.25-8.5 33.55-8.45 7.3 0 11.35.25 15 .9 17.45 3.15 27.95 12.2 39.5 34.05 1.6 3.05 3.75 7.1 4.75 9 1.05 1.95 3.4 6.45 5.25 10 1.85 3.6 4 7.65 4.75 9 .75 1.4 3 5.65 5 9.5 2 3.85 4.25 8.15 5 9.5.75 1.4 2.9 5.45 4.75 9 1.85 3.6 6.2 11.8 9.65 18.25 6.65 12.55 9.95 18.8 15.6 29.5 1.95 3.7 8.75 17.25 15.15 30.1 6.35 12.85 11.75 23.35 11.9 23.4.2 0 .5-1.05.7-2.35.75-5.25 17.45-70.85 25.95-102.15 5.8-21.35 8.6-31.55 18.35-67.6l4.15-15.4h45.4c24.95 0 45.4.15 45.4.3 0 .35-4.8 16.75-9 30.95-3.3 11.05-5.55 18.75-11.05 37.4-6.75 22.95-11.6 39.45-14.35 48.85-3.3 11.15-8.05 27.25-10.6 36-1.35 4.55-3.6 12.2-5 17-1.4 4.8-3.45 11.7-4.5 15.25-3.5 11.85-6.85 23.4-10 34-1.7 5.8-3.95 13.45-5 17-8.9 30.45-10 33.85-13 40-9.05 18.6-23.4 28.2-44 29.5-18.7 1.2-35.3-6.1-47.2-20.75-4.25-5.15-7.05-9.65-16.8-27-9.9-17.55-23-40.75-31.4-55.5-2.9-5.1-7.05-12.5-9.25-16.5-8.25-15-15.3-27.9-17.6-32.25-1.3-2.45-2.8-5.15-3.25-6-1.55-2.65-16.75-31.25-21.25-40-2.4-4.65-4.6-8.7-4.8-8.95-.25-.3-1 .8-1.75 2.5-6.2 14.2-23.85 47-56.3 104.7-9.55 16.95-13.6 24.1-32.15 57-10.05 17.9-12.4 21.25-19.95 28.35-9.75 9.25-21.1 13.9-35.15 14.35-3.25.1-6.7.1-7.65 0zm751.6-15.8.15-16.15 38.9-.15 38.85-.1v-40.25c0-22.15.15-40.25.3-40.25s6.25 4.6 13.5 10.25l13.2 10.3V695H925l.1-16.1zM593.5 598v-94H687v110.55l60.9-.2c54.9-.15 61.35-.25 66.1-1 21.55-3.6 38.45-11.5 51-23.85 11.1-10.95 17-22.85 19.05-38.25.8-6.1.3-17.7-1-23.6-2.55-11.6-8.35-22.15-17.1-31-12.05-12.2-27.05-20.6-44.2-24.7-11.85-2.8-3.4-2.6-120.35-2.8-59.35-.1-107.9-.3-107.9-.45 0-.15.3-.55.65-.9.3-.35 7.15-9.25 15.1-19.75 8-10.55 16.55-21.8 19-25.05 2.5-3.25 9-11.85 14.5-19.15l10-13.3H728c45.95-.05 78.45.15 83.5.45 32.15 2 57.25 8.2 81.75 20.25 47.4 23.25 76.7 61.65 82.45 108.05 3.3 26.65-.4 53.7-10.45 76.7-11.15 25.5-31.4 48.45-57.8 65.65-20.95 13.6-45.2 22.75-71.95 27.05-19.45 3.15-11.75 3-132.1 3.15l-109.9.2V598z" fill="#1c986d"/></svg>