<svg version="1.0" xmlns="http://www.w3.org/2000/svg" width="270" height="50" viewBox="0 0 1080 200"><path d="M982 166.5V160h33l.2-17 .3-16.9 5.3 4.1 5.2 4.1V173h-44v-6.5zm-878.7 3.6c-5.1-1.3-9.6-4.4-12.5-8.6-2.1-3-6.8-17.9-18.7-59-8.7-30.2-16.3-56.7-16.9-58.8L54.1 40l19.6.2 19.6.3 4.9 18c2.7 9.9 7.3 27.6 10.4 39.4 3 11.8 5.6 21.7 5.9 21.9.2.2 2.9-4.7 6-10.9 15-30 32.9-62 36.6-65.3 5.8-5.3 15.2-7 24.2-4.5 7.6 2.1 10.5 6.1 26.5 36.7 8.3 15.8 16.8 32.2 18.8 36.5 2.1 4.2 4.1 7.7 4.5 7.7.3 0 2.9-9.1 5.8-20.2 2.8-11.2 7.5-29.1 10.4-39.8l5.3-19.5 19.2-.3c15.2-.2 19.1 0 18.7 1-.2.7-7.9 26.7-17 57.7-9.1 31-17.4 58-18.5 60.1-4.5 8.9-14.4 13.3-24.6 11.1-9.4-2.1-13.2-6.8-29.6-36.1-7.9-14.1-17.4-31.5-21.3-38.8C175.7 88 172.3 82 172 82c-.3 0-2.5 3.9-4.8 8.6-6.7 13.4-37.1 67.5-40.4 71.6-4.9 6.3-15.6 9.9-23.5 7.9zM563 129V89h39v47h27.3c28.6 0 33-.5 41.4-4.9 11.1-5.6 16.3-14 16.3-26.1 0-6.2-.5-8.6-2.6-12.7-2.9-5.8-8.3-11.2-14.6-14.4-9.1-4.7-11.6-4.9-60.5-4.9H563l12.4-16.2 12.3-16.3 32.4-.3c19.8-.2 36.1.1 41.9.8 31.9 3.8 56.5 22.8 62.5 48.1 7.6 32.5-11.8 63.8-46.4 75-12.8 4.1-24.7 4.9-72.8 4.9H563v-40z" fill="#1fad7c"/><path d="M343.3 169.5c-18.1-3.9-33.9-19.5-38.8-38-3.2-12.3-1.5-28.7 4.2-40.5 5.8-12.1 21.4-24 35.1-26.9 26.3-5.5 50.9 7.8 60.2 32.6 2.5 6.6 4.4 19.3 3.5 23.4l-.7 2.9H318l.6 2.8c2.1 8.5 5 13.9 10.3 19.3 7.7 7.6 14.4 10.2 26.6 10.2 12.6 0 19-2.5 27.2-11l6.3-6.3h7.5c4.1 0 7.5.3 7.5.6 0 2.2-7.3 12.8-12 17.4-12.7 12.5-30.5 17.4-48.7 13.5zm48.1-64.2c-2.3-9.8-11-20.4-20.2-24.6-3.9-1.8-6.5-2.2-15.7-2.2-9.8 0-11.6.3-16.6 2.6-7.4 3.5-13.3 9.5-17 17.2-5 10.6-8.2 9.7 33.6 9.7H392l-.6-2.7zm83.7 64.1c-8.3-1.7-15.7-5.4-22.3-10.9l-5.3-4.4-.7 2.7c-.3 1.5-.9 4.8-1.3 7.5l-.6 4.7H433V28h16v50l4.7-3.6c11.2-8.5 22.5-11.9 37.3-11.1 6.3.3 11.5 1.3 15.5 2.7 22.5 8.4 35.9 30 34.1 54.9-2.5 34.1-31.9 55.8-65.5 48.5zm21-14.8c31.5-7.4 39.3-51.7 12.4-70.1-14.5-9.8-35.4-8.4-48.6 3.3-15.7 14-16.5 41.6-1.6 56.6 10 9.9 23.6 13.6 37.8 10.2zm288.2 14.9c-18.1-3.9-33.9-19.5-38.8-38-3.2-12.3-1.5-28.7 4.2-40.5 5.8-12.1 21.4-24 35.1-26.9 26.3-5.5 50.9 7.8 60.2 32.6 2.5 6.6 4.4 19.3 3.5 23.4l-.7 2.9H759l.6 2.8c2.1 8.5 5 13.9 10.3 19.3 7.7 7.6 14.4 10.2 26.6 10.2 12.6 0 19-2.5 27.2-11l6.3-6.3h7.5c4.1 0 7.5.3 7.5.6 0 2.2-7.3 12.8-12 17.4-12.7 12.5-30.5 17.4-48.7 13.5zm48.1-64.2c-2.3-9.8-11-20.4-20.2-24.6-3.9-1.8-6.5-2.2-15.7-2.2-9.8 0-11.6.3-16.6 2.6-7.4 3.5-13.3 9.5-17 17.2-5 10.6-8.2 9.7 33.6 9.7H833l-.6-2.7zm51.4 13.4c-12-27.6-22-51-22.4-51.9-.5-1.6.2-1.8 7.3-1.8h8l17.3 40.8c9.5 22.4 17.6 41.1 18 41.5.7.8 1.6-1.1 23.1-52.5L947.5 65h7.8c4.7 0 7.7.4 7.5 1-.1.5-10 23.9-21.8 52l-21.5 51h-14l-21.7-50.3zm129.5.8c-4.2-1.8-6.1-5-7.4-12.2-1-5.8-1.1-5.9-3.9-5.5-5.6.8-7.1 5.2-4.9 14.2.2.8-.3 1.5-1.1 1.5-2.4 0-4.2-8.8-2.7-13.2 2.2-6.5 5-7.7 19.7-8.1 12.9-.4 13-.4 13 1.8 0 1.3-.8 2.4-2 2.7-2 .5-2 .5.1 3.4 6.1 8.6-1.4 19.4-10.8 15.4zm8.5-5.7c1.5-1.5 1.5-6.8-.1-8.9-1.9-2.5-5.2-3.9-9.1-3.9-3.6 0-3.6 0-3.6 4.4 0 6.1 2.9 9.6 7.9 9.6 2 0 4.2-.5 4.9-1.2zM978 84v-3h20.3l-2.2-2.4c-9.9-10.5 2-25.1 17.5-21.6 6.3 1.4 9.8 4.2 11.8 9.1 2.1 5.1.8 10.8-3.1 13.8l-2.6 2.1h3.2c2.6 0 3.1.4 3.1 2.5V87h-48v-3zm41.7-5.4c2.2-1.9 2.8-3.2 2.8-6.6 0-3.5-.6-4.7-3.3-7.1-2.8-2.5-4-2.9-9.3-2.9-7.6 0-11.4 1.9-12.9 6.5-.9 2.8-.9 4.3 0 6.6 2 4.7 4.6 5.9 12.7 5.9 6.1 0 7.6-.3 10-2.4zm-21.8-30.4c-4.4-2.2-6.4-7.6-4.9-13.4 1.6-5.6 3.6-4.4 3.2 2-.3 4.5-.1 5.2 2.3 6.8 3.4 2.2 5.2 1.3 8.5-4.8 3.9-7.1 5.8-8.8 9.9-8.8 6 .1 9.2 4 9.3 11.4.1 5.7-1 8.8-3 8.3-1-.2-1.5-1-1.3-1.8 2.4-8 .7-12.9-4.4-12.9-3.1 0-3.6.5-6.7 6.2-4.1 7.7-7.6 9.6-12.9 7z" fill="#fff"/></svg>