<?xml version="1.0" encoding="utf-8"?>
<!DOCTYPE svg PUBLIC "-//W3C//DTD SVG 1.0//EN" "http://www.w3.org/TR/2001/REC-SVG-20010904/DTD/svg10.dtd">
<svg version="1.0" xmlns="http://www.w3.org/2000/svg" width="50px" height="50px" viewBox="0 0 1080 1080" preserveAspectRatio="xMidYMid meet">
 <g fill="#ffffff">
  <path d="M0 540 l0 -540 540 0 540 0 0 540 0 540 -540 0 -540 0 0 -540z m190.05 152 c9.50 -2.05 17.55 -6.30 24.75 -13.15 7.55 -7.10 9.90 -10.45 19.95 -28.35 18.55 -32.90 22.60 -40.05 32.15 -57 32.40 -57.60 50.10 -90.50 56.30 -104.65 1.25 -2.85 1.30 -2.90 3.05 -2.75 1.80 0.15 1.85 0.20 6.10 8.40 4.45 8.70 15.30 29.10 20.15 38 1.55 2.90 3.80 7.05 5 9.25 2.30 4.25 10.75 19.75 17.35 31.75 2.20 4 6.35 11.40 9.25 16.50 8.40 14.75 21.50 37.95 31.40 55.50 9.75 17.35 12.55 21.85 16.80 27 15.55 19.15 39.55 25.70 62.15 17 10.65 -4.10 20 -13.35 26.05 -25.75 3 -6.15 4.10 -9.55 13 -40 1.05 -3.55 3.30 -11.20 5 -17 3.15 -10.60 6.50 -22.15 10 -34 1.05 -3.55 3.10 -10.45 4.50 -15.25 1.40 -4.80 3.65 -12.45 5 -17 2.55 -8.75 7.30 -24.85 10.60 -36 2.75 -9.40 7.60 -25.90 14.35 -48.85 2.35 -7.90 5.85 -19.90 9.05 -30.65 0.75 -2.60 3 -10.15 4.95 -16.75 1.90 -6.60 3.85 -13.10 4.25 -14.50 0.45 -1.35 0.80 -2.80 0.80 -3.10 0 -0.50 -9 -0.65 -43.40 -0.65 l-43.40 0 -4.15 15.40 c-9.75 36.05 -12.55 46.25 -18.35 67.60 -8.50 31.30 -25.20 96.90 -25.95 102.15 -0.35 2.30 -0.40 2.35 -2.20 2.35 l-1.80 -0.05 -11.60 -23.35 c-6.40 -12.85 -13.20 -26.40 -15.15 -30.10 -5.65 -10.70 -8.95 -16.95 -15.60 -29.50 -3.45 -6.45 -7.80 -14.65 -9.65 -18.25 -1.85 -3.55 -4 -7.60 -4.75 -9 -0.75 -1.35 -3 -5.65 -5 -9.50 -2 -3.85 -4.25 -8.10 -5 -9.50 -0.75 -1.35 -2.90 -5.40 -4.75 -9 -1.85 -3.55 -4.20 -8.05 -5.25 -10 -1 -1.90 -3.15 -5.95 -4.75 -9 -11.55 -21.90 -22.10 -30.95 -39.50 -34 -10.05 -1.80 -25.85 -1.05 -34 1.60 -12.10 3.90 -22 13.55 -31.10 30.40 -3.60 6.65 -5.30 9.80 -12.90 24 -3.20 6.05 -6.80 12.70 -7.90 14.75 -1.10 2.05 -2.70 5.10 -3.60 6.75 -0.90 1.65 -3.35 6.25 -5.50 10.25 -2.15 4 -4.60 8.60 -5.50 10.25 -0.90 1.65 -2.70 5.05 -4 7.50 -1.30 2.50 -3.55 6.65 -5 9.25 -1.45 2.60 -3.60 6.65 -4.85 9 -1.25 2.35 -3.40 6.40 -4.80 9 -9.30 17.45 -20.40 39.55 -25.80 51.40 -3.05 6.75 -3.15 6.85 -4.85 7 l-1.70 0.15 -2.15 -10.15 c-1.20 -5.60 -3.75 -16.80 -5.70 -24.90 -3.25 -13.60 -5.60 -22.55 -20.10 -76.25 -2.85 -10.45 -8.60 -31.90 -12.85 -47.60 l-7.70 -28.65 -44.60 0 c-24.55 0 -44.65 0.20 -44.65 0.45 0 0.20 1.35 5 2.95 10.60 2.75 9.35 5.75 19.75 21.55 74.45 3 10.30 8.40 29 12 41.50 3.60 12.50 9 31.20 12 41.50 3 10.30 8.40 29 12 41.50 3.60 12.50 8.55 29.65 11 38.05 5.90 20.30 8 25.70 12.95 33.20 4.70 7.15 11.50 13.20 18.85 16.90 5.70 2.85 10.25 4.05 19.20 5.05 3.15 0.35 10.65 -0.25 15.05 -1.20z m838.45 -43.25 l0 -44.70 -11.85 -9.25 -11.90 -9.25 -0.15 39.20 -0.10 39.25 -38.90 0.10 -38.85 0.15 -0.15 14.65 -0.10 14.60 51 0 51 0 0 -44.75z m-209.50 40.60 c16.50 -2 30.60 -4.80 43 -8.65 46.05 -14.30 84.55 -46.90 101.75 -86.20 16.05 -36.60 15.30 -80.70 -1.85 -115.05 -9.95 -19.90 -23.70 -35.90 -43.60 -50.70 -8.45 -6.30 -16.10 -10.90 -26.55 -16 -24.50 -12.05 -49.60 -18.25 -81.75 -20.25 -5.05 -0.30 -37.10 -0.50 -82 -0.45 l-73.75 0 -10 13.30 c-5.50 7.30 -12 15.90 -14.50 19.15 -13.30 17.45 -32 42.20 -32.15 42.55 -0.10 0.25 47.80 0.50 106.50 0.60 115.65 0.20 107.30 0 119.15 2.80 27.25 6.50 50.10 24.70 58.55 46.60 2.80 7.30 3.75 12.50 4.05 22.50 0.30 9.30 -0.20 14.80 -1.85 21.55 -6.10 24.75 -28.05 44.20 -58 51.60 -12.75 3.10 -9.90 3 -78.10 3.15 l-62.40 0.20 0 -55.30 0 -55.25 -45.25 0 -45.25 0 0 92.50 0 92.55 108.40 -0.20 c98.75 -0.15 109 -0.25 115.60 -1z"/>
 </g>
 <g fill="#1c986d">
  <path d="M173.50 694.70 c-9.15 -1.05 -13.50 -2.20 -19.20 -5.05 -9.45 -4.70 -17.50 -13.05 -22.70 -23.40 -2.40 -4.85 -4.80 -11.75 -8.10 -23.25 -1.70 -5.90 -4.40 -15.25 -6 -20.75 -1.60 -5.50 -6.80 -23.40 -11.50 -39.75 -4.70 -16.35 -10.35 -35.80 -12.50 -43.25 -2.15 -7.40 -7.55 -26.10 -12 -41.50 -4.45 -15.40 -9.85 -34.05 -12 -41.50 -2.15 -7.40 -7.35 -25.30 -11.50 -39.75 -4.15 -14.45 -7.65 -26.65 -7.80 -27.10 -0.25 -0.85 2.20 -0.90 46.40 -0.90 l46.65 0 7.70 28.65 c4.25 15.70 10 37.15 12.85 47.60 14.50 53.70 16.85 62.65 20.10 76.25 1.95 8.10 4.50 19.30 5.70 24.85 1.15 5.55 2.30 9.95 2.50 9.75 0.20 -0.20 1.50 -2.95 2.90 -6.10 4.80 -10.70 16.90 -34.75 26.10 -52 1.40 -2.60 3.55 -6.65 4.80 -9 1.25 -2.35 3.40 -6.40 4.85 -9 1.45 -2.60 3.70 -6.75 5 -9.25 1.30 -2.45 3.10 -5.85 4 -7.50 0.90 -1.65 3.35 -6.25 5.50 -10.25 2.15 -4 4.60 -8.60 5.50 -10.25 0.90 -1.65 2.50 -4.70 3.60 -6.75 1.10 -2.05 4.70 -8.70 7.90 -14.75 14.50 -27.10 15.60 -29.10 18.65 -33.70 3.40 -5.10 9.75 -11.90 13.80 -14.80 9.10 -6.45 17.25 -8.50 33.55 -8.45 7.30 0 11.35 0.25 15 0.90 17.45 3.15 27.95 12.20 39.50 34.05 1.60 3.05 3.75 7.10 4.75 9 1.05 1.95 3.40 6.45 5.25 10 1.85 3.60 4 7.65 4.75 9 0.75 1.40 3 5.65 5 9.50 2 3.85 4.25 8.15 5 9.50 0.75 1.40 2.90 5.45 4.75 9 1.85 3.60 6.20 11.80 9.65 18.25 6.65 12.55 9.95 18.80 15.60 29.50 1.95 3.70 8.75 17.25 15.15 30.10 6.35 12.85 11.75 23.35 11.90 23.40 0.20 0 0.50 -1.05 0.70 -2.35 0.75 -5.25 17.45 -70.85 25.95 -102.15 5.80 -21.35 8.60 -31.55 18.35 -67.60 l4.15 -15.40 45.40 0 c24.95 0 45.40 0.15 45.40 0.30 0 0.35 -4.80 16.75 -9 30.95 -3.30 11.05 -5.55 18.75 -11.05 37.40 -6.75 22.95 -11.60 39.45 -14.35 48.85 -3.30 11.15 -8.05 27.25 -10.60 36 -1.35 4.55 -3.60 12.20 -5 17 -1.40 4.80 -3.45 11.70 -4.50 15.25 -3.50 11.85 -6.85 23.40 -10 34 -1.70 5.80 -3.95 13.45 -5 17 -8.90 30.45 -10 33.85 -13 40 -9.05 18.60 -23.40 28.20 -44 29.50 -18.70 1.20 -35.30 -6.10 -47.20 -20.75 -4.25 -5.15 -7.05 -9.65 -16.80 -27 -9.90 -17.55 -23 -40.75 -31.40 -55.50 -2.90 -5.10 -7.05 -12.50 -9.25 -16.50 -8.25 -15 -15.30 -27.90 -17.60 -32.25 -1.30 -2.45 -2.80 -5.15 -3.25 -6 -1.55 -2.65 -16.75 -31.25 -21.25 -40 -2.40 -4.65 -4.60 -8.70 -4.80 -8.95 -0.25 -0.30 -1 0.80 -1.75 2.50 -6.20 14.20 -23.85 47 -56.30 104.70 -9.55 16.95 -13.60 24.10 -32.15 57 -10.05 17.90 -12.40 21.25 -19.95 28.35 -9.75 9.25 -21.10 13.90 -35.15 14.35 -3.25 0.10 -6.70 0.10 -7.65 0z"/>
  <path d="M925.10 678.90 l0.15 -16.15 38.90 -0.15 38.85 -0.10 0 -40.25 c0 -22.15 0.15 -40.25 0.30 -40.25 0.15 0 6.25 4.60 13.50 10.25 l13.20 10.30 0 46.20 0 46.25 -52.50 0 -52.50 0 0.10 -16.10z"/>
  <path d="M593.50 598 l0 -94 46.75 0 46.75 0 0 55.25 0 55.30 60.90 -0.20 c54.90 -0.15 61.35 -0.25 66.10 -1 21.55 -3.60 38.45 -11.50 51 -23.85 11.10 -10.95 17 -22.85 19.05 -38.25 0.80 -6.10 0.30 -17.70 -1 -23.60 -2.55 -11.60 -8.35 -22.15 -17.10 -31 -12.05 -12.20 -27.05 -20.60 -44.20 -24.70 -11.85 -2.80 -3.40 -2.60 -120.35 -2.80 -59.35 -0.10 -107.90 -0.30 -107.90 -0.45 0 -0.15 0.30 -0.55 0.65 -0.90 0.30 -0.35 7.15 -9.25 15.10 -19.75 8 -10.55 16.55 -21.80 19 -25.05 2.50 -3.25 9 -11.85 14.50 -19.15 l10 -13.30 75.25 0 c45.95 -0.05 78.45 0.15 83.50 0.45 32.15 2 57.25 8.20 81.75 20.25 47.40 23.25 76.70 61.65 82.45 108.05 3.30 26.65 -0.40 53.70 -10.45 76.70 -11.15 25.50 -31.40 48.45 -57.80 65.65 -20.95 13.60 -45.20 22.75 -71.95 27.05 -19.45 3.15 -11.75 3 -132.10 3.15 l-109.90 0.20 0 -94.05z"/>
 </g>
</svg>