<?xml version="1.0" encoding="utf-8"?>
<!DOCTYPE svg PUBLIC "-//W3C//DTD SVG 1.0//EN" "http://www.w3.org/TR/2001/REC-SVG-20010904/DTD/svg10.dtd">
<svg version="1.0" xmlns="http://www.w3.org/2000/svg" width="270px" height="50px" viewBox="0 0 1080 200" preserveAspectRatio="xMidYMid meet">
 <g fill="#1c986d">
  <path d="M982 166.5 l0 -6.5 16.5 0 16.5 0 0.2 -17 0.3 -16.9 5.3 4.1 5.2 4.1 0 19.3 0 19.4 -22 0 -22 0 0 -6.5z"/>
  <path d="M103.3 170.1 c-5.1 -1.3 -9.6 -4.4 -12.5 -8.6 -2.1 -3 -6.8 -17.9 -18.7 -59 -8.7 -30.2 -16.3 -56.7 -16.9 -58.8 l-1.1 -3.7 19.6 0.2 19.6 0.3 4.9 18 c2.7 9.9 7.3 27.6 10.4 39.4 3 11.8 5.6 21.7 5.9 21.9 0.2 0.2 2.9 -4.7 6 -10.9 15 -30 32.9 -62 36.6 -65.3 5.8 -5.3 15.2 -7 24.2 -4.5 7.6 2.1 10.5 6.1 26.5 36.7 8.3 15.8 16.8 32.2 18.8 36.5 2.1 4.2 4.1 7.7 4.5 7.7 0.3 0 2.9 -9.1 5.8 -20.2 2.8 -11.2 7.5 -29.1 10.4 -39.8 l5.3 -19.5 19.2 -0.3 c15.2 -0.2 19.1 0 18.7 1 -0.2 0.7 -7.9 26.7 -17 57.7 -9.1 31 -17.4 58 -18.5 60.1 -4.5 8.9 -14.4 13.3 -24.6 11.1 -9.4 -2.1 -13.2 -6.8 -29.6 -36.1 -7.9 -14.1 -17.4 -31.5 -21.3 -38.8 -3.8 -7.2 -7.2 -13.2 -7.5 -13.2 -0.3 0 -2.5 3.9 -4.8 8.6 -6.7 13.4 -37.1 67.5 -40.4 71.6 -4.9 6.3 -15.6 9.9 -23.5 7.9z"/>
  <path d="M563 129 l0 -40 19.5 0 19.5 0 0 23.5 0 23.5 27.3 0 c28.6 0 33 -0.5 41.4 -4.9 11.1 -5.6 16.3 -14 16.3 -26.1 0 -6.2 -0.5 -8.6 -2.6 -12.7 -2.9 -5.8 -8.3 -11.2 -14.6 -14.4 -9.1 -4.7 -11.6 -4.9 -60.5 -4.9 l-46.3 0 12.4 -16.2 12.3 -16.3 32.4 -0.3 c19.8 -0.2 36.1 0.1 41.9 0.8 31.9 3.8 56.5 22.8 62.5 48.1 7.6 32.5 -11.8 63.8 -46.4 75 -12.8 4.1 -24.7 4.9 -72.8 4.9 l-42.3 0 0 -40z"/>
 </g>
 <g fill="#033c69">
  <path d="M343.3 169.5 c-18.1 -3.9 -33.9 -19.5 -38.8 -38 -3.2 -12.3 -1.5 -28.7 4.2 -40.5 5.8 -12.1 21.4 -24 35.1 -26.9 26.3 -5.5 50.9 7.8 60.2 32.6 2.5 6.6 4.4 19.3 3.5 23.4 l-0.7 2.9 -44.4 0 -44.4 0 0.6 2.8 c2.1 8.5 5 13.9 10.3 19.3 7.7 7.6 14.4 10.2 26.6 10.2 12.6 0 19 -2.5 27.2 -11 l6.3 -6.3 7.5 0 c4.1 0 7.5 0.3 7.5 0.6 0 2.2 -7.3 12.8 -12 17.4 -12.7 12.5 -30.5 17.4 -48.7 13.5z m48.1 -64.2 c-2.3 -9.8 -11 -20.4 -20.2 -24.6 -3.9 -1.8 -6.5 -2.2 -15.7 -2.2 -9.8 0 -11.6 0.3 -16.6 2.6 -7.4 3.5 -13.3 9.5 -17 17.2 -5 10.6 -8.2 9.7 33.6 9.7 l36.5 0 -0.6 -2.7z"/>
  <path d="M475.1 169.4 c-8.3 -1.7 -15.7 -5.4 -22.3 -10.9 l-5.3 -4.4 -0.7 2.7 c-0.3 1.5 -0.9 4.8 -1.3 7.5 l-0.6 4.7 -6 0 -5.9 0 0 -70.5 0 -70.5 8 0 8 0 0 25 0 25 4.7 -3.6 c11.2 -8.5 22.5 -11.9 37.3 -11.1 6.3 0.3 11.5 1.3 15.5 2.7 22.5 8.4 35.9 30 34.1 54.9 -2.5 34.1 -31.9 55.8 -65.5 48.5z m21 -14.8 c31.5 -7.4 39.3 -51.7 12.4 -70.1 -14.5 -9.8 -35.4 -8.4 -48.6 3.3 -15.7 14 -16.5 41.6 -1.6 56.6 10 9.9 23.6 13.6 37.8 10.2z"/>
  <path d="M784.3 169.5 c-18.1 -3.9 -33.9 -19.5 -38.8 -38 -3.2 -12.3 -1.5 -28.7 4.2 -40.5 5.8 -12.1 21.4 -24 35.1 -26.9 26.3 -5.5 50.9 7.8 60.2 32.6 2.5 6.6 4.4 19.3 3.5 23.4 l-0.7 2.9 -44.4 0 -44.4 0 0.6 2.8 c2.1 8.5 5 13.9 10.3 19.3 7.7 7.6 14.4 10.2 26.6 10.2 12.6 0 19 -2.5 27.2 -11 l6.3 -6.3 7.5 0 c4.1 0 7.5 0.3 7.5 0.6 0 2.2 -7.3 12.8 -12 17.4 -12.7 12.5 -30.5 17.4 -48.7 13.5z m48.1 -64.2 c-2.3 -9.8 -11 -20.4 -20.2 -24.6 -3.9 -1.8 -6.5 -2.2 -15.7 -2.2 -9.8 0 -11.6 0.3 -16.6 2.6 -7.4 3.5 -13.3 9.5 -17 17.2 -5 10.6 -8.2 9.7 33.6 9.7 l36.5 0 -0.6 -2.7z"/>
  <path d="M883.8 118.7 c-12 -27.6 -22 -51 -22.4 -51.9 -0.5 -1.6 0.2 -1.8 7.3 -1.8 l8 0 17.3 40.8 c9.5 22.4 17.6 41.1 18 41.5 0.7 0.8 1.6 -1.1 23.1 -52.5 l12.4 -29.8 7.8 0 c4.7 0 7.7 0.4 7.5 1 -0.1 0.5 -10 23.9 -21.8 52 l-21.5 51 -7 0 -7 0 -21.7 -50.3z"/>
  <path d="M1013.3 119.5 c-4.2 -1.8 -6.1 -5 -7.4 -12.2 -1 -5.8 -1.1 -5.9 -3.9 -5.5 -5.6 0.8 -7.1 5.2 -4.9 14.2 0.2 0.8 -0.3 1.5 -1.1 1.5 -2.4 0 -4.2 -8.8 -2.7 -13.2 2.2 -6.5 5 -7.7 19.7 -8.1 12.9 -0.4 13 -0.4 13 1.8 0 1.3 -0.8 2.4 -2 2.7 -2 0.5 -2 0.5 0.1 3.4 6.1 8.6 -1.4 19.4 -10.8 15.4z m8.5 -5.7 c1.5 -1.5 1.5 -6.8 -0.1 -8.9 -1.9 -2.5 -5.2 -3.9 -9.1 -3.9 -3.6 0 -3.6 0 -3.6 4.4 0 6.1 2.9 9.6 7.9 9.6 2 0 4.2 -0.5 4.9 -1.2z"/>
  <path d="M978 84 l0 -3 10.2 0 10.1 0 -2.2 -2.4 c-9.9 -10.5 2 -25.1 17.5 -21.6 6.3 1.4 9.8 4.2 11.8 9.1 2.1 5.1 0.8 10.8 -3.1 13.8 l-2.6 2.1 3.2 0 c2.6 0 3.1 0.4 3.1 2.5 l0 2.5 -24 0 -24 0 0 -3z m41.7 -5.4 c2.2 -1.9 2.8 -3.2 2.8 -6.6 0 -3.5 -0.6 -4.7 -3.3 -7.1 -2.8 -2.5 -4 -2.9 -9.3 -2.9 -7.6 0 -11.4 1.9 -12.9 6.5 -0.9 2.8 -0.9 4.3 0 6.6 2 4.7 4.6 5.9 12.7 5.9 6.1 0 7.6 -0.3 10 -2.4z"/>
  <path d="M997.9 48.2 c-4.4 -2.2 -6.4 -7.6 -4.9 -13.4 1.6 -5.6 3.6 -4.4 3.2 2 -0.3 4.5 -0.1 5.2 2.3 6.8 3.4 2.2 5.2 1.3 8.5 -4.8 3.9 -7.1 5.8 -8.8 9.9 -8.8 6 0.1 9.2 4 9.3 11.4 0.1 5.7 -1 8.8 -3 8.3 -1 -0.2 -1.5 -1 -1.3 -1.8 2.4 -8 0.7 -12.9 -4.4 -12.9 -3.1 0 -3.6 0.5 -6.7 6.2 -4.1 7.7 -7.6 9.6 -12.9 7z"/>
 </g>
</svg>