<svg width="31" height="25" viewBox="0 0 31 25" fill="none" xmlns="http://www.w3.org/2000/svg">
<path d="M8.99545 0.851929H4.36918C1.95627 0.851929 0 2.8082 0 5.22111V9.84738C0 12.2603 1.95627 14.2165 4.36918 14.2165H4.82686C5.2106 14.2165 5.57007 14.4059 5.78774 14.7228C6.00443 15.0397 6.05202 15.4432 5.91331 15.8012L3.30392 22.5634C3.16521 22.9218 3.2128 23.3253 3.4295 23.6417C3.64716 23.9586 4.00663 24.148 4.39038 24.148H7.4624C7.89574 24.148 8.29371 23.907 8.49418 23.5233L12.2031 16.4375C12.9665 14.9789 13.3655 13.3568 13.3655 11.7105V5.22105C13.3656 2.8082 11.4084 0.851929 8.99545 0.851929Z" fill="black"/>
<path d="M26.6309 0.851929H22.0046C19.5916 0.851929 17.6355 2.8082 17.6355 5.22111V9.84738C17.6355 12.2603 19.5917 14.2165 22.0046 14.2165H22.4613C22.845 14.2165 23.2054 14.4059 23.4221 14.7228C23.6399 15.0397 23.6864 15.4432 23.5487 15.8012L20.9384 22.5634C20.7997 22.9219 20.8473 23.3254 21.0649 23.6418C21.2816 23.9587 21.6411 24.1481 22.0259 24.1481H25.0969C25.5303 24.1481 25.9282 23.907 26.1297 23.5233L29.8376 16.4375C30.6011 14.9789 31 13.3569 31 11.7105V5.22105C31 2.8082 29.0438 0.851929 26.6309 0.851929Z" fill="black"/>
</svg>
