<svg width="22" height="23" viewBox="0 0 22 23" fill="none" xmlns="http://www.w3.org/2000/svg">
<path d="M11 0C8.82441 0 6.69767 0.674463 4.88873 1.9381C3.07979 3.20174 1.66989 4.99779 0.83733 7.09914C0.00476617 9.20049 -0.213071 11.5128 0.211367 13.7435C0.635804 15.9743 1.68345 18.0234 3.22183 19.6317C4.76021 21.24 6.72022 22.3353 8.85401 22.779C10.9878 23.2228 13.1995 22.995 15.2095 22.1246C17.2195 21.2542 18.9375 19.7802 20.1462 17.8891C21.3549 15.9979 22 13.7745 22 11.5C22 8.45001 20.8411 5.52494 18.7782 3.36827C16.7153 1.2116 13.9174 0 11 0ZM11.0138 4.3125C11.7019 4.31483 12.374 4.53041 12.945 4.932C13.516 5.33358 13.9602 5.90314 14.2216 6.56866C14.4831 7.23419 14.5499 7.9658 14.4136 8.67101C14.2773 9.37621 13.9441 10.0234 13.4561 10.5306C12.9681 11.0379 12.3472 11.3825 11.6719 11.5209C10.9966 11.6593 10.2972 11.5853 9.66211 11.3081C9.02703 11.031 8.4848 10.5633 8.10396 9.96405C7.72312 9.36481 7.52078 8.66098 7.5225 7.94153C7.52381 7.46359 7.61516 6.99059 7.79132 6.54955C7.96748 6.10852 8.22501 5.70807 8.5492 5.37108C8.8734 5.0341 9.2579 4.76717 9.68077 4.58553C10.1036 4.4039 10.5566 4.31112 11.0138 4.3125ZM14.9113 13.0172C14.4856 13.4665 13.9716 13.8139 13.405 14.0352C12.8531 14.2425 12.2787 14.3773 11.695 14.4364C11.7825 14.5357 11.82 14.5854 11.88 14.6429C12.6713 15.474 13.4663 16.3026 14.255 17.1376C14.3807 17.257 14.4659 17.4158 14.4979 17.5902C14.5299 17.7646 14.507 17.9451 14.4325 18.1047C14.3563 18.2792 14.2328 18.4266 14.0773 18.5286C13.9217 18.6306 13.741 18.6826 13.5575 18.6783C13.3429 18.6556 13.1443 18.5492 13.0013 18.3804C12.4038 17.7518 11.795 17.135 11.21 16.4947C11.04 16.3078 10.96 16.3431 10.8075 16.5051C10.2063 17.1585 9.595 17.7884 8.98125 18.4222C8.86739 18.5544 8.7146 18.6432 8.54707 18.6744C8.37954 18.7057 8.20682 18.6776 8.05625 18.5947C7.89286 18.5153 7.75494 18.3882 7.65912 18.2286C7.56331 18.0691 7.51369 17.884 7.51625 17.6956C7.53462 17.4624 7.63853 17.2456 7.80625 17.0906C8.59042 16.2725 9.3725 15.4536 10.1525 14.6337C10.205 14.5789 10.2525 14.5214 10.3288 14.4377C9.2625 14.3214 8.30125 14.0457 7.47875 13.374C7.37413 13.2923 7.27358 13.2051 7.1775 13.1126C6.8175 12.7519 6.78125 12.3377 7.06625 11.9103C7.31 11.5457 7.71875 11.4477 8.145 11.6568C8.22538 11.6999 8.3023 11.7497 8.375 11.8058C9.13733 12.347 10.0357 12.6405 10.9572 12.6494C11.8787 12.6582 12.7821 12.382 13.5538 11.8555C13.7008 11.7297 13.871 11.6367 14.0538 11.5823C14.2236 11.5305 14.4052 11.5396 14.5694 11.6083C14.7337 11.677 14.8712 11.8013 14.96 11.9613C15.1913 12.3442 15.1888 12.7193 14.9113 13.0172ZM11.0088 9.73057C11.3462 9.72873 11.6756 9.62214 11.9551 9.42432C12.2345 9.22651 12.4515 8.94637 12.5785 8.61945C12.7054 8.29254 12.7367 7.93356 12.6682 7.58806C12.5997 7.24256 12.4347 6.9261 12.1939 6.67882C11.9532 6.43155 11.6476 6.26459 11.316 6.19913C10.9843 6.13367 10.6416 6.17265 10.3312 6.31114C10.0207 6.44963 9.75666 6.68138 9.57241 6.977C9.38817 7.27261 9.29205 7.61878 9.29625 7.97159C9.29756 8.20484 9.34296 8.43553 9.42985 8.65037C9.51675 8.86521 9.64341 9.05997 9.80257 9.22344C9.96172 9.38692 10.1502 9.51588 10.3572 9.60291C10.5642 9.68994 10.7857 9.73333 11.0088 9.73057Z" fill="#858688"/>
</svg>
