<svg width="22" height="23" viewBox="0 0 22 23" fill="none" xmlns="http://www.w3.org/2000/svg">
<path fill-rule="evenodd" clip-rule="evenodd" d="M11 0C4.92508 0 0 5.14894 0 11.5C0 17.8511 4.92508 23 11 23C17.0749 23 22 17.8511 22 11.5C22 5.14894 17.0749 0 11 0ZM16.0987 7.8209C15.9332 9.63934 15.217 14.052 14.8526 16.0888C14.6983 16.9508 14.3945 17.2397 14.1006 17.268C13.4621 17.3295 12.977 16.8264 12.3582 16.4023C11.3902 15.7388 10.8432 15.326 9.90344 14.6787C8.81719 13.9303 9.52145 13.5192 10.1402 12.8472C10.3022 12.6711 13.1166 9.99467 13.1712 9.75209C13.1781 9.72154 13.1845 9.60834 13.1201 9.54859C13.0556 9.48885 12.9607 9.50951 12.8923 9.52568C12.7952 9.54859 11.2484 10.6173 8.25258 12.7318C7.81344 13.0471 7.41598 13.2003 7.05934 13.1927C6.6666 13.1837 5.91121 12.9604 5.34961 12.7695C4.66082 12.5354 4.1134 12.4115 4.16109 12.0139C4.18559 11.8068 4.45844 11.5952 4.97922 11.3787C8.18598 9.91785 10.3241 8.95518 11.394 8.48979C14.4491 7.16149 15.0838 6.93055 15.4975 6.92291C16.0158 6.91334 16.1409 7.36058 16.0987 7.8209Z" fill="#858688"/>
</svg>
