<svg width="22" height="23" viewBox="0 0 22 23" fill="none" xmlns="http://www.w3.org/2000/svg">
<path d="M11 0C4.92486 0 0 5.14872 0 11.5C0 17.8513 4.92486 23 11 23C17.0751 23 22 17.8513 22 11.5C22 5.14872 17.0751 0 11 0ZM16.8593 15.4037H15.4635C15.3123 15.4039 15.1631 15.3684 15.0268 15.3C14.8905 15.2316 14.7708 15.1319 14.6764 15.0084C14.2578 14.459 13.4331 13.4847 12.5673 13.0663C12.5171 13.0417 12.4619 13.0308 12.4066 13.0345C12.3514 13.0382 12.2979 13.0564 12.2511 13.0874C12.2044 13.1184 12.1659 13.1613 12.1391 13.212C12.1124 13.2627 12.0983 13.3196 12.0982 13.3775V14.8208C12.0983 14.8973 12.0838 14.9731 12.0558 15.0438C12.0278 15.1146 11.9868 15.1788 11.935 15.233C11.8832 15.2871 11.8218 15.33 11.7541 15.3593C11.6865 15.3886 11.614 15.4037 11.5408 15.4037H10.8953C10.056 15.4037 8.24845 14.8695 6.80818 12.6761C5.581 10.8073 5.03396 9.35907 4.71496 8.18481C4.69642 8.11599 4.69338 8.04361 4.70609 7.97335C4.7188 7.90309 4.74691 7.83687 4.78822 7.77989C4.82953 7.7229 4.88291 7.6767 4.94417 7.6449C5.00543 7.61311 5.0729 7.59659 5.1413 7.59665H6.55334C6.69421 7.59652 6.83136 7.64394 6.94439 7.73184C7.05742 7.81975 7.14029 7.94345 7.18068 8.08455C7.44326 9.0027 8.12337 10.9834 9.32555 11.9697C9.36221 11.9999 9.40625 12.0187 9.45265 12.0239C9.49906 12.0292 9.54594 12.0207 9.58794 11.9995C9.62995 11.9782 9.66538 11.945 9.69018 11.9036C9.71499 11.8623 9.72816 11.8145 9.72821 11.7657V9.45376C9.72821 8.99686 9.53881 8.53974 9.24318 8.18248C9.20058 8.13124 9.17298 8.06827 9.16366 8.00108C9.15435 7.93389 9.16372 7.86532 9.19065 7.80355C9.21758 7.74177 9.26094 7.6894 9.31555 7.65268C9.37017 7.61595 9.43373 7.59642 9.49867 7.59642H11.6757C11.7878 7.59642 11.8953 7.64298 11.9746 7.72585C12.0539 7.80872 12.0984 7.92112 12.0985 8.03832V11.1525C12.0985 11.1976 12.1103 11.2418 12.1328 11.2803C12.1552 11.3188 12.1874 11.3501 12.2257 11.3708C12.264 11.3915 12.307 11.4007 12.35 11.3975C12.393 11.3943 12.4344 11.3788 12.4695 11.3527C12.8691 11.0553 13.2114 10.616 13.5262 10.1222C13.9223 9.50098 14.4058 8.47415 14.6483 7.94124C14.6953 7.83801 14.7692 7.7508 14.8617 7.68975C14.9541 7.62869 15.0612 7.59628 15.1705 7.59629H16.7105C16.7749 7.59626 16.8381 7.6134 16.8943 7.64609C16.9505 7.67877 16.9978 7.72592 17.0317 7.78306C17.0655 7.8402 17.0849 7.90544 17.0879 7.9726C17.0909 8.03975 17.0775 8.1066 17.0488 8.1668C16.6602 8.98168 15.9033 10.4766 15.1911 11.3536C15.0891 11.4798 15.0392 11.643 15.0523 11.8076C15.0654 11.9722 15.1404 12.1246 15.2608 12.2314C15.7251 12.6461 16.4499 13.4129 17.2313 14.6899C17.2744 14.7598 17.2987 14.8406 17.3017 14.9237C17.3046 15.0068 17.2861 15.0892 17.248 15.1623C17.2099 15.2353 17.1538 15.2963 17.0854 15.3388C17.017 15.3812 16.9389 15.4037 16.8593 15.4037Z" fill="#858688"/>
</svg>
